<svg width="1440" height="864" viewBox="0 0 1440 864" fill="none" xmlns="http://www.w3.org/2000/svg">
<path d="M-19.3301 863.748C15.5065 779.116 152.347 702.012 293.072 687.56C359.737 680.724 428.283 686.089 491.69 666.186C560.361 644.552 603.594 598.774 624.771 555.419C645.949 512.065 651.212 468.191 674.771 425.009C698.329 381.827 746.95 336.742 817.626 319.088C867.124 306.714 918.877 309.829 969.002 300.05C1037.8 286.637 1094.81 250.725 1138.17 213.514C1181.4 176.303 1215.87 135.891 1264.61 100.93C1336.54 49.3545 1438.79 12.317 1541.17 0.807617" stroke="white" stroke-opacity="0.15" stroke-miterlimit="10"/>
<path d="M-31.6107 845.922C-5.54592 786.558 69.7663 731.002 161.244 697.858C199.464 684.012 240.691 674.061 282.295 669.647C323.898 665.234 366.253 665.667 407.23 662.465C432.293 660.561 456.728 657.273 480.412 650.609C521.138 639.1 552.968 619.37 577.403 595.918C593.568 580.428 606.1 563.381 615.373 546.593C627.277 524.872 634.921 502.632 642.941 480.479C650.46 459.797 658.229 439.028 670.259 418.519C680.66 400.865 695.196 382.952 713.742 366.857C740.058 344.098 774.393 325.06 815.746 315.281C843.064 308.877 870.883 307.06 898.827 305.243C921.759 303.772 944.566 302.301 967.122 298.406C1007.97 291.224 1044.69 276.599 1077.15 258.427C1099.33 246.052 1119.5 232.033 1137.55 217.668C1163.99 196.64 1187.29 174.313 1212.48 152.419C1229.52 137.622 1247.19 122.911 1267.24 109.065C1296.32 88.9018 1329.65 70.7291 1365.61 55.4122C1420.5 31.8743 1481.28 14.8266 1541.93 6.60565" stroke="white" stroke-opacity="0.15" stroke-miterlimit="10"/>
<path d="M-43.8914 828.182C-16.3228 769.164 59.1147 713.868 150.467 680.465C188.687 666.446 229.664 656.321 271.392 651.734C312.996 647.148 355.727 647.408 396.579 644.898C421.641 643.34 445.826 640.831 469.134 635.033C509.359 624.995 540.687 607.255 566 585.188C582.666 570.65 595.824 554.208 605.849 537.853C618.756 516.738 627.277 495.017 636.174 473.21C644.445 452.874 652.966 432.365 665.622 412.202C676.525 394.808 691.562 377.154 710.609 361.405C737.677 339.165 772.388 320.819 813.866 311.646C841.309 305.589 869.254 304.031 897.073 302.647C920.005 301.522 942.812 300.397 965.368 296.849C1006.22 290.532 1042.94 277.118 1075.77 260.157C1098.07 248.561 1118.62 235.494 1137.04 221.908C1164.11 202.091 1188.17 180.717 1214.11 159.515C1231.65 145.15 1249.82 130.872 1270 117.199C1299.45 97.3823 1333.03 79.2097 1368.87 63.6331C1423.63 39.7491 1483.28 21.836 1543.05 12.4036" stroke="white" stroke-opacity="0.15" stroke-miterlimit="10"/>
<path d="M-56.172 810.355C-26.9744 751.597 48.5884 696.647 139.69 662.984C177.785 648.879 218.761 638.494 260.49 633.735C302.219 628.975 345.075 629.148 385.802 627.331C410.989 626.206 434.799 624.389 457.731 619.456C497.329 610.889 528.406 595.226 554.596 574.371C571.764 560.698 585.548 544.862 596.325 529.026C610.109 508.603 619.758 487.229 629.282 465.768C638.43 445.691 647.577 425.528 660.86 405.625C672.389 388.404 687.928 371.183 707.351 355.78C735.045 334.059 770.257 316.492 811.861 307.839C839.304 302.214 867.374 300.916 895.193 299.791C918.125 298.925 940.932 298.147 963.362 295.118C1004.09 289.666 1041.06 277.464 1074.01 261.801C1096.57 251.071 1117.37 238.869 1136.29 226.062C1163.86 207.37 1188.8 187.034 1215.49 166.525C1233.53 152.679 1252.08 138.747 1272.51 125.247C1302.46 105.69 1336.16 87.6036 1371.75 71.854C1426.26 47.6238 1485.03 28.7589 1543.68 18.2014" stroke="white" stroke-opacity="0.15" stroke-miterlimit="10"/>
<path d="M-68.4525 792.529C-37.7512 734.03 37.937 679.426 129.038 645.504C167.133 631.312 207.985 620.754 249.839 615.822C291.567 610.889 334.8 611.062 375.276 609.764C400.463 608.985 424.022 607.86 446.578 603.793C485.55 596.784 516.376 583.111 543.318 563.554C560.987 550.833 575.523 535.602 586.927 520.112C601.588 500.296 612.114 479.354 622.641 458.325C632.415 438.595 642.44 418.605 656.349 399.135C668.379 382.173 684.419 365.212 704.344 350.241C732.664 329.04 768.378 312.165 810.107 304.031C837.675 298.752 865.745 297.8 893.439 297.022C916.371 296.416 939.052 296.07 961.483 293.474C1002.21 288.887 1039.18 277.897 1072.51 263.446C1095.19 253.58 1116.37 242.244 1135.79 230.216C1163.99 212.735 1189.55 193.351 1216.99 173.534C1235.41 160.121 1254.46 146.535 1275.26 133.381C1305.71 114.17 1339.55 95.9976 1374.89 80.0749C1429.27 55.412 1487.04 35.7683 1544.68 23.9993" stroke="white" stroke-opacity="0.15" stroke-miterlimit="10"/>
<path d="M-80.7329 774.702C-48.5278 716.463 27.2856 662.205 118.262 628.023C156.231 613.745 197.083 602.928 238.937 597.822C280.791 592.716 324.149 592.803 364.499 592.197C389.687 591.851 412.995 591.418 435.3 588.216C473.771 582.678 504.096 570.996 532.04 552.823C550.085 540.968 565.373 526.429 577.529 511.372C593.192 492.248 604.721 471.652 615.999 451.056C626.651 431.672 637.302 411.942 651.838 392.731C664.495 376.029 681.036 359.328 701.336 344.703C730.409 324.021 766.498 307.839 808.352 300.31C836.046 295.377 864.116 294.772 891.81 294.339C914.742 294.079 937.423 293.993 959.854 291.916C1000.46 288.195 1037.55 278.416 1071.13 265.176C1094.06 256.176 1115.49 245.705 1135.29 234.456C1164.11 218.1 1190.43 199.755 1218.62 180.63C1237.54 167.736 1256.97 154.496 1278.02 141.516C1308.97 122.564 1342.93 104.478 1378.02 88.3823C1432.15 63.3733 1488.92 42.8642 1545.69 29.8837" stroke="white" stroke-opacity="0.15" stroke-miterlimit="10"/>
<path d="M-93.1389 756.963C-59.4301 699.07 16.5087 645.071 107.485 610.63C145.454 596.265 186.055 585.188 228.035 579.996C269.889 574.804 313.622 574.284 353.722 574.717C378.91 575.063 401.967 575.063 423.896 572.727C461.741 568.659 491.69 559.054 520.512 542.093C539.058 531.189 554.972 517.17 567.879 502.632C584.421 484.2 596.952 464.037 608.982 443.701C620.385 424.663 631.788 405.192 647.076 386.327C660.359 369.885 677.276 353.443 698.078 339.251C727.777 319.002 764.368 303.598 806.347 296.676C834.166 292.176 862.236 291.656 889.93 291.743C912.862 291.829 935.544 292.003 957.849 290.358C998.45 287.416 1035.54 278.936 1069.5 266.994C1092.56 258.859 1114.49 249.254 1134.66 238.783C1163.99 223.552 1191.18 206.245 1220.13 187.899C1239.55 175.525 1259.35 162.544 1280.65 149.823C1311.98 131.131 1346.19 113.045 1381.03 96.7765C1435.04 71.3348 1490.8 49.9603 1546.44 35.8549" stroke="white" stroke-opacity="0.15" stroke-miterlimit="10"/>
<path d="M-105.419 739.136C-70.2069 681.503 5.98252 627.85 96.7081 593.149C134.552 578.698 175.153 567.361 217.258 561.996C259.237 556.631 303.221 556.458 343.071 557.15C368.383 557.583 390.94 558.621 412.618 557.064C449.836 554.467 479.41 546.939 509.108 531.276C528.156 521.237 544.571 507.911 558.481 493.805C575.899 475.979 589.433 456.249 602.34 436.345C614.495 417.567 626.776 398.442 642.565 379.837C656.349 363.568 673.768 347.472 695.071 333.627C725.396 313.896 762.488 299.185 804.593 292.781C832.537 288.628 860.732 288.541 888.301 288.887C911.233 289.147 933.789 289.839 956.095 288.628C996.57 286.551 1033.79 279.282 1068 268.551C1091.18 261.282 1113.49 252.542 1134.16 242.85C1164.11 228.831 1191.93 212.476 1221.63 194.822C1241.55 182.88 1261.73 170.332 1283.28 157.871C1315.11 139.525 1349.45 121.439 1384.03 104.997C1437.92 79.2095 1492.68 56.9697 1547.31 41.6527" stroke="white" stroke-opacity="0.15" stroke-miterlimit="10"/>
<path d="M-117.7 721.31C-80.8581 663.936 -4.66871 610.716 85.9315 575.582C123.65 560.958 164.251 549.535 206.356 543.91C248.461 538.372 292.57 538.112 332.294 539.497C357.607 540.362 379.912 542.006 401.215 541.401C437.932 540.362 467.004 534.824 497.705 520.372C517.128 511.286 534.296 498.479 548.958 484.892C567.253 467.758 581.789 448.374 595.574 428.903C608.606 410.471 621.513 391.606 637.929 373.347C652.34 357.338 670.259 341.588 691.938 328.088C723.015 308.877 760.609 294.858 802.713 289.06C830.783 285.253 858.978 285.426 886.422 286.205C909.354 286.81 931.91 287.762 954.09 287.07C994.565 285.772 1031.66 279.801 1066.37 270.282C1089.8 263.878 1112.36 256.004 1133.41 247.004C1163.86 234.11 1192.56 218.793 1223.01 201.832C1243.43 190.409 1263.99 178.121 1285.91 165.919C1318.12 147.833 1352.58 129.833 1387.04 113.132C1440.67 86.998 1494.43 63.8928 1548.07 47.2778" stroke="white" stroke-opacity="0.15" stroke-miterlimit="10"/>
<path d="M-129.98 703.483C-91.635 646.369 -15.3203 593.495 75.2799 558.102C112.999 543.391 153.474 531.708 195.579 525.997C237.684 520.286 282.169 520.026 321.642 521.93C346.955 523.141 369.01 525.564 389.937 525.824C426.027 526.257 454.723 522.709 486.302 509.642C506.101 501.421 524.021 489.306 539.434 476.065C558.607 459.537 574.145 440.586 588.807 421.461C602.591 403.375 616.25 384.77 633.292 366.857C648.33 351.107 666.625 335.617 688.805 322.55C720.509 303.858 758.604 290.531 800.834 285.253C828.903 281.791 857.224 282.311 884.667 283.349C907.599 284.214 930.155 285.512 952.335 285.339C992.811 284.907 1029.9 280.147 1064.87 271.84C1088.42 266.301 1111.23 259.292 1132.91 251.071C1163.99 239.388 1193.43 225.023 1224.51 208.755C1245.44 197.764 1266.49 185.909 1288.55 173.88C1321.25 156.14 1355.84 138.054 1390.17 121.266C1443.68 94.6996 1496.44 70.729 1549.07 52.9891" stroke="white" stroke-opacity="0.15" stroke-miterlimit="10"/>
<path d="M-142.261 685.657C-102.412 628.889 -25.9718 576.275 64.5032 540.622C102.097 525.824 142.447 513.882 184.802 507.997C227.032 502.113 271.643 501.767 310.991 504.363C336.304 506.007 358.108 509.122 378.784 510.161C414.373 512.065 442.443 510.593 475.024 498.825C495.199 491.555 513.87 479.96 530.035 467.239C550.085 451.403 566.626 432.797 582.04 414.105C596.701 396.365 610.987 378.02 628.656 360.366C644.194 344.876 662.991 329.646 685.672 316.925C718.003 298.666 756.599 286.118 798.829 281.445C827.024 278.33 855.344 279.195 882.787 280.58C905.719 281.791 928.15 283.435 950.33 283.609C990.681 284.041 1027.9 280.493 1063.24 273.484C1086.92 268.724 1110.1 262.667 1132.28 255.225C1163.86 244.667 1194.06 231.341 1226.02 215.851C1247.44 205.38 1268.87 193.87 1291.18 182.015C1324.39 164.534 1359.22 146.535 1393.18 129.487C1446.56 102.661 1498.32 77.7385 1549.82 58.787" stroke="white" stroke-opacity="0.15" stroke-miterlimit="10"/>
<path d="M-154.542 667.917C-113.189 611.408 -36.6234 559.141 53.8516 523.228C91.445 508.344 131.67 496.229 174.025 490.171C216.255 484.113 261.242 483.767 300.339 486.883C325.778 488.959 347.206 492.681 367.506 494.671C402.468 498.046 430.162 498.565 463.746 488.094C484.422 481.69 503.72 470.787 520.637 458.499C541.564 443.268 559.233 425.182 575.398 406.75C590.811 389.27 605.849 371.183 624.144 353.963C640.31 338.732 659.607 323.848 682.665 311.473C715.747 293.733 754.719 281.878 797.074 277.811C825.395 275.128 853.715 276.167 881.158 277.984C904.09 279.455 926.521 281.445 948.576 282.138C988.926 283.436 1026.14 281.099 1061.73 275.301C1085.67 271.407 1109.1 266.128 1131.78 259.552C1163.99 250.119 1194.94 237.831 1227.64 223.033C1249.45 213.081 1271.38 201.832 1294.06 190.322C1327.77 173.102 1362.61 155.189 1396.44 137.881C1449.7 110.622 1500.32 84.9211 1550.95 64.7581" stroke="white" stroke-opacity="0.15" stroke-miterlimit="10"/>
<path d="M-166.822 650.09C-123.965 593.842 -47.1494 541.92 43.0749 505.747C80.543 490.777 120.768 478.402 163.123 472.171C205.479 465.941 250.716 465.508 289.563 469.316C315.001 471.825 336.179 476.239 356.103 479.008C390.438 483.854 417.631 486.45 452.217 477.277C473.269 471.739 493.194 461.441 510.988 449.672C532.792 435.134 551.464 417.394 568.506 399.394C584.671 382.26 600.586 364.434 619.383 347.472C636.174 332.415 655.848 317.877 679.407 305.848C713.116 288.628 752.589 277.464 795.069 273.916C823.515 271.58 851.961 272.965 879.279 275.128C902.211 276.945 924.642 279.282 946.571 280.407C986.796 282.484 1024.14 281.359 1060.1 276.859C1084.16 273.83 1107.97 269.417 1131.03 263.619C1163.74 255.398 1195.56 244.061 1228.9 229.956C1251.2 220.437 1273.51 209.62 1296.44 198.284C1330.53 181.409 1365.61 163.496 1399.2 146.016C1452.2 118.411 1501.95 91.7574 1551.45 70.4695" stroke="white" stroke-opacity="0.15" stroke-miterlimit="10"/>
<path d="M-179.103 632.264C-134.742 576.361 -57.801 524.699 32.298 488.267C69.7662 473.21 109.866 460.575 152.346 454.172C194.702 447.768 240.19 447.335 278.911 451.749C304.349 454.604 325.276 459.797 344.825 463.431C378.659 469.835 405.225 474.335 440.939 466.546C462.367 461.873 483.044 452.268 501.59 440.845C524.271 426.913 543.945 409.605 561.739 392.039C578.782 375.251 595.323 357.684 614.871 341.069C632.164 326.271 652.465 311.992 676.399 300.397C710.86 283.695 750.709 273.224 793.315 270.282C821.886 268.292 850.332 270.022 877.524 272.532C900.456 274.609 922.887 277.291 944.817 278.936C985.042 281.878 1022.38 281.964 1058.6 278.676C1082.78 276.513 1106.97 272.965 1130.53 267.945C1163.74 260.849 1196.32 250.552 1230.53 237.138C1253.33 228.139 1276.01 217.581 1299.2 206.505C1333.78 189.89 1369 171.977 1402.33 154.323C1455.21 126.372 1503.96 98.8533 1552.45 76.3539" stroke="white" stroke-opacity="0.15" stroke-miterlimit="10"/>
<path d="M-191.508 614.437C-145.519 558.794 -68.5777 507.478 21.5213 470.787C58.8641 455.557 98.8385 442.749 141.444 436.259C183.925 429.682 229.664 429.163 268.134 434.182C293.573 437.47 314.249 443.268 333.422 447.855C366.629 455.73 392.694 462.22 429.41 455.73C451.214 451.922 472.643 442.922 492.066 432.019C515.625 418.779 536.301 401.817 554.972 384.597C572.767 368.155 590.06 350.848 610.235 334.492C628.154 319.954 648.831 305.935 673.267 294.772C708.354 278.59 748.704 268.811 791.435 266.475C820.132 264.917 848.577 266.821 875.77 269.676C898.702 272.099 921.008 275.128 942.937 277.205C983.162 281.013 1020.38 282.311 1057.1 280.32C1081.53 279.022 1105.97 276.34 1130.03 272.099C1163.74 266.128 1197.19 256.869 1232.16 244.148C1255.46 235.581 1278.65 225.456 1301.95 214.553C1337.04 198.284 1372.38 180.371 1405.46 162.544C1458.22 134.16 1505.84 105.863 1553.33 82.0654" stroke="white" stroke-opacity="0.15" stroke-miterlimit="10"/>
<path d="M-203.789 596.611C-156.296 541.227 -79.2292 490.257 10.7445 453.306C47.962 437.989 87.9364 425.009 130.542 418.259C173.148 411.596 219.138 410.99 257.483 416.615C283.046 420.336 303.347 426.826 322.269 432.191C354.85 441.537 380.414 449.931 418.132 444.912C440.312 441.97 462.367 433.663 482.668 423.192C507.103 410.557 528.908 394.116 548.331 377.241C567.002 361.145 584.922 344.097 605.724 328.088C624.27 313.81 645.447 300.137 670.259 289.233C706.098 273.57 746.824 264.484 789.681 262.667C818.377 261.455 846.948 263.705 874.141 266.907C897.073 269.59 919.378 272.965 941.183 275.474C981.282 280.147 1018.63 282.657 1055.59 281.878C1080.15 281.359 1104.96 279.628 1129.4 276.166C1163.74 271.32 1197.95 263.099 1233.53 251.157C1257.34 243.11 1280.9 233.331 1304.59 222.687C1340.17 206.678 1375.64 188.851 1408.47 170.765C1460.97 142.035 1507.72 112.786 1554.21 87.8633" stroke="white" stroke-opacity="0.15" stroke-miterlimit="10"/>
<path d="M-216.069 578.871C-167.073 523.747 -89.7553 473.123 -0.0322665 435.913C37.1853 420.509 77.0343 407.269 119.64 400.433C162.246 393.596 208.486 392.991 246.706 399.135C272.27 403.288 292.32 410.471 310.866 416.702C342.945 427.519 368.008 437.903 406.729 434.182C429.285 432.018 452.092 424.403 473.144 414.452C498.457 402.423 521.264 386.414 541.564 369.885C560.987 354.049 579.784 337.348 601.087 321.685C620.26 307.666 641.813 294.253 667.001 283.782C703.467 268.638 744.694 260.244 787.676 259.032C816.498 258.167 845.069 260.763 872.261 264.311C895.193 267.34 917.499 271.061 939.303 274.003C979.403 279.541 1016.75 283.176 1054.09 283.695C1078.77 284.041 1103.96 283.089 1128.9 280.493C1163.74 276.772 1198.7 269.59 1235.16 258.34C1259.47 250.811 1283.41 241.292 1307.34 230.908C1343.31 215.245 1379.02 197.332 1411.73 179.159C1464.11 149.996 1509.85 119.968 1555.21 93.8342" stroke="white" stroke-opacity="0.15" stroke-miterlimit="10"/>
<path d="M-228.35 561.044C-177.849 506.267 -100.407 455.902 -10.6838 418.432C26.4085 402.942 66.2575 389.442 108.989 382.433C151.72 375.423 198.211 374.731 236.18 381.568C261.744 386.154 281.543 393.942 299.713 401.125C331.166 413.413 355.727 425.701 395.451 423.451C418.383 422.153 441.816 415.144 463.746 405.625C489.936 394.288 513.745 378.625 534.797 362.53C555.098 347.04 574.521 330.598 596.451 315.194C616.124 301.348 638.305 288.281 663.868 278.157C701.086 263.532 742.814 255.917 785.796 255.224C814.743 254.792 843.314 257.647 870.382 261.542C893.314 264.83 915.494 268.897 937.298 272.359C977.272 278.676 1014.74 283.608 1052.33 285.426C1077.27 286.637 1102.58 286.551 1128.15 284.733C1163.49 282.137 1199.32 275.993 1236.54 265.436C1261.35 258.34 1285.66 249.253 1309.85 239.042C1346.31 223.725 1382.03 205.726 1414.61 187.38C1466.74 157.785 1511.48 126.978 1555.96 99.6321" stroke="white" stroke-opacity="0.15" stroke-miterlimit="10"/>
<path d="M-240.63 543.218C-188.626 488.7 -111.058 438.682 -21.4605 400.952C15.6317 385.375 55.3555 371.703 98.0867 364.434C140.818 357.251 187.559 356.559 225.403 363.914C250.967 368.933 270.39 377.414 288.31 385.375C319.261 399.221 343.196 413.327 384.048 412.548C407.356 412.115 431.541 405.798 454.222 396.712C481.164 385.981 506.101 370.837 528.03 355.088C549.083 339.944 569.258 323.761 591.814 308.704C612.114 295.118 634.671 282.397 660.735 272.618C698.579 258.427 740.809 251.59 783.917 251.417C812.989 251.331 841.685 254.446 868.627 258.773C891.559 262.407 913.739 266.734 935.418 270.715C975.393 277.897 1012.86 284.041 1050.83 287.07C1075.89 289.06 1101.58 289.926 1127.52 288.801C1163.49 287.33 1200.08 282.224 1237.92 272.359C1263.23 265.782 1287.92 257.042 1312.48 247.09C1349.45 232.033 1385.29 214.12 1417.62 195.601C1469.5 165.659 1513.35 133.901 1556.84 105.43" stroke="white" stroke-opacity="0.15" stroke-miterlimit="10"/>
<path d="M-252.911 525.391C-199.278 471.133 -121.71 421.461 -32.1122 383.472C4.8547 367.722 44.4531 353.876 87.3097 346.521C130.166 339.165 177.158 338.473 214.751 346.434C240.44 351.886 259.488 361.059 277.031 369.885C307.357 385.202 330.79 402.596 372.644 401.817C396.328 401.385 421.265 396.539 444.698 387.971C472.517 377.847 498.582 363.135 521.264 347.732C543.068 332.934 564.12 317.012 587.303 302.214C608.23 288.887 631.287 276.426 657.728 267.08C696.324 253.407 738.93 247.35 782.037 247.696C811.234 248.042 839.931 251.417 866.873 256.003C889.805 259.898 911.985 264.657 933.538 268.984C973.388 277.118 1010.86 284.301 1049.2 288.628C1074.39 291.483 1100.45 293.128 1126.89 292.868C1163.36 292.522 1200.7 288.455 1239.42 279.282C1265.11 273.138 1290.43 264.744 1315.11 255.052C1352.58 240.34 1388.54 222.341 1420.62 203.649C1472.38 173.275 1515.23 140.737 1557.59 111.055" stroke="white" stroke-opacity="0.15" stroke-miterlimit="10"/>
<path d="M-265.192 507.651C-210.054 453.652 -132.361 404.413 -42.8889 366.078C-5.92198 350.242 33.5512 336.136 76.533 328.607C119.515 321.079 166.632 320.386 204.1 328.954C229.789 334.838 248.586 344.617 265.879 354.395C295.578 371.183 318.635 389.096 361.366 391.173C385.426 392.298 410.989 387.366 435.3 379.318C463.996 369.799 491.064 355.52 514.497 340.549C537.178 326.098 558.857 310.435 582.666 295.983C604.22 282.916 627.653 270.801 654.595 261.715C693.818 248.648 736.925 243.196 780.157 244.061C809.48 244.754 838.176 248.475 865.118 253.407C888.05 257.648 910.105 262.753 931.784 267.513C971.633 276.426 1009.1 284.907 1047.82 290.445C1073.14 294.079 1099.58 296.676 1126.52 297.195C1163.49 297.974 1201.71 294.945 1241.05 286.551C1267.24 280.926 1292.93 272.878 1317.87 263.359C1355.84 248.994 1391.93 230.994 1423.76 212.129C1475.26 181.409 1517.11 148.006 1558.59 117.112" stroke="white" stroke-opacity="0.15" stroke-miterlimit="10"/>
<path d="M-277.597 489.825C-220.957 436.172 -143.013 387.193 -53.791 348.597C-16.9494 332.675 22.5237 318.31 65.5056 310.695C108.487 302.993 155.98 302.3 193.198 311.387C218.887 317.704 237.433 328.175 254.35 338.732C283.548 356.991 305.978 376.808 349.837 380.27C374.273 382.26 400.589 377.933 425.776 370.318C455.35 361.405 483.419 347.646 507.73 333.021C531.163 318.915 553.594 303.512 578.03 289.32C600.085 276.513 624.144 264.657 651.462 256.004C691.437 243.456 734.92 238.696 778.278 240.167C807.6 241.206 836.422 245.273 863.364 250.552C886.296 255.138 908.351 260.503 929.904 265.782C969.754 275.561 1007.22 285.166 1046.19 292.089C1071.76 296.589 1098.45 299.964 1125.77 301.349C1163.36 303.252 1202.33 301.262 1242.43 293.56C1269.12 288.368 1295.19 280.753 1320.38 271.407C1358.85 257.302 1395.06 239.389 1426.64 220.264C1478.02 189.197 1518.87 154.929 1559.22 122.737" stroke="white" stroke-opacity="0.15" stroke-miterlimit="10"/>
<path d="M-289.878 471.998C-231.733 418.605 -153.664 369.972 -64.4425 331.117C-27.6009 315.108 11.7469 300.57 54.7287 292.695C97.8359 284.82 145.454 284.041 182.546 293.82C208.235 300.57 226.531 311.733 243.072 323.156C271.643 342.886 293.698 364.52 338.434 369.539C363.371 372.308 390.188 368.674 416.252 361.578C446.578 353.27 475.901 339.944 500.963 325.665C525.274 311.906 548.456 296.762 573.393 282.916C596.075 270.369 620.51 258.859 648.329 250.465C688.93 238.437 732.915 234.369 776.398 236.446C805.846 237.917 834.668 242.244 861.484 247.869C884.416 252.715 906.471 258.513 927.899 264.224C967.623 274.868 1005.22 285.685 1044.56 293.82C1070.25 299.185 1097.32 303.425 1125.14 305.589C1163.23 308.618 1202.96 307.666 1243.94 300.656C1271.13 295.983 1297.57 288.714 1323.13 279.628C1361.98 265.869 1398.32 247.869 1429.77 228.658C1481.02 197.159 1520.87 162.025 1560.22 128.708" stroke="white" stroke-opacity="0.15" stroke-miterlimit="10"/>
<path d="M-302.158 454.172C-242.51 401.038 -164.316 352.751 -75.2193 313.55C-38.503 297.454 0.719535 282.657 43.952 274.609C87.0592 266.561 135.054 265.782 171.895 276.08C197.584 283.262 215.629 295.031 231.794 307.406C259.864 328.694 281.417 352.145 327.156 358.635C352.469 362.183 380.038 359.241 406.854 352.664C438.057 344.963 468.382 332.155 494.322 318.223C519.509 304.81 543.318 289.926 568.882 276.426C592.19 264.138 617.127 252.888 645.322 244.927C686.675 233.417 731.035 230.042 774.644 232.639C804.217 234.456 833.039 239.129 859.855 245.1C882.787 250.292 904.717 256.35 926.27 262.58C965.994 274.089 1003.59 286.031 1043.19 295.464C1069.13 301.608 1096.44 306.714 1124.76 309.742C1163.49 313.81 1203.96 313.983 1245.56 307.666C1273.26 303.512 1300.2 296.502 1325.89 287.676C1365.24 274.176 1401.7 256.263 1433.03 236.792C1484.03 204.947 1522.88 168.948 1561.22 134.42" stroke="white" stroke-opacity="0.15" stroke-miterlimit="10"/>
<path d="M-314.439 436.345C-253.162 383.558 -174.967 335.53 -85.8707 296.07C-49.2798 279.888 -10.0573 264.83 33.1752 256.696C76.4077 248.561 124.527 247.696 161.244 258.6C186.932 266.215 204.727 278.676 220.641 291.83C248.084 314.589 269.262 339.944 315.878 347.819C341.567 352.232 369.887 349.895 397.456 343.838C429.536 336.742 460.863 324.367 487.555 310.781C513.494 297.714 538.055 283.089 564.245 269.849C588.18 257.821 613.493 246.831 642.189 239.302C684.169 228.225 729.03 225.629 772.764 228.831C802.463 230.994 831.41 235.927 858.101 242.244C881.033 247.696 902.963 254.186 924.391 260.763C963.989 273.138 1001.71 286.205 1041.68 297.022C1067.75 303.945 1095.44 310.002 1124.26 313.81C1163.49 319.002 1204.84 320.127 1247.19 314.589C1275.39 310.868 1302.71 304.291 1328.65 295.637C1368.49 282.484 1405.09 264.484 1436.16 244.927C1487.04 212.649 1524.88 175.871 1562.23 140.131" stroke="white" stroke-opacity="0.15" stroke-miterlimit="10"/>
<path d="M-326.719 418.605C-263.938 366.078 -185.493 318.396 -96.6475 278.676C-60.0565 262.321 -20.9594 247.177 22.2731 238.783C65.5056 230.475 113.876 229.696 150.467 241.033C176.156 249.081 193.699 262.234 209.238 276.253C236.055 300.483 256.856 327.656 304.349 337.088C330.539 342.28 359.361 340.636 387.807 335.098C420.764 328.607 453.219 316.665 480.663 303.512C507.354 290.705 532.792 276.426 559.484 263.532C584.045 251.763 609.859 241.033 638.931 233.85C681.537 223.293 727.025 221.389 770.759 225.196C800.583 227.793 829.53 232.985 856.221 239.648C879.153 245.446 901.083 252.196 922.386 259.292C961.984 272.445 999.703 286.81 1039.93 298.839C1066.24 306.627 1094.19 313.464 1123.39 318.137C1163.23 324.367 1205.21 326.617 1248.45 321.858C1277.14 318.656 1304.84 312.425 1331.15 303.945C1371.5 291.051 1408.22 273.138 1439.05 253.321C1489.8 220.697 1526.64 182.967 1562.85 146.102" stroke="white" stroke-opacity="0.15" stroke-miterlimit="10"/>
<path d="M-339 400.779C-274.715 348.511 -196.145 301.175 -107.424 261.196C-70.9586 244.754 -31.8614 229.35 11.4964 220.87C54.8542 212.389 103.475 211.524 139.815 223.552C210.115 246.744 216.506 309.223 293.071 326.357C350.464 339.251 421.265 320.04 474.021 296.156C526.777 272.272 574.145 242.59 635.924 228.312C708.855 211.437 788.804 219.572 854.467 236.879C920.13 254.186 976.019 280.061 1038.42 300.483C1100.83 320.819 1173.89 335.963 1249.95 328.781C1323.88 321.858 1391.55 294.512 1442.05 261.455C1492.55 228.398 1528.39 189.89 1563.73 151.814" stroke="white" stroke-opacity="0.15" stroke-miterlimit="10"/>
<path d="M-327.847 396.019C-264.44 344.271 -187.122 297.368 -99.7803 257.475C-62.4375 240.427 -22.2125 224.677 22.1478 216.283C65.255 208.149 113.249 207.457 149.339 219.312C218.887 242.158 226.907 302.993 302.47 320.127C348.459 330.598 402.844 320.733 449.961 304.377C461.114 300.483 471.891 296.243 482.041 291.829C534.672 268.811 581.914 239.735 643.192 225.456C684.795 215.764 728.529 213.947 770.634 217.235C801.585 219.658 831.535 224.764 859.103 231.6C924.14 247.609 979.778 271.84 1041.68 291.224C1059.48 296.762 1078.15 301.868 1097.45 306.281C1145.57 317.185 1197.82 323.329 1251.45 318.742C1260.98 317.963 1270.38 316.752 1279.65 315.367C1341.8 305.675 1398.32 282.484 1442.55 254.705C1493.05 222.86 1529.65 185.13 1564.73 147.4" stroke="white" stroke-opacity="0.15" stroke-miterlimit="10"/>
<path d="M-316.569 391.26C-254.039 339.944 -177.975 293.474 -92.011 253.753C-53.9163 236.1 -12.4381 219.918 33.05 211.697C75.9065 203.909 123.274 203.303 159.239 214.985C228.16 237.398 237.809 296.762 312.244 313.81C357.732 324.281 411.491 315.194 458.357 299.445C469.51 295.724 480.162 291.656 490.312 287.33C542.692 265.09 589.934 236.792 650.585 222.427C691.687 212.649 734.92 210.485 776.523 213.168C806.974 215.158 836.673 219.745 863.991 225.975C928.276 240.6 983.663 263.272 1045.19 281.532C1062.86 286.724 1081.41 291.656 1100.58 295.81C1148.57 306.195 1200.2 312.425 1253.33 308.185C1262.73 307.493 1272.01 306.368 1281.15 305.07C1342.56 296.07 1398.95 274.176 1443.31 247.35C1493.93 216.716 1531.27 179.678 1565.99 142.295" stroke="white" stroke-opacity="0.15" stroke-miterlimit="10"/>
<path d="M-305.416 386.414C-243.763 335.617 -169.077 289.493 -84.4922 249.946C-45.6456 231.773 -2.78904 215.158 43.5762 207.024C86.1821 199.582 132.923 199.149 168.637 210.658C236.807 232.725 248.085 290.445 321.642 307.492C366.755 317.963 419.761 309.569 466.503 294.599C477.53 291.051 488.181 287.07 498.332 282.916C550.461 261.455 597.829 233.85 657.728 219.485C698.454 209.706 741.06 207.197 782.162 209.274C812.237 210.831 841.56 214.899 868.627 220.523C932.286 233.85 987.423 254.878 1048.32 272.099C1065.99 277.032 1084.29 281.618 1103.34 285.599C1151.08 295.464 1202.21 301.695 1254.71 297.973C1263.99 297.368 1273.26 296.416 1282.28 295.118C1343.06 286.81 1399.07 266.215 1443.68 240.34C1494.43 210.918 1532.4 174.659 1566.86 137.622" stroke="white" stroke-opacity="0.15" stroke-miterlimit="10"/>
<path d="M-294.138 381.654C-233.362 331.377 -159.93 285.599 -76.7229 246.138C-36.9992 227.36 6.98515 210.312 54.4782 202.351C96.8335 195.255 142.948 194.909 178.411 206.245C245.954 227.879 258.736 284.128 331.291 301.089C376.028 311.56 428.283 303.945 474.898 289.58C485.926 286.205 496.577 282.397 506.602 278.416C558.481 257.734 605.849 230.821 665.121 216.37C705.346 206.591 747.451 203.649 788.052 205.12C817.751 206.245 846.698 209.793 873.389 214.812C936.295 226.754 991.182 246.311 1051.71 262.321C1069.25 266.907 1087.55 271.234 1106.34 275.041C1153.84 284.474 1204.46 290.618 1256.34 287.33C1265.61 286.724 1274.64 285.945 1283.66 284.82C1343.81 277.291 1399.45 257.907 1444.31 232.985C1495.06 204.687 1533.78 169.294 1567.99 132.603" stroke="white" stroke-opacity="0.15" stroke-miterlimit="10"/>
<path d="M-282.986 376.895C-223.087 327.05 -151.033 281.705 -69.079 242.417C-28.6034 223.033 16.634 205.553 65.2549 197.765C107.36 191.015 152.848 190.842 188.06 202.005C254.977 223.293 269.262 277.897 340.94 294.858C385.175 305.416 436.929 298.406 483.294 284.734C494.196 281.445 504.848 277.897 514.873 274.003C566.626 254.186 613.869 227.879 672.64 213.428C712.489 203.649 753.967 200.274 794.067 201.226C823.264 201.918 851.835 204.947 878.401 209.36C940.681 219.831 995.192 238.004 1055.34 252.888C1072.76 257.215 1090.93 261.282 1109.6 264.83C1156.84 273.83 1207.09 279.888 1258.35 277.118C1267.49 276.599 1276.52 275.907 1285.41 274.868C1344.81 268.032 1400.2 249.946 1445.19 225.889C1496.06 198.803 1535.54 164.188 1569.37 127.843" stroke="white" stroke-opacity="0.15" stroke-miterlimit="10"/>
<path d="M-271.833 372.135C-212.811 322.81 -142.01 277.724 -61.5604 238.696C-20.3329 218.62 26.1577 200.88 75.781 193.178C117.635 186.688 162.371 186.774 197.459 197.764C263.623 218.62 279.538 271.753 350.213 288.628C394.072 299.185 445.074 292.954 491.189 279.974C502.091 276.859 512.617 273.397 522.642 269.763C574.145 250.725 621.387 225.11 679.532 210.658C718.88 200.88 759.857 197.159 799.33 197.505C828.151 197.851 856.347 200.274 882.662 204.168C944.315 213.341 998.575 229.869 1058.22 243.715C1075.52 247.696 1093.56 251.504 1112.11 254.878C1159.1 263.359 1208.85 269.417 1259.47 267.08C1268.5 266.647 1277.52 266.042 1286.29 265.176C1345.06 259.119 1399.95 242.244 1445.31 219.139C1496.19 193.178 1536.41 159.342 1570 123.43" stroke="white" stroke-opacity="0.15" stroke-miterlimit="10"/>
<path d="M-260.555 367.376C-202.411 318.483 -132.988 273.83 -53.791 234.888C-11.6864 214.206 35.932 196.034 86.6832 188.505C128.287 182.361 172.396 182.534 207.358 193.351C272.896 213.86 290.314 265.349 359.988 282.224C403.471 292.781 453.721 287.33 499.71 274.955C510.487 272.013 521.013 268.724 531.038 265.176C582.29 246.917 629.533 221.995 687.051 207.543C725.897 197.764 766.373 193.611 805.345 193.351C833.791 193.264 861.61 195.168 887.674 198.457C948.576 206.245 1002.71 221.216 1061.86 233.937C1079.03 237.658 1096.94 241.206 1115.37 244.321C1162.11 252.369 1211.35 258.34 1261.35 256.436C1270.25 256.09 1279.15 255.571 1287.92 254.792C1346.06 249.513 1400.57 233.85 1446.19 211.697C1497.06 186.947 1538.04 153.89 1571.37 118.324" stroke="white" stroke-opacity="0.15" stroke-miterlimit="10"/>
<path d="M-249.402 362.53C-192.135 314.156 -124.091 269.763 -46.1469 231.081C-3.29036 209.793 45.5811 191.188 97.3348 183.832C138.688 177.948 182.171 178.38 216.882 189.024C281.668 209.101 300.715 259.119 369.511 275.907C412.493 286.551 462.242 281.791 507.981 270.109C518.757 267.34 529.158 264.224 539.183 260.763C590.31 243.369 637.427 219.052 694.319 204.514C732.79 194.736 772.639 190.149 811.109 189.37C839.054 188.765 866.622 190.149 892.311 192.918C952.586 199.322 1006.34 212.735 1065.12 224.418C1082.28 227.793 1099.95 231.081 1118.25 234.023C1164.74 241.552 1213.48 247.523 1262.98 246.138C1271.88 245.879 1280.65 245.446 1289.3 244.754C1346.82 240.167 1400.95 225.802 1446.81 204.601C1497.69 181.063 1539.42 148.785 1572.5 113.565" stroke="white" stroke-opacity="0.15" stroke-miterlimit="10"/>
<path d="M-238.124 357.77C-181.734 309.916 -115.068 265.782 -38.3776 227.36C5.23084 205.466 55.3554 186.428 108.237 179.246C149.339 173.707 192.196 174.227 226.656 184.697C290.816 204.428 311.367 252.802 379.16 269.59C421.766 280.234 470.763 276.253 516.377 265.176C527.028 262.58 537.429 259.551 547.454 256.35C598.33 239.735 645.447 216.11 701.712 201.572C739.682 191.793 779.03 186.774 816.999 185.476C844.567 184.524 871.76 185.303 897.198 187.467C956.721 192.486 1010.35 204.341 1068.5 214.899C1085.54 218.014 1103.21 220.956 1121.26 223.725C1167.62 230.735 1215.74 236.706 1264.61 235.754C1273.38 235.581 1282.03 235.235 1290.68 234.715C1347.44 230.821 1401.33 217.754 1447.44 197.505C1498.44 175.092 1540.92 143.593 1573.5 108.805" stroke="white" stroke-opacity="0.15" stroke-miterlimit="10"/>
<path d="M-226.971 353.011C-171.458 305.589 -106.171 261.801 -30.8589 223.552C13.5014 201.053 65.0044 181.582 118.888 174.573C159.615 169.294 201.97 170.073 236.18 180.371C299.713 199.668 321.768 246.571 388.559 263.273C430.789 273.917 479.034 270.715 524.522 260.244C535.173 257.821 545.574 254.965 555.474 251.85C606.1 236.014 653.217 213.081 708.98 198.543C746.574 188.678 785.295 183.399 822.638 181.409C849.831 180.025 876.522 180.284 901.835 181.928C960.731 185.649 1013.99 195.861 1071.76 205.38C1088.67 208.149 1106.22 210.918 1124.26 213.428C1170.38 220.004 1218 225.889 1266.24 225.456C1274.89 225.37 1283.53 225.11 1292.05 224.677C1348.19 221.562 1401.7 209.707 1447.94 190.409C1498.94 169.121 1542.18 138.487 1574.51 104.046" stroke="white" stroke-opacity="0.15" stroke-miterlimit="10"/>
<path d="M-215.693 348.251C-161.058 301.348 -97.1488 257.821 -23.0897 219.831C22.0225 196.639 74.7786 176.823 129.665 170.073C170.141 165.054 211.869 166.006 245.829 176.217C308.61 195.168 332.419 240.427 398.208 257.128C439.936 267.772 487.68 265.263 532.792 255.571C543.318 253.321 553.719 250.638 563.619 247.696C613.994 232.639 661.237 210.399 716.248 195.861C753.341 185.995 791.561 180.284 828.402 177.774C855.219 175.957 881.534 175.698 906.597 176.736C964.741 179.073 1017.87 187.813 1075.14 196.207C1091.93 198.716 1109.35 201.139 1127.27 203.476C1173.13 209.533 1220.38 215.245 1268 215.418C1276.64 215.418 1285.16 215.331 1293.56 214.899C1349.07 212.476 1402.08 201.918 1448.69 183.572C1499.7 163.496 1543.68 133.641 1575.76 99.5456" stroke="white" stroke-opacity="0.15" stroke-miterlimit="10"/>
<path d="M-204.541 343.492C-150.782 297.108 -88.2515 253.84 -15.4455 216.11C30.4185 192.313 84.4277 172.063 140.442 165.486C180.667 160.813 221.769 161.938 255.478 171.89C317.632 190.409 342.945 234.196 407.731 250.811C449.084 261.542 496.076 259.725 541.063 250.638C551.589 248.561 561.865 245.965 571.764 243.196C621.889 229.004 669.131 207.457 723.517 192.745C760.233 182.88 797.826 176.823 834.167 173.707C860.482 171.457 886.547 170.679 911.233 171.111C968.751 172.063 1021.51 179.246 1078.4 186.515C1095.19 188.678 1112.36 190.928 1130.15 193.092C1175.77 198.63 1222.51 204.514 1269.5 205.034C1278.02 205.12 1286.42 205.12 1294.81 204.86C1349.57 203.13 1402.33 193.87 1449.2 176.477C1500.2 157.525 1545.06 128.535 1576.76 94.7862" stroke="white" stroke-opacity="0.15" stroke-miterlimit="10"/>
<path d="M-193.388 338.732C-140.507 292.781 -79.3546 249.773 -7.927 212.302C38.6889 187.813 93.9513 167.131 151.093 160.813C191.068 156.4 231.543 157.698 265.127 167.563C326.529 185.649 353.471 227.879 417.38 244.494C458.357 255.225 504.597 254.186 549.459 245.706C559.86 243.715 570.135 241.379 580.035 238.696C630.034 225.283 677.151 204.428 730.91 189.716C767.125 179.851 804.217 173.361 840.056 169.64C865.996 166.957 891.685 165.659 916.12 165.486C972.886 165.14 1025.52 170.679 1081.91 176.909C1098.57 178.726 1115.74 180.717 1133.29 182.707C1178.77 187.813 1224.89 193.611 1271.25 194.563C1279.65 194.736 1288.04 194.822 1296.32 194.649C1350.45 193.697 1402.83 185.649 1449.95 169.207C1500.95 151.381 1546.56 123.17 1578.02 89.8535" stroke="white" stroke-opacity="0.15" stroke-miterlimit="10"/>
<path d="M-182.11 333.886C-130.106 288.454 -70.3321 245.706 -0.157667 208.495C47.2101 183.399 103.726 162.284 161.87 156.14C201.594 151.987 241.443 153.544 274.776 163.15C335.552 180.89 363.998 221.562 426.904 238.09C467.38 248.821 512.993 248.475 557.729 240.773C568.13 238.956 578.28 236.792 588.18 234.283C637.929 221.648 685.046 201.485 738.178 186.774C774.017 176.909 810.483 169.986 845.695 165.746C871.259 162.631 896.446 160.813 920.757 160.034C976.896 158.304 1029.28 162.284 1085.04 167.477C1101.58 169.034 1118.62 170.678 1136.04 172.496C1181.28 177.082 1226.89 182.88 1272.76 184.265C1281.03 184.524 1289.3 184.697 1297.57 184.611C1351.08 184.351 1402.96 177.515 1450.32 162.025C1501.33 145.41 1547.69 117.978 1578.89 85.0074" stroke="white" stroke-opacity="0.15" stroke-miterlimit="10"/>
<path d="M-170.957 329.127C-119.83 284.128 -61.5603 241.638 7.48634 204.774C55.606 178.986 113.375 157.438 172.647 151.554C211.995 147.66 251.343 149.477 284.425 158.91C344.574 176.217 374.524 215.331 436.428 231.773C476.527 242.59 521.389 242.936 565.875 235.84C576.15 234.196 586.3 232.119 596.2 229.783C645.698 217.927 692.815 198.457 745.446 183.746C780.784 173.88 816.748 166.611 851.46 161.765C876.522 158.217 901.459 155.881 925.519 154.583C980.906 151.554 1033.04 153.89 1088.42 157.958C1104.84 159.169 1121.76 160.554 1139.05 162.198C1184.04 166.265 1229.15 172.063 1274.39 173.967C1282.66 174.313 1290.8 174.573 1298.95 174.659C1351.7 175.092 1403.33 169.554 1450.95 155.015C1501.95 139.525 1549.07 112.959 1580.02 80.3345" stroke="white" stroke-opacity="0.15" stroke-miterlimit="10"/>
<path d="M-159.679 324.367C-109.555 279.888 -52.5378 237.658 15.1304 201.053C64.0019 174.659 123.024 152.679 183.298 146.968C222.396 143.333 261.117 145.323 293.949 154.669C353.346 171.631 384.925 209.187 445.951 225.543C485.675 236.36 529.91 237.398 574.145 230.994C584.421 229.523 594.446 227.62 604.345 225.456C653.593 214.379 700.71 195.601 752.714 180.803C787.551 170.938 823.014 163.236 857.224 157.785C881.91 153.891 906.471 150.948 930.155 149.045C984.916 144.631 1036.8 145.323 1091.68 148.439C1108.1 149.391 1124.89 150.516 1141.93 151.9C1186.67 155.535 1231.28 161.333 1275.89 163.583C1284.03 164.015 1292.05 164.361 1300.2 164.535C1352.33 165.659 1403.46 161.333 1451.45 147.833C1502.45 133.468 1550.45 107.767 1581.02 75.4886" stroke="white" stroke-opacity="0.15" stroke-miterlimit="10"/>
<path d="M-148.526 319.608C-99.1536 275.647 -43.7659 233.591 22.7745 197.245C72.3979 170.159 132.673 147.746 194.075 142.295C232.922 138.833 270.891 141.17 303.598 150.256C362.369 166.784 395.451 202.784 455.475 219.139C494.698 229.956 538.306 231.773 582.416 226.062C592.566 224.764 602.591 223.033 612.491 220.956C661.487 210.658 708.604 192.572 759.982 177.775C794.443 167.909 829.279 159.862 862.988 153.804C887.299 149.477 911.359 146.016 934.917 143.506C988.926 137.795 1040.55 136.843 1095.07 138.833C1111.36 139.439 1128.02 140.304 1144.94 141.516C1189.42 144.631 1233.66 150.429 1277.64 153.198C1285.66 153.717 1293.68 154.15 1301.58 154.41C1353.08 156.314 1403.83 153.198 1452.08 140.65C1503.08 127.41 1551.83 102.488 1582.15 70.6425" stroke="white" stroke-opacity="0.15" stroke-miterlimit="10"/>
<path d="M-137.248 314.848C-88.7529 271.32 -34.7436 229.523 30.5437 193.524C80.919 165.746 142.447 142.9 204.977 137.708C243.573 134.506 280.916 137.016 313.372 146.016C371.391 162.198 406.102 196.639 465.124 212.908C503.971 223.725 546.827 226.321 590.812 221.216C600.962 220.091 610.987 218.447 620.761 216.543C669.507 207.024 716.624 189.63 767.376 174.832C801.335 164.881 835.67 156.486 868.753 149.91C892.562 145.15 916.371 141.17 939.679 138.054C993.062 130.958 1044.44 128.449 1098.45 129.401C1114.61 129.66 1131.15 130.266 1147.95 131.304C1192.31 133.9 1235.92 139.698 1279.27 142.9C1287.29 143.506 1295.19 144.025 1302.96 144.458C1353.71 147.054 1404.08 145.15 1452.7 133.641C1503.58 121.526 1553.2 97.4687 1583.28 65.9694" stroke="white" stroke-opacity="0.15" stroke-miterlimit="10"/>
<path d="M-126.096 310.089C-78.4774 267.08 -25.9719 225.456 38.0623 189.803C89.0641 161.333 151.845 138.054 215.503 133.122C253.723 130.18 290.565 132.949 322.895 141.689C380.288 157.438 416.628 190.322 474.648 206.591C513.118 217.495 555.223 220.697 599.082 216.283C609.107 215.245 619.132 213.86 628.906 212.129C677.527 203.389 724.644 186.688 774.643 171.89C808.227 161.938 841.936 153.198 874.517 145.929C897.95 140.737 921.383 136.237 944.315 132.516C996.946 124.122 1048.2 120.314 1101.71 119.882C1117.75 119.709 1134.16 120.228 1150.83 121.007C1194.94 123.084 1238.05 128.881 1280.78 132.603C1288.67 133.295 1296.44 133.901 1304.21 134.42C1354.33 137.708 1404.33 137.102 1453.08 126.545C1503.96 115.555 1554.33 92.3631 1584.16 61.21" stroke="white" stroke-opacity="0.15" stroke-miterlimit="10"/>
<path d="M-114.943 305.243C-68.2018 262.753 -17.0747 221.389 45.7064 185.909C97.46 156.746 161.494 133.035 226.28 128.362C264.25 125.68 300.465 128.622 332.544 137.276C389.311 152.679 427.155 183.919 484.171 200.188C522.141 211.091 563.744 215.072 607.227 211.351C617.252 210.485 627.152 209.274 636.926 207.63C685.296 199.668 732.414 183.659 781.912 168.861C814.994 158.91 848.201 149.737 880.281 141.949C903.339 136.324 926.396 131.305 949.077 127.064C1001.08 117.286 1051.96 111.574 1104.96 110.363C1121 110.017 1137.3 110.103 1153.71 110.709C1197.57 112.267 1240.18 118.065 1282.41 122.218C1290.18 122.997 1297.94 123.689 1305.59 124.382C1355.09 128.362 1404.58 128.968 1453.71 119.449C1504.58 109.584 1555.84 87.171 1585.28 56.4506" stroke="white" stroke-opacity="0.15" stroke-miterlimit="10"/>
<path d="M-103.665 300.483C-57.8009 258.426 -8.17752 217.322 53.4758 182.188C105.981 152.333 171.269 128.189 237.057 123.776C274.776 121.266 310.364 124.555 342.193 133.035C398.208 148.006 437.681 177.775 493.82 193.957C531.414 204.86 572.265 209.533 615.623 206.505C625.523 205.812 635.422 204.687 645.197 203.303C693.316 196.12 740.434 180.89 789.305 165.919C822.011 155.967 854.592 146.448 886.171 137.968C908.727 131.997 931.534 126.372 953.964 121.526C1005.22 110.449 1055.97 103.007 1108.47 100.844C1124.39 100.151 1140.55 99.9784 1156.84 100.411C1200.45 101.536 1242.56 107.334 1284.16 111.834C1291.8 112.699 1299.45 113.478 1307.09 114.257C1355.84 118.93 1405.09 120.747 1454.46 112.267C1505.34 103.44 1557.34 81.9788 1586.54 51.6046" stroke="white" stroke-opacity="0.15" stroke-miterlimit="10"/>
<path d="M-92.5122 295.724C-47.5254 254.186 0.594268 213.254 61.1197 178.467C114.252 147.919 180.918 123.257 247.834 119.276C285.302 117.026 320.264 120.487 351.842 128.795C407.23 143.42 448.207 171.544 503.344 187.726C540.562 198.716 580.661 203.995 623.894 201.659C633.793 201.139 643.568 200.187 653.342 198.889C701.211 192.486 748.328 177.948 796.573 162.977C828.778 153.025 860.858 143.073 891.81 134.074C913.99 127.67 936.296 121.526 958.601 116.074C1009.23 103.699 1059.6 94.6131 1111.73 91.4112C1127.52 90.4593 1143.56 89.9401 1159.73 90.1997C1203.21 90.8055 1244.69 96.6899 1285.66 101.623C1293.31 102.574 1300.83 103.526 1308.35 104.305C1356.47 109.67 1405.21 112.699 1454.96 105.17C1505.84 97.4688 1558.59 76.8731 1587.54 46.845" stroke="white" stroke-opacity="0.15" stroke-miterlimit="10"/>
<path d="M-81.2341 290.964C-37.1245 249.859 9.49139 209.187 68.7637 174.746C122.522 143.506 190.567 118.411 258.611 114.69C295.703 112.613 330.164 116.42 361.492 124.555C416.253 138.747 458.733 165.4 512.868 181.496C549.584 192.486 589.057 198.543 632.164 196.899C641.939 196.466 651.713 195.688 661.362 194.563C708.98 188.938 756.097 175.092 803.716 160.121C835.42 150.169 866.998 139.872 897.449 130.266C919.253 123.43 941.183 116.766 963.112 110.709C1012.99 96.9496 1063.24 86.3056 1114.86 81.9788C1130.65 80.6807 1146.44 79.9884 1162.48 79.9884C1205.72 80.075 1246.69 85.9595 1287.17 91.3247C1294.69 92.3631 1302.21 93.4016 1309.6 94.3535C1357.09 100.411 1405.46 104.651 1455.46 98.1611C1506.34 91.5843 1559.97 71.854 1588.54 42.0855" stroke="white" stroke-opacity="0.15" stroke-miterlimit="10"/>
<path d="M-70.0813 286.205C-26.8488 245.619 18.2633 205.033 76.4079 170.938C130.918 138.92 200.216 113.391 269.262 110.017C306.104 108.199 339.938 112.266 371.141 120.228C425.15 134.074 469.26 159.083 522.517 175.178C558.857 186.169 597.578 192.918 640.435 191.966C650.209 191.707 659.858 191.101 669.507 190.149C716.875 185.303 763.992 172.15 811.109 157.179C842.437 147.227 873.389 136.497 903.339 126.285C924.767 119.016 946.32 111.92 967.999 105.257C1017.25 90.2862 1067.12 77.825 1118.37 72.5462C1134.04 70.9021 1149.83 69.9502 1165.62 69.7771C1208.6 69.2579 1249.07 75.2289 1288.92 81.1134C1296.32 82.2383 1303.71 83.3633 1311.1 84.4017C1357.97 91.1516 1405.84 96.6034 1456.09 91.1516C1506.96 85.6132 1561.35 66.7483 1589.67 37.4125" stroke="white" stroke-opacity="0.15" stroke-miterlimit="10"/>
<path d="M-58.8033 281.445C-16.448 241.379 27.1604 200.966 84.1771 167.217C139.314 134.506 209.99 108.546 280.164 105.43C316.755 103.786 349.963 108.113 380.915 115.901C434.298 129.314 479.911 152.852 532.166 168.861C568.13 179.938 606.225 187.38 648.831 187.034C658.48 186.947 668.129 186.515 677.778 185.649C724.895 181.582 772.012 169.121 818.503 154.064C849.329 144.112 879.78 133.035 909.228 122.218C930.155 114.517 951.458 106.815 972.887 99.6323C1021.51 83.2769 1071.13 69.258 1121.76 62.8543C1137.3 60.864 1152.96 59.6525 1168.62 59.3063C1211.35 58.3544 1251.45 64.2389 1290.55 70.556C1297.94 71.7675 1305.21 72.9791 1312.48 74.104C1358.6 81.5462 1406.21 88.2095 1456.71 83.7961C1507.59 79.2962 1562.73 61.3832 1590.8 32.3935" stroke="white" stroke-opacity="0.15" stroke-miterlimit="10"/>
<path d="M-47.6508 276.599C-6.17264 236.965 35.932 196.813 91.6957 163.41C147.459 130.006 219.513 103.526 290.69 100.757C432.292 95.3054 517.254 180.89 656.851 182.188C744.443 182.967 833.415 150.343 914.742 118.324C996.069 86.3056 1082.78 52.2103 1171.38 49.0949C1221.88 47.3642 1268.12 56.0179 1313.73 64.1523C1359.22 72.2867 1406.34 80.1615 1457.22 76.7866C1508.09 73.4117 1563.98 56.364 1591.8 27.7205" stroke="white" stroke-opacity="0.15" stroke-miterlimit="10"/>
</svg>
