<svg width="1440" height="861" viewBox="0 0 1440 861" fill="none" xmlns="http://www.w3.org/2000/svg">
<g clip-path="url(#clip0_727_325)">
<path d="M-19.3301 845.748C15.5065 761.116 152.347 684.012 293.072 669.56C359.737 662.724 428.283 668.089 491.69 648.186C560.361 626.552 603.594 580.774 624.771 537.419C645.949 494.065 651.212 450.191 674.771 407.009C698.329 363.827 746.95 318.742 817.626 301.088C867.124 288.714 918.877 291.829 969.002 282.05C1037.8 268.637 1094.81 232.725 1138.17 195.514C1181.4 158.303 1215.87 117.891 1264.61 82.9302C1336.54 31.3545 1438.79 -5.68304 1541.17 -17.1924" stroke="white" stroke-opacity="0.15" stroke-miterlimit="10"/>
<path d="M-31.6107 827.922C-5.54592 768.558 69.7663 713.002 161.244 679.858C199.464 666.012 240.691 656.061 282.295 651.647C323.898 647.234 366.253 647.667 407.23 644.465C432.293 642.561 456.728 639.273 480.412 632.609C521.138 621.1 552.968 601.37 577.403 577.918C593.568 562.428 606.1 545.381 615.373 528.593C627.277 506.872 634.921 484.632 642.941 462.479C650.46 441.797 658.229 421.028 670.259 400.519C680.66 382.865 695.196 364.952 713.742 348.857C740.058 326.098 774.393 307.06 815.746 297.281C843.064 290.877 870.883 289.06 898.827 287.243C921.759 285.772 944.566 284.301 967.122 280.406C1007.97 273.224 1044.69 258.599 1077.15 240.427C1099.33 228.052 1119.5 214.033 1137.55 199.668C1163.99 178.64 1187.29 156.313 1212.48 134.419C1229.52 119.622 1247.19 104.911 1267.24 91.0647C1296.32 70.9018 1329.65 52.7291 1365.61 37.4122C1420.5 13.8743 1481.28 -3.17339 1541.93 -11.3943" stroke="white" stroke-opacity="0.15" stroke-miterlimit="10"/>
<path d="M-43.8914 810.182C-16.3228 751.164 59.1147 695.868 150.467 662.465C188.687 648.446 229.664 638.321 271.392 633.734C312.996 629.148 355.727 629.408 396.579 626.898C421.641 625.34 445.826 622.831 469.134 617.033C509.359 606.995 540.687 589.255 566 567.188C582.666 552.65 595.824 536.208 605.849 519.853C618.756 498.738 627.277 477.017 636.174 455.21C644.445 434.874 652.966 414.365 665.622 394.202C676.525 376.808 691.562 359.154 710.609 343.405C737.677 321.165 772.388 302.819 813.866 293.646C841.309 287.589 869.254 286.031 897.073 284.647C920.005 283.522 942.812 282.397 965.368 278.849C1006.22 272.532 1042.94 259.118 1075.77 242.157C1098.07 230.561 1118.62 217.494 1137.04 203.908C1164.11 184.091 1188.17 162.717 1214.11 141.515C1231.65 127.15 1249.82 112.872 1270 99.1991C1299.45 79.3823 1333.03 61.2097 1368.87 45.6331C1423.63 21.7491 1483.28 3.83603 1543.05 -5.59644" stroke="white" stroke-opacity="0.15" stroke-miterlimit="10"/>
<path d="M-56.172 792.355C-26.9744 733.597 48.5884 678.647 139.69 644.984C177.785 630.879 218.761 620.494 260.49 615.735C302.219 610.975 345.075 611.148 385.802 609.331C410.989 608.206 434.799 606.389 457.731 601.456C497.329 592.889 528.406 577.226 554.596 556.371C571.764 542.698 585.548 526.862 596.325 511.026C610.109 490.603 619.758 469.229 629.282 447.768C638.43 427.691 647.577 407.528 660.86 387.625C672.389 370.404 687.928 353.183 707.351 337.78C735.045 316.059 770.257 298.492 811.861 289.839C839.304 284.214 867.374 282.916 895.193 281.791C918.125 280.925 940.932 280.147 963.362 277.118C1004.09 271.666 1041.06 259.464 1074.01 243.801C1096.57 233.071 1117.37 220.869 1136.29 208.062C1163.86 189.37 1188.8 169.034 1215.49 148.525C1233.53 134.679 1252.08 120.747 1272.51 107.247C1302.46 87.6897 1336.16 69.6036 1371.75 53.854C1426.26 29.6238 1485.03 10.7589 1543.68 0.201416" stroke="white" stroke-opacity="0.15" stroke-miterlimit="10"/>
<path d="M-68.4525 774.529C-37.7512 716.03 37.937 661.426 129.038 627.504C167.133 613.312 207.985 602.754 249.839 597.822C291.567 592.889 334.8 593.062 375.276 591.764C400.463 590.985 424.022 589.86 446.578 585.793C485.55 578.784 516.376 565.111 543.318 545.554C560.987 532.833 575.523 517.602 586.927 502.112C601.588 482.296 612.114 461.354 622.641 440.325C632.415 420.595 642.44 400.605 656.349 381.135C668.379 364.173 684.419 347.212 704.344 332.241C732.664 311.04 768.378 294.165 810.107 286.031C837.675 280.752 865.745 279.8 893.439 279.022C916.371 278.416 939.052 278.07 961.483 275.474C1002.21 270.887 1039.18 259.897 1072.51 245.446C1095.19 235.58 1116.37 224.244 1135.79 212.216C1163.99 194.735 1189.55 175.351 1216.99 155.534C1235.41 142.121 1254.46 128.535 1275.26 115.381C1305.71 96.1702 1339.55 77.9976 1374.89 62.0749C1429.27 37.412 1487.04 17.7683 1544.68 5.99933" stroke="white" stroke-opacity="0.15" stroke-miterlimit="10"/>
<path d="M-80.7329 756.702C-48.5278 698.463 27.2856 644.205 118.262 610.023C156.231 595.745 197.083 584.928 238.937 579.822C280.791 574.716 324.149 574.803 364.499 574.197C389.687 573.851 412.995 573.418 435.3 570.216C473.771 564.678 504.096 552.996 532.04 534.823C550.085 522.968 565.373 508.429 577.529 493.372C593.192 474.248 604.721 453.652 615.999 433.056C626.651 413.672 637.302 393.942 651.838 374.731C664.495 358.029 681.036 341.328 701.336 326.703C730.409 306.021 766.498 289.839 808.352 282.31C836.046 277.377 864.116 276.772 891.81 276.339C914.742 276.079 937.423 275.993 959.854 273.916C1000.46 270.195 1037.55 260.416 1071.13 247.176C1094.06 238.176 1115.49 227.705 1135.29 216.456C1164.11 200.1 1190.43 181.755 1218.62 162.63C1237.54 149.736 1256.97 136.496 1278.02 123.516C1308.97 104.564 1342.93 86.4781 1378.02 70.3823C1432.15 45.3733 1488.92 24.8642 1545.69 11.8837" stroke="white" stroke-opacity="0.15" stroke-miterlimit="10"/>
<path d="M-93.1389 738.963C-59.4301 681.07 16.5087 627.071 107.485 592.63C145.454 578.265 186.055 567.188 228.035 561.996C269.889 556.804 313.622 556.284 353.722 556.717C378.91 557.063 401.967 557.063 423.896 554.727C461.741 550.659 491.69 541.054 520.512 524.093C539.058 513.189 554.972 499.17 567.879 484.632C584.421 466.2 596.952 446.037 608.982 425.701C620.385 406.663 631.788 387.192 647.076 368.327C660.359 351.885 677.276 335.443 698.078 321.251C727.777 301.002 764.368 285.598 806.347 278.676C834.166 274.176 862.236 273.656 889.93 273.743C912.862 273.829 935.544 274.003 957.849 272.358C998.45 269.416 1035.54 260.936 1069.5 248.994C1092.56 240.859 1114.49 231.254 1134.66 220.783C1163.99 205.552 1191.18 188.245 1220.13 169.899C1239.55 157.525 1259.35 144.544 1280.65 131.823C1311.98 113.131 1346.19 95.0453 1381.03 78.7765C1435.04 53.3348 1490.8 31.9603 1546.44 17.8549" stroke="white" stroke-opacity="0.15" stroke-miterlimit="10"/>
<path d="M-105.419 721.136C-70.2069 663.503 5.98252 609.85 96.7081 575.149C134.552 560.698 175.153 549.361 217.258 543.996C259.237 538.631 303.221 538.458 343.071 539.15C368.383 539.583 390.94 540.621 412.618 539.064C449.836 536.467 479.41 528.939 509.108 513.276C528.156 503.237 544.571 489.911 558.481 475.805C575.899 457.979 589.433 438.249 602.34 418.345C614.495 399.567 626.776 380.442 642.565 361.837C656.349 345.568 673.768 329.472 695.071 315.627C725.396 295.896 762.488 281.185 804.593 274.781C832.537 270.628 860.732 270.541 888.301 270.887C911.233 271.147 933.789 271.839 956.095 270.628C996.57 268.551 1033.79 261.282 1068 250.551C1091.18 243.282 1113.49 234.542 1134.16 224.85C1164.11 210.831 1191.93 194.476 1221.63 176.822C1241.55 164.88 1261.73 152.332 1283.28 139.871C1315.11 121.525 1349.45 103.439 1384.03 86.9973C1437.92 61.2095 1492.68 38.9697 1547.31 23.6527" stroke="white" stroke-opacity="0.15" stroke-miterlimit="10"/>
<path d="M-117.7 703.31C-80.8581 645.936 -4.66871 592.716 85.9315 557.582C123.65 542.958 164.251 531.535 206.356 525.91C248.461 520.372 292.57 520.112 332.294 521.497C357.607 522.362 379.912 524.006 401.215 523.401C437.932 522.362 467.004 516.824 497.705 502.372C517.128 493.286 534.296 480.479 548.958 466.892C567.253 449.758 581.789 430.374 595.574 410.903C608.606 392.471 621.513 373.606 637.929 355.347C652.34 339.338 670.259 323.588 691.938 310.088C723.015 290.877 760.609 276.858 802.713 271.06C830.783 267.253 858.978 267.426 886.422 268.205C909.354 268.81 931.91 269.762 954.09 269.07C994.565 267.772 1031.66 261.801 1066.37 252.282C1089.8 245.878 1112.36 238.004 1133.41 229.004C1163.86 216.11 1192.56 200.793 1223.01 183.832C1243.43 172.409 1263.99 160.121 1285.91 147.919C1318.12 129.833 1352.58 111.833 1387.04 95.132C1440.67 68.998 1494.43 45.8928 1548.07 29.2778" stroke="white" stroke-opacity="0.15" stroke-miterlimit="10"/>
<path d="M-129.98 685.483C-91.635 628.369 -15.3203 575.495 75.2799 540.102C112.999 525.391 153.474 513.708 195.579 507.997C237.684 502.286 282.169 502.026 321.642 503.93C346.955 505.141 369.01 507.564 389.937 507.824C426.027 508.257 454.723 504.709 486.302 491.642C506.101 483.421 524.021 471.306 539.434 458.065C558.607 441.537 574.145 422.586 588.807 403.461C602.591 385.375 616.25 366.77 633.292 348.857C648.33 333.107 666.625 317.617 688.805 304.55C720.509 285.858 758.604 272.531 800.834 267.253C828.903 263.791 857.224 264.311 884.667 265.349C907.599 266.214 930.155 267.512 952.335 267.339C992.811 266.907 1029.9 262.147 1064.87 253.84C1088.42 248.301 1111.23 241.292 1132.91 233.071C1163.99 221.388 1193.43 207.023 1224.51 190.755C1245.44 179.764 1266.49 167.909 1288.55 155.88C1321.25 138.14 1355.84 120.054 1390.17 103.266C1443.68 76.6996 1496.44 52.729 1549.07 34.9891" stroke="white" stroke-opacity="0.15" stroke-miterlimit="10"/>
<path d="M-142.261 667.657C-102.412 610.889 -25.9718 558.275 64.5032 522.622C102.097 507.824 142.447 495.882 184.802 489.997C227.032 484.113 271.643 483.767 310.991 486.363C336.304 488.007 358.108 491.122 378.784 492.161C414.373 494.065 442.443 492.593 475.024 480.825C495.199 473.555 513.87 461.96 530.035 449.239C550.085 433.403 566.626 414.797 582.04 396.105C596.701 378.365 610.987 360.02 628.656 342.366C644.194 326.876 662.991 311.646 685.672 298.925C718.003 280.666 756.599 268.118 798.829 263.445C827.024 260.33 855.344 261.195 882.787 262.58C905.719 263.791 928.15 265.435 950.33 265.609C990.681 266.041 1027.9 262.493 1063.24 255.484C1086.92 250.724 1110.1 244.667 1132.28 237.225C1163.86 226.667 1194.06 213.341 1226.02 197.851C1247.44 187.38 1268.87 175.87 1291.18 164.015C1324.39 146.534 1359.22 128.535 1393.18 111.487C1446.56 84.6609 1498.32 59.7385 1549.82 40.787" stroke="white" stroke-opacity="0.15" stroke-miterlimit="10"/>
<path d="M-154.542 649.917C-113.189 593.408 -36.6234 541.141 53.8516 505.228C91.445 490.344 131.67 478.229 174.025 472.171C216.255 466.113 261.242 465.767 300.339 468.883C325.778 470.959 347.206 474.681 367.506 476.671C402.468 480.046 430.162 480.565 463.746 470.094C484.422 463.69 503.72 452.787 520.637 440.499C541.564 425.268 559.233 407.182 575.398 388.75C590.811 371.27 605.849 353.183 624.144 335.963C640.31 320.732 659.607 305.848 682.665 293.473C715.747 275.733 754.719 263.878 797.074 259.811C825.395 257.128 853.715 258.167 881.158 259.984C904.09 261.455 926.521 263.445 948.576 264.138C988.926 265.436 1026.14 263.099 1061.73 257.301C1085.67 253.407 1109.1 248.128 1131.78 241.552C1163.99 232.119 1194.94 219.831 1227.64 205.033C1249.45 195.081 1271.38 183.832 1294.06 172.322C1327.77 155.102 1362.61 137.189 1396.44 119.881C1449.7 92.6224 1500.32 66.9211 1550.95 46.7581" stroke="white" stroke-opacity="0.15" stroke-miterlimit="10"/>
<path d="M-166.822 632.09C-123.965 575.842 -47.1494 523.92 43.0749 487.747C80.543 472.777 120.768 460.402 163.123 454.171C205.479 447.941 250.716 447.508 289.563 451.316C315.001 453.825 336.179 458.239 356.103 461.008C390.438 465.854 417.631 468.45 452.217 459.277C473.269 453.739 493.194 443.441 510.988 431.672C532.792 417.134 551.464 399.394 568.506 381.394C584.671 364.26 600.586 346.434 619.383 329.472C636.174 314.415 655.848 299.877 679.407 287.848C713.116 270.628 752.589 259.464 795.069 255.916C823.515 253.58 851.961 254.965 879.279 257.128C902.211 258.945 924.642 261.282 946.571 262.407C986.796 264.484 1024.14 263.359 1060.1 258.859C1084.16 255.83 1107.97 251.417 1131.03 245.619C1163.74 237.398 1195.56 226.061 1228.9 211.956C1251.2 202.437 1273.51 191.62 1296.44 180.284C1330.53 163.409 1365.61 145.496 1399.2 128.016C1452.2 100.411 1501.95 73.7574 1551.45 52.4695" stroke="white" stroke-opacity="0.15" stroke-miterlimit="10"/>
<path d="M-179.103 614.264C-134.742 558.361 -57.801 506.699 32.298 470.267C69.7662 455.21 109.866 442.575 152.346 436.172C194.702 429.768 240.19 429.335 278.911 433.749C304.349 436.604 325.276 441.797 344.825 445.431C378.659 451.835 405.225 456.335 440.939 448.546C462.367 443.873 483.044 434.268 501.59 422.845C524.271 408.913 543.945 391.605 561.739 374.039C578.782 357.251 595.323 339.684 614.871 323.069C632.164 308.271 652.465 293.992 676.399 282.397C710.86 265.695 750.709 255.224 793.315 252.282C821.886 250.292 850.332 252.022 877.524 254.532C900.456 256.609 922.887 259.291 944.817 260.936C985.042 263.878 1022.38 263.964 1058.6 260.676C1082.78 258.513 1106.97 254.965 1130.53 249.945C1163.74 242.849 1196.32 232.552 1230.53 219.138C1253.33 210.139 1276.01 199.581 1299.2 188.505C1333.78 171.89 1369 153.977 1402.33 136.323C1455.21 108.372 1503.96 80.8533 1552.45 58.3539" stroke="white" stroke-opacity="0.15" stroke-miterlimit="10"/>
<path d="M-191.508 596.437C-145.519 540.794 -68.5777 489.478 21.5213 452.787C58.8641 437.557 98.8385 424.749 141.444 418.259C183.925 411.682 229.664 411.163 268.134 416.182C293.573 419.47 314.249 425.268 333.422 429.855C366.629 437.73 392.694 444.22 429.41 437.73C451.214 433.922 472.643 424.922 492.066 414.019C515.625 400.779 536.301 383.817 554.972 366.597C572.767 350.155 590.06 332.848 610.235 316.492C628.154 301.954 648.831 287.935 673.267 276.772C708.354 260.59 748.704 250.811 791.435 248.475C820.132 246.917 848.577 248.821 875.77 251.676C898.702 254.099 921.008 257.128 942.937 259.205C983.162 263.013 1020.38 264.311 1057.1 262.32C1081.53 261.022 1105.97 258.34 1130.03 254.099C1163.74 248.128 1197.19 238.869 1232.16 226.148C1255.46 217.581 1278.65 207.456 1301.95 196.553C1337.04 180.284 1372.38 162.371 1405.46 144.544C1458.22 116.16 1505.84 87.8629 1553.33 64.0654" stroke="white" stroke-opacity="0.15" stroke-miterlimit="10"/>
<path d="M-203.789 578.611C-156.296 523.227 -79.2292 472.257 10.7445 435.306C47.962 419.989 87.9364 407.009 130.542 400.259C173.148 393.596 219.138 392.99 257.483 398.615C283.046 402.336 303.347 408.826 322.269 414.191C354.85 423.537 380.414 431.931 418.132 426.912C440.312 423.97 462.367 415.663 482.668 405.192C507.103 392.557 528.908 376.116 548.331 359.241C567.002 343.145 584.922 326.097 605.724 310.088C624.27 295.81 645.447 282.137 670.259 271.233C706.098 255.57 746.824 246.484 789.681 244.667C818.377 243.455 846.948 245.705 874.141 248.907C897.073 251.59 919.378 254.965 941.183 257.474C981.282 262.147 1018.63 264.657 1055.59 263.878C1080.15 263.359 1104.96 261.628 1129.4 258.166C1163.74 253.32 1197.95 245.099 1233.53 233.157C1257.34 225.11 1280.9 215.331 1304.59 204.687C1340.17 188.678 1375.64 170.851 1408.47 152.765C1460.97 124.035 1507.72 94.7858 1554.21 69.8633" stroke="white" stroke-opacity="0.15" stroke-miterlimit="10"/>
<path d="M-216.069 560.871C-167.073 505.747 -89.7553 455.123 -0.0322665 417.913C37.1853 402.509 77.0343 389.269 119.64 382.433C162.246 375.596 208.486 374.991 246.706 381.135C272.27 385.288 292.32 392.471 310.866 398.702C342.945 409.519 368.008 419.903 406.729 416.182C429.285 414.018 452.092 406.403 473.144 396.452C498.457 384.423 521.264 368.414 541.564 351.885C560.987 336.049 579.784 319.348 601.087 303.685C620.26 289.666 641.813 276.253 667.001 265.782C703.467 250.638 744.694 242.244 787.676 241.032C816.498 240.167 845.069 242.763 872.261 246.311C895.193 249.34 917.499 253.061 939.303 256.003C979.403 261.541 1016.75 265.176 1054.09 265.695C1078.77 266.041 1103.96 265.089 1128.9 262.493C1163.74 258.772 1198.7 251.59 1235.16 240.34C1259.47 232.811 1283.41 223.292 1307.34 212.908C1343.31 197.245 1379.02 179.332 1411.73 161.159C1464.11 131.996 1509.85 101.968 1555.21 75.8342" stroke="white" stroke-opacity="0.15" stroke-miterlimit="10"/>
<path d="M-228.35 543.044C-177.849 488.267 -100.407 437.902 -10.6838 400.432C26.4085 384.942 66.2575 371.442 108.989 364.433C151.72 357.423 198.211 356.731 236.18 363.568C261.744 368.154 281.543 375.942 299.713 383.125C331.166 395.413 355.727 407.701 395.451 405.451C418.383 404.153 441.816 397.144 463.746 387.625C489.936 376.288 513.745 360.625 534.797 344.53C555.098 329.04 574.521 312.598 596.451 297.194C616.124 283.348 638.305 270.281 663.868 260.157C701.086 245.532 742.814 237.917 785.796 237.224C814.743 236.792 843.314 239.647 870.382 243.542C893.314 246.83 915.494 250.897 937.298 254.359C977.272 260.676 1014.74 265.608 1052.33 267.426C1077.27 268.637 1102.58 268.551 1128.15 266.733C1163.49 264.137 1199.32 257.993 1236.54 247.436C1261.35 240.34 1285.66 231.253 1309.85 221.042C1346.31 205.725 1382.03 187.726 1414.61 169.38C1466.74 139.785 1511.48 108.978 1555.96 81.6321" stroke="white" stroke-opacity="0.15" stroke-miterlimit="10"/>
<path d="M-240.63 525.218C-188.626 470.7 -111.058 420.682 -21.4605 382.952C15.6317 367.375 55.3555 353.703 98.0867 346.434C140.818 339.251 187.559 338.559 225.403 345.914C250.967 350.933 270.39 359.414 288.31 367.375C319.261 381.221 343.196 395.327 384.048 394.548C407.356 394.115 431.541 387.798 454.222 378.712C481.164 367.981 506.101 352.837 528.03 337.088C549.083 321.944 569.258 305.761 591.814 290.704C612.114 277.118 634.671 264.397 660.735 254.618C698.579 240.427 740.809 233.59 783.917 233.417C812.989 233.331 841.685 236.446 868.627 240.773C891.559 244.407 913.739 248.734 935.418 252.715C975.393 259.897 1012.86 266.041 1050.83 269.07C1075.89 271.06 1101.58 271.926 1127.52 270.801C1163.49 269.33 1200.08 264.224 1237.92 254.359C1263.23 247.782 1287.92 239.042 1312.48 229.09C1349.45 214.033 1385.29 196.12 1417.62 177.601C1469.5 147.659 1513.35 115.901 1556.84 87.4302" stroke="white" stroke-opacity="0.15" stroke-miterlimit="10"/>
<path d="M-252.911 507.391C-199.278 453.133 -121.71 403.461 -32.1122 365.472C4.8547 349.722 44.4531 335.876 87.3097 328.521C130.166 321.165 177.158 320.473 214.751 328.434C240.44 333.886 259.488 343.059 277.031 351.885C307.357 367.202 330.79 384.596 372.644 383.817C396.328 383.385 421.265 378.539 444.698 369.971C472.517 359.847 498.582 345.135 521.264 329.732C543.068 314.934 564.12 299.012 587.303 284.214C608.23 270.887 631.287 258.426 657.728 249.08C696.324 235.407 738.93 229.35 782.037 229.696C811.234 230.042 839.931 233.417 866.873 238.003C889.805 241.898 911.985 246.657 933.538 250.984C973.388 259.118 1010.86 266.301 1049.2 270.628C1074.39 273.483 1100.45 275.128 1126.89 274.868C1163.36 274.522 1200.7 270.455 1239.42 261.282C1265.11 255.138 1290.43 246.744 1315.11 237.052C1352.58 222.34 1388.54 204.341 1420.62 185.649C1472.38 155.275 1515.23 122.737 1557.59 93.055" stroke="white" stroke-opacity="0.15" stroke-miterlimit="10"/>
<path d="M-265.192 489.651C-210.054 435.652 -132.361 386.413 -42.8889 348.078C-5.92198 332.242 33.5512 318.136 76.533 310.607C119.515 303.079 166.632 302.386 204.1 310.954C229.789 316.838 248.586 326.617 265.879 336.395C295.578 353.183 318.635 371.096 361.366 373.173C385.426 374.298 410.989 369.366 435.3 361.318C463.996 351.799 491.064 337.52 514.497 322.549C537.178 308.098 558.857 292.435 582.666 277.983C604.22 264.916 627.653 252.801 654.595 243.715C693.818 230.648 736.925 225.196 780.157 226.061C809.48 226.754 838.176 230.475 865.118 235.407C888.05 239.648 910.105 244.753 931.784 249.513C971.633 258.426 1009.1 266.907 1047.82 272.445C1073.14 276.079 1099.58 278.676 1126.52 279.195C1163.49 279.974 1201.71 276.945 1241.05 268.551C1267.24 262.926 1292.93 254.878 1317.87 245.359C1355.84 230.994 1391.93 212.994 1423.76 194.129C1475.26 163.409 1517.11 130.006 1558.59 99.1125" stroke="white" stroke-opacity="0.15" stroke-miterlimit="10"/>
<path d="M-277.597 471.825C-220.957 418.172 -143.013 369.193 -53.791 330.597C-16.9494 314.675 22.5237 300.31 65.5056 292.695C108.487 284.993 155.98 284.3 193.198 293.387C218.887 299.704 237.433 310.175 254.35 320.732C283.548 338.991 305.978 358.808 349.837 362.27C374.273 364.26 400.589 359.933 425.776 352.318C455.35 343.405 483.419 329.646 507.73 315.021C531.163 300.915 553.594 285.512 578.03 271.32C600.085 258.513 624.144 246.657 651.462 238.004C691.437 225.456 734.92 220.696 778.278 222.167C807.6 223.206 836.422 227.273 863.364 232.552C886.296 237.138 908.351 242.503 929.904 247.782C969.754 257.561 1007.22 267.166 1046.19 274.089C1071.76 278.589 1098.45 281.964 1125.77 283.349C1163.36 285.252 1202.33 283.262 1242.43 275.56C1269.12 270.368 1295.19 262.753 1320.38 253.407C1358.85 239.302 1395.06 221.389 1426.64 202.264C1478.02 171.197 1518.87 136.929 1559.22 104.737" stroke="white" stroke-opacity="0.15" stroke-miterlimit="10"/>
<path d="M-289.878 453.998C-231.733 400.605 -153.664 351.972 -64.4425 313.117C-27.6009 297.108 11.7469 282.57 54.7287 274.695C97.8359 266.82 145.454 266.041 182.546 275.82C208.235 282.57 226.531 293.733 243.072 305.156C271.643 324.886 293.698 346.52 338.434 351.539C363.371 354.308 390.188 350.674 416.252 343.578C446.578 335.27 475.901 321.944 500.963 307.665C525.274 293.906 548.456 278.762 573.393 264.916C596.075 252.369 620.51 240.859 648.329 232.465C688.93 220.437 732.915 216.369 776.398 218.446C805.846 219.917 834.668 224.244 861.484 229.869C884.416 234.715 906.471 240.513 927.899 246.224C967.623 256.868 1005.22 267.685 1044.56 275.82C1070.25 281.185 1097.32 285.425 1125.14 287.589C1163.23 290.618 1202.96 289.666 1243.94 282.656C1271.13 277.983 1297.57 270.714 1323.13 261.628C1361.98 247.869 1398.32 229.869 1429.77 210.658C1481.02 179.159 1520.87 144.025 1560.22 110.708" stroke="white" stroke-opacity="0.15" stroke-miterlimit="10"/>
<path d="M-302.158 436.172C-242.51 383.038 -164.316 334.751 -75.2193 295.55C-38.503 279.454 0.719535 264.657 43.952 256.609C87.0592 248.561 135.054 247.782 171.895 258.08C197.584 265.262 215.629 277.031 231.794 289.406C259.864 310.694 281.417 334.145 327.156 340.635C352.469 344.183 380.038 341.241 406.854 334.664C438.057 326.963 468.382 314.155 494.322 300.223C519.509 286.81 543.318 271.926 568.882 258.426C592.19 246.138 617.127 234.888 645.322 226.927C686.675 215.417 731.035 212.042 774.644 214.639C804.217 216.456 833.039 221.129 859.855 227.1C882.787 232.292 904.717 238.35 926.27 244.58C965.994 256.089 1003.59 268.031 1043.19 277.464C1069.13 283.608 1096.44 288.714 1124.76 291.742C1163.49 295.81 1203.96 295.983 1245.56 289.666C1273.26 285.512 1300.2 278.502 1325.89 269.676C1365.24 256.176 1401.7 238.263 1433.03 218.792C1484.03 186.947 1522.88 150.948 1561.22 116.42" stroke="white" stroke-opacity="0.15" stroke-miterlimit="10"/>
<path d="M-314.439 418.345C-253.162 365.558 -174.967 317.53 -85.8707 278.07C-49.2798 261.888 -10.0573 246.83 33.1752 238.696C76.4077 230.561 124.527 229.696 161.244 240.6C186.932 248.215 204.727 260.676 220.641 273.83C248.084 296.589 269.262 321.944 315.878 329.819C341.567 334.232 369.887 331.895 397.456 325.838C429.536 318.742 460.863 306.367 487.555 292.781C513.494 279.714 538.055 265.089 564.245 251.849C588.18 239.821 613.493 228.831 642.189 221.302C684.169 210.225 729.03 207.629 772.764 210.831C802.463 212.994 831.41 217.927 858.101 224.244C881.033 229.696 902.963 236.186 924.391 242.763C963.989 255.138 1001.71 268.205 1041.68 279.022C1067.75 285.945 1095.44 292.002 1124.26 295.81C1163.49 301.002 1204.84 302.127 1247.19 296.589C1275.39 292.868 1302.71 286.291 1328.65 277.637C1368.49 264.484 1405.09 246.484 1436.16 226.927C1487.04 194.649 1524.88 157.871 1562.23 122.131" stroke="white" stroke-opacity="0.15" stroke-miterlimit="10"/>
<path d="M-326.719 400.605C-263.938 348.078 -185.493 300.396 -96.6475 260.676C-60.0565 244.321 -20.9594 229.177 22.2731 220.783C65.5056 212.475 113.876 211.696 150.467 223.033C176.156 231.081 193.699 244.234 209.238 258.253C236.055 282.483 256.856 309.656 304.349 319.088C330.539 324.28 359.361 322.636 387.807 317.098C420.764 310.607 453.219 298.665 480.663 285.512C507.354 272.705 532.792 258.426 559.484 245.532C584.045 233.763 609.859 223.033 638.931 215.85C681.537 205.293 727.025 203.389 770.759 207.196C800.583 209.793 829.53 214.985 856.221 221.648C879.153 227.446 901.083 234.196 922.386 241.292C961.984 254.445 999.703 268.81 1039.93 280.839C1066.24 288.627 1094.19 295.464 1123.39 300.137C1163.23 306.367 1205.21 308.617 1248.45 303.858C1277.14 300.656 1304.84 294.425 1331.15 285.945C1371.5 273.051 1408.22 255.138 1439.05 235.321C1489.8 202.697 1526.64 164.967 1562.85 128.102" stroke="white" stroke-opacity="0.15" stroke-miterlimit="10"/>
<path d="M-339 382.779C-274.715 330.511 -196.145 283.175 -107.424 243.196C-70.9586 226.754 -31.8614 211.35 11.4964 202.87C54.8542 194.389 103.475 193.524 139.815 205.552C210.115 228.744 216.506 291.223 293.071 308.357C350.464 321.251 421.265 302.04 474.021 278.156C526.777 254.272 574.145 224.59 635.924 210.312C708.855 193.437 788.804 201.572 854.467 218.879C920.13 236.186 976.019 262.061 1038.42 282.483C1100.83 302.819 1173.89 317.963 1249.95 310.781C1323.88 303.858 1391.55 276.512 1442.05 243.455C1492.55 210.398 1528.39 171.89 1563.73 133.814" stroke="white" stroke-opacity="0.15" stroke-miterlimit="10"/>
<path d="M-327.847 378.019C-264.44 326.271 -187.122 279.368 -99.7803 239.475C-62.4375 222.427 -22.2125 206.677 22.1478 198.283C65.255 190.149 113.249 189.457 149.339 201.312C218.887 224.158 226.907 284.993 302.47 302.127C348.459 312.598 402.844 302.733 449.961 286.377C461.114 282.483 471.891 278.243 482.041 273.829C534.672 250.811 581.914 221.735 643.192 207.456C684.795 197.764 728.529 195.947 770.634 199.235C801.585 201.658 831.535 206.764 859.103 213.6C924.14 229.609 979.778 253.84 1041.68 273.224C1059.48 278.762 1078.15 283.868 1097.45 288.281C1145.57 299.185 1197.82 305.329 1251.45 300.742C1260.98 299.963 1270.38 298.752 1279.65 297.367C1341.8 287.675 1398.32 264.484 1442.55 236.705C1493.05 204.86 1529.65 167.13 1564.73 129.4" stroke="white" stroke-opacity="0.15" stroke-miterlimit="10"/>
<path d="M-316.569 373.26C-254.039 321.944 -177.975 275.474 -92.011 235.753C-53.9163 218.1 -12.4381 201.918 33.05 193.697C75.9065 185.909 123.274 185.303 159.239 196.985C228.16 219.398 237.809 278.762 312.244 295.81C357.732 306.281 411.491 297.194 458.357 281.445C469.51 277.724 480.162 273.656 490.312 269.33C542.692 247.09 589.934 218.792 650.585 204.427C691.687 194.649 734.92 192.485 776.523 195.168C806.974 197.158 836.673 201.745 863.991 207.975C928.276 222.6 983.663 245.272 1045.19 263.532C1062.86 268.724 1081.41 273.656 1100.58 277.81C1148.57 288.195 1200.2 294.425 1253.33 290.185C1262.73 289.493 1272.01 288.368 1281.15 287.07C1342.56 278.07 1398.95 256.176 1443.31 229.35C1493.93 198.716 1531.27 161.678 1565.99 124.295" stroke="white" stroke-opacity="0.15" stroke-miterlimit="10"/>
<path d="M-305.416 368.414C-243.763 317.617 -169.077 271.493 -84.4922 231.946C-45.6456 213.773 -2.78904 197.158 43.5762 189.024C86.1821 181.582 132.923 181.149 168.637 192.658C236.807 214.725 248.085 272.445 321.642 289.492C366.755 299.963 419.761 291.569 466.503 276.599C477.53 273.051 488.181 269.07 498.332 264.916C550.461 243.455 597.829 215.85 657.728 201.485C698.454 191.706 741.06 189.197 782.162 191.274C812.237 192.831 841.56 196.899 868.627 202.523C932.286 215.85 987.423 236.878 1048.32 254.099C1065.99 259.032 1084.29 263.618 1103.34 267.599C1151.08 277.464 1202.21 283.695 1254.71 279.973C1263.99 279.368 1273.26 278.416 1282.28 277.118C1343.06 268.81 1399.07 248.215 1443.68 222.34C1494.43 192.918 1532.4 156.659 1566.86 119.622" stroke="white" stroke-opacity="0.15" stroke-miterlimit="10"/>
<path d="M-294.138 363.654C-233.362 313.377 -159.93 267.599 -76.7229 228.138C-36.9992 209.36 6.98515 192.312 54.4782 184.351C96.8335 177.255 142.948 176.909 178.411 188.245C245.954 209.879 258.736 266.128 331.291 283.089C376.028 293.56 428.283 285.945 474.898 271.58C485.926 268.205 496.577 264.397 506.602 260.416C558.481 239.734 605.849 212.821 665.121 198.37C705.346 188.591 747.451 185.649 788.052 187.12C817.751 188.245 846.698 191.793 873.389 196.812C936.295 208.754 991.182 228.311 1051.71 244.321C1069.25 248.907 1087.55 253.234 1106.34 257.041C1153.84 266.474 1204.46 272.618 1256.34 269.33C1265.61 268.724 1274.64 267.945 1283.66 266.82C1343.81 259.291 1399.45 239.907 1444.31 214.985C1495.06 186.687 1533.78 151.294 1567.99 114.603" stroke="white" stroke-opacity="0.15" stroke-miterlimit="10"/>
<path d="M-282.986 358.895C-223.087 309.05 -151.033 263.705 -69.079 224.417C-28.6034 205.033 16.634 187.553 65.2549 179.765C107.36 173.015 152.848 172.842 188.06 184.005C254.977 205.293 269.262 259.897 340.94 276.858C385.175 287.416 436.929 280.406 483.294 266.734C494.196 263.445 504.848 259.897 514.873 256.003C566.626 236.186 613.869 209.879 672.64 195.428C712.489 185.649 753.967 182.274 794.067 183.226C823.264 183.918 851.835 186.947 878.401 191.36C940.681 201.831 995.192 220.004 1055.34 234.888C1072.76 239.215 1090.93 243.282 1109.6 246.83C1156.84 255.83 1207.09 261.888 1258.35 259.118C1267.49 258.599 1276.52 257.907 1285.41 256.868C1344.81 250.032 1400.2 231.946 1445.19 207.889C1496.06 180.803 1535.54 146.188 1569.37 109.843" stroke="white" stroke-opacity="0.15" stroke-miterlimit="10"/>
<path d="M-271.833 354.135C-212.811 304.81 -142.01 259.724 -61.5604 220.696C-20.3329 200.62 26.1577 182.88 75.781 175.178C117.635 168.688 162.371 168.774 197.459 179.764C263.623 200.62 279.538 253.753 350.213 270.628C394.072 281.185 445.074 274.954 491.189 261.974C502.091 258.859 512.617 255.397 522.642 251.763C574.145 232.725 621.387 207.11 679.532 192.658C718.88 182.88 759.857 179.159 799.33 179.505C828.151 179.851 856.347 182.274 882.662 186.168C944.315 195.341 998.575 211.869 1058.22 225.715C1075.52 229.696 1093.56 233.504 1112.11 236.878C1159.1 245.359 1208.85 251.417 1259.47 249.08C1268.5 248.647 1277.52 248.042 1286.29 247.176C1345.06 241.119 1399.95 224.244 1445.31 201.139C1496.19 175.178 1536.41 141.342 1570 105.43" stroke="white" stroke-opacity="0.15" stroke-miterlimit="10"/>
<path d="M-260.555 349.376C-202.411 300.483 -132.988 255.83 -53.791 216.888C-11.6864 196.206 35.932 178.034 86.6832 170.505C128.287 164.361 172.396 164.534 207.358 175.351C272.896 195.86 290.314 247.349 359.988 264.224C403.471 274.781 453.721 269.33 499.71 256.955C510.487 254.013 521.013 250.724 531.038 247.176C582.29 228.917 629.533 203.995 687.051 189.543C725.897 179.764 766.373 175.611 805.345 175.351C833.791 175.264 861.61 177.168 887.674 180.457C948.576 188.245 1002.71 203.216 1061.86 215.937C1079.03 219.658 1096.94 223.206 1115.37 226.321C1162.11 234.369 1211.35 240.34 1261.35 238.436C1270.25 238.09 1279.15 237.571 1287.92 236.792C1346.06 231.513 1400.57 215.85 1446.19 193.697C1497.06 168.947 1538.04 135.89 1571.37 100.324" stroke="white" stroke-opacity="0.15" stroke-miterlimit="10"/>
<path d="M-249.402 344.53C-192.135 296.156 -124.091 251.763 -46.1469 213.081C-3.29036 191.793 45.5811 173.188 97.3348 165.832C138.688 159.948 182.171 160.38 216.882 171.024C281.668 191.101 300.715 241.119 369.511 257.907C412.493 268.551 462.242 263.791 507.981 252.109C518.757 249.34 529.158 246.224 539.183 242.763C590.31 225.369 637.427 201.052 694.319 186.514C732.79 176.736 772.639 172.149 811.109 171.37C839.054 170.765 866.622 172.149 892.311 174.918C952.586 181.322 1006.34 194.735 1065.12 206.418C1082.28 209.793 1099.95 213.081 1118.25 216.023C1164.74 223.552 1213.48 229.523 1262.98 228.138C1271.88 227.879 1280.65 227.446 1289.3 226.754C1346.82 222.167 1400.95 207.802 1446.81 186.601C1497.69 163.063 1539.42 130.785 1572.5 95.5646" stroke="white" stroke-opacity="0.15" stroke-miterlimit="10"/>
<path d="M-238.124 339.77C-181.734 291.916 -115.068 247.782 -38.3776 209.36C5.23084 187.466 55.3554 168.428 108.237 161.246C149.339 155.707 192.196 156.227 226.656 166.697C290.816 186.428 311.367 234.802 379.16 251.59C421.766 262.234 470.763 258.253 516.377 247.176C527.028 244.58 537.429 241.551 547.454 238.35C598.33 221.735 645.447 198.11 701.712 183.572C739.682 173.793 779.03 168.774 816.999 167.476C844.567 166.524 871.76 167.303 897.198 169.467C956.721 174.486 1010.35 186.341 1068.5 196.899C1085.54 200.014 1103.21 202.956 1121.26 205.725C1167.62 212.735 1215.74 218.706 1264.61 217.754C1273.38 217.581 1282.03 217.235 1290.68 216.715C1347.44 212.821 1401.33 199.754 1447.44 179.505C1498.44 157.092 1540.92 125.593 1573.5 90.805" stroke="white" stroke-opacity="0.15" stroke-miterlimit="10"/>
<path d="M-226.971 335.011C-171.458 287.589 -106.171 243.801 -30.8589 205.552C13.5014 183.053 65.0044 163.582 118.888 156.573C159.615 151.294 201.97 152.073 236.18 162.371C299.713 181.668 321.768 228.571 388.559 245.273C430.789 255.917 479.034 252.715 524.522 242.244C535.173 239.821 545.574 236.965 555.474 233.85C606.1 218.014 653.217 195.081 708.98 180.543C746.574 170.678 785.295 165.399 822.638 163.409C849.831 162.025 876.522 162.284 901.835 163.928C960.731 167.649 1013.99 177.861 1071.76 187.38C1088.67 190.149 1106.22 192.918 1124.26 195.428C1170.38 202.004 1218 207.889 1266.24 207.456C1274.89 207.37 1283.53 207.11 1292.05 206.677C1348.19 203.562 1401.7 191.707 1447.94 172.409C1498.94 151.121 1542.18 120.487 1574.51 86.0456" stroke="white" stroke-opacity="0.15" stroke-miterlimit="10"/>
<path d="M-215.693 330.251C-161.058 283.348 -97.1488 239.821 -23.0897 201.831C22.0225 178.639 74.7786 158.823 129.665 152.073C170.141 147.054 211.869 148.006 245.829 158.217C308.61 177.168 332.419 222.427 398.208 239.128C439.936 249.772 487.68 247.263 532.792 237.571C543.318 235.321 553.719 232.638 563.619 229.696C613.994 214.639 661.237 192.399 716.248 177.861C753.341 167.995 791.561 162.284 828.402 159.774C855.219 157.957 881.534 157.698 906.597 158.736C964.741 161.073 1017.87 169.813 1075.14 178.207C1091.93 180.716 1109.35 183.139 1127.27 185.476C1173.13 191.533 1220.38 197.245 1268 197.418C1276.64 197.418 1285.16 197.331 1293.56 196.899C1349.07 194.476 1402.08 183.918 1448.69 165.572C1499.7 145.496 1543.68 115.641 1575.76 81.5456" stroke="white" stroke-opacity="0.15" stroke-miterlimit="10"/>
<path d="M-204.541 325.492C-150.782 279.108 -88.2515 235.84 -15.4455 198.11C30.4185 174.313 84.4277 154.063 140.442 147.486C180.667 142.813 221.769 143.938 255.478 153.89C317.632 172.409 342.945 216.196 407.731 232.811C449.084 243.542 496.076 241.725 541.063 232.638C551.589 230.561 561.865 227.965 571.764 225.196C621.889 211.004 669.131 189.457 723.517 174.745C760.233 164.88 797.826 158.823 834.167 155.707C860.482 153.457 886.547 152.679 911.233 153.111C968.751 154.063 1021.51 161.246 1078.4 168.515C1095.19 170.678 1112.36 172.928 1130.15 175.092C1175.77 180.63 1222.51 186.514 1269.5 187.034C1278.02 187.12 1286.42 187.12 1294.81 186.86C1349.57 185.13 1402.33 175.87 1449.2 158.477C1500.2 139.525 1545.06 110.535 1576.76 76.7862" stroke="white" stroke-opacity="0.15" stroke-miterlimit="10"/>
<path d="M-193.388 320.732C-140.507 274.781 -79.3546 231.773 -7.927 194.302C38.6889 169.813 93.9513 149.131 151.093 142.813C191.068 138.4 231.543 139.698 265.127 149.563C326.529 167.649 353.471 209.879 417.38 226.494C458.357 237.225 504.597 236.186 549.459 227.706C559.86 225.715 570.135 223.379 580.035 220.696C630.034 207.283 677.151 186.428 730.91 171.716C767.125 161.851 804.217 155.361 840.056 151.64C865.996 148.957 891.685 147.659 916.12 147.486C972.886 147.14 1025.52 152.679 1081.91 158.909C1098.57 160.726 1115.74 162.717 1133.29 164.707C1178.77 169.813 1224.89 175.611 1271.25 176.563C1279.65 176.736 1288.04 176.822 1296.32 176.649C1350.45 175.697 1402.83 167.649 1449.95 151.207C1500.95 133.381 1546.56 105.17 1578.02 71.8535" stroke="white" stroke-opacity="0.15" stroke-miterlimit="10"/>
<path d="M-182.11 315.886C-130.106 270.454 -70.3321 227.706 -0.157667 190.495C47.2101 165.399 103.726 144.284 161.87 138.14C201.594 133.987 241.443 135.544 274.776 145.15C335.552 162.89 363.998 203.562 426.904 220.09C467.38 230.821 512.993 230.475 557.729 222.773C568.13 220.956 578.28 218.792 588.18 216.283C637.929 203.648 685.046 183.485 738.178 168.774C774.017 158.909 810.483 151.986 845.695 147.746C871.259 144.631 896.446 142.813 920.757 142.034C976.896 140.304 1029.28 144.284 1085.04 149.477C1101.58 151.034 1118.62 152.678 1136.04 154.496C1181.28 159.082 1226.89 164.88 1272.76 166.265C1281.03 166.524 1289.3 166.697 1297.57 166.611C1351.08 166.351 1402.96 159.515 1450.32 144.025C1501.33 127.41 1547.69 99.9778 1578.89 67.0074" stroke="white" stroke-opacity="0.15" stroke-miterlimit="10"/>
<path d="M-170.957 311.127C-119.83 266.128 -61.5603 223.638 7.48634 186.774C55.606 160.986 113.375 139.438 172.647 133.554C211.995 129.66 251.343 131.477 284.425 140.91C344.574 158.217 374.524 197.331 436.428 213.773C476.527 224.59 521.389 224.936 565.875 217.84C576.15 216.196 586.3 214.119 596.2 211.783C645.698 199.927 692.815 180.457 745.446 165.746C780.784 155.88 816.748 148.611 851.46 143.765C876.522 140.217 901.459 137.881 925.519 136.583C980.906 133.554 1033.04 135.89 1088.42 139.958C1104.84 141.169 1121.76 142.554 1139.05 144.198C1184.04 148.265 1229.15 154.063 1274.39 155.967C1282.66 156.313 1290.8 156.573 1298.95 156.659C1351.7 157.092 1403.33 151.554 1450.95 137.015C1501.95 121.525 1549.07 94.9588 1580.02 62.3345" stroke="white" stroke-opacity="0.15" stroke-miterlimit="10"/>
<path d="M-159.679 306.367C-109.555 261.888 -52.5378 219.658 15.1304 183.053C64.0019 156.659 123.024 134.679 183.298 128.968C222.396 125.333 261.117 127.323 293.949 136.669C353.346 153.631 384.925 191.187 445.951 207.543C485.675 218.36 529.91 219.398 574.145 212.994C584.421 211.523 594.446 209.62 604.345 207.456C653.593 196.379 700.71 177.601 752.714 162.803C787.551 152.938 823.014 145.236 857.224 139.785C881.91 135.891 906.471 132.948 930.155 131.045C984.916 126.631 1036.8 127.323 1091.68 130.439C1108.1 131.391 1124.89 132.516 1141.93 133.9C1186.67 137.535 1231.28 143.333 1275.89 145.583C1284.03 146.015 1292.05 146.361 1300.2 146.535C1352.33 147.659 1403.46 143.333 1451.45 129.833C1502.45 115.468 1550.45 89.7667 1581.02 57.4886" stroke="white" stroke-opacity="0.15" stroke-miterlimit="10"/>
<path d="M-148.526 301.608C-99.1536 257.647 -43.7659 215.591 22.7745 179.245C72.3979 152.159 132.673 129.746 194.075 124.295C232.922 120.833 270.891 123.17 303.598 132.256C362.369 148.784 395.451 184.784 455.475 201.139C494.698 211.956 538.306 213.773 582.416 208.062C592.566 206.764 602.591 205.033 612.491 202.956C661.487 192.658 708.604 174.572 759.982 159.775C794.443 149.909 829.279 141.862 862.988 135.804C887.299 131.477 911.359 128.016 934.917 125.506C988.926 119.795 1040.55 118.843 1095.07 120.833C1111.36 121.439 1128.02 122.304 1144.94 123.516C1189.42 126.631 1233.66 132.429 1277.64 135.198C1285.66 135.717 1293.68 136.15 1301.58 136.41C1353.08 138.314 1403.83 135.198 1452.08 122.65C1503.08 109.41 1551.83 84.4879 1582.15 52.6425" stroke="white" stroke-opacity="0.15" stroke-miterlimit="10"/>
<path d="M-137.248 296.848C-88.7529 253.32 -34.7436 211.523 30.5437 175.524C80.919 147.746 142.447 124.9 204.977 119.708C243.573 116.506 280.916 119.016 313.372 128.016C371.391 144.198 406.102 178.639 465.124 194.908C503.971 205.725 546.827 208.321 590.812 203.216C600.962 202.091 610.987 200.447 620.761 198.543C669.507 189.024 716.624 171.63 767.376 156.832C801.335 146.881 835.67 138.486 868.753 131.91C892.562 127.15 916.371 123.17 939.679 120.054C993.062 112.958 1044.44 110.449 1098.45 111.401C1114.61 111.66 1131.15 112.266 1147.95 113.304C1192.31 115.9 1235.92 121.698 1279.27 124.9C1287.29 125.506 1295.19 126.025 1302.96 126.458C1353.71 129.054 1404.08 127.15 1452.7 115.641C1503.58 103.526 1553.2 79.4687 1583.28 47.9694" stroke="white" stroke-opacity="0.15" stroke-miterlimit="10"/>
<path d="M-126.096 292.089C-78.4774 249.08 -25.9719 207.456 38.0623 171.803C89.0641 143.333 151.845 120.054 215.503 115.122C253.723 112.18 290.565 114.949 322.895 123.689C380.288 139.438 416.628 172.322 474.648 188.591C513.118 199.495 555.223 202.697 599.082 198.283C609.107 197.245 619.132 195.86 628.906 194.129C677.527 185.389 724.644 168.688 774.643 153.89C808.227 143.938 841.936 135.198 874.517 127.929C897.95 122.737 921.383 118.237 944.315 114.516C996.946 106.122 1048.2 102.314 1101.71 101.882C1117.75 101.709 1134.16 102.228 1150.83 103.007C1194.94 105.084 1238.05 110.881 1280.78 114.603C1288.67 115.295 1296.44 115.901 1304.21 116.42C1354.33 119.708 1404.33 119.102 1453.08 108.545C1503.96 97.5549 1554.33 74.3631 1584.16 43.21" stroke="white" stroke-opacity="0.15" stroke-miterlimit="10"/>
<path d="M-114.943 287.243C-68.2018 244.753 -17.0747 203.389 45.7064 167.909C97.46 138.746 161.494 115.035 226.28 110.362C264.25 107.68 300.465 110.622 332.544 119.276C389.311 134.679 427.155 165.919 484.171 182.188C522.141 193.091 563.744 197.072 607.227 193.351C617.252 192.485 627.152 191.274 636.926 189.63C685.296 181.668 732.414 165.659 781.912 150.861C814.994 140.91 848.201 131.737 880.281 123.949C903.339 118.324 926.396 113.305 949.077 109.064C1001.08 99.2857 1051.96 93.5743 1104.96 92.3628C1121 92.0166 1137.3 92.1032 1153.71 92.7089C1197.57 94.2666 1240.18 100.065 1282.41 104.218C1290.18 104.997 1297.94 105.689 1305.59 106.382C1355.09 110.362 1404.58 110.968 1453.71 101.449C1504.58 91.584 1555.84 69.171 1585.28 38.4506" stroke="white" stroke-opacity="0.15" stroke-miterlimit="10"/>
<path d="M-103.665 282.483C-57.8009 240.426 -8.17752 199.322 53.4758 164.188C105.981 134.333 171.269 110.189 237.057 105.776C274.776 103.266 310.364 106.555 342.193 115.035C398.208 130.006 437.681 159.775 493.82 175.957C531.414 186.86 572.265 191.533 615.623 188.505C625.523 187.812 635.422 186.687 645.197 185.303C693.316 178.12 740.434 162.89 789.305 147.919C822.011 137.967 854.592 128.448 886.171 119.968C908.727 113.997 931.534 108.372 953.964 103.526C1005.22 92.4493 1055.97 85.0072 1108.47 82.8438C1124.39 82.1515 1140.55 81.9784 1156.84 82.4111C1200.45 83.536 1242.56 89.334 1284.16 93.8339C1291.8 94.6992 1299.45 95.4781 1307.09 96.2569C1355.84 100.93 1405.09 102.747 1454.46 94.2666C1505.34 85.4398 1557.34 63.9788 1586.54 33.6046" stroke="white" stroke-opacity="0.15" stroke-miterlimit="10"/>
<path d="M-92.5122 277.724C-47.5254 236.186 0.594268 195.254 61.1197 160.467C114.252 129.919 180.918 105.257 247.834 101.276C285.302 99.026 320.264 102.487 351.842 110.795C407.23 125.42 448.207 153.544 503.344 169.726C540.562 180.716 580.661 185.995 623.894 183.659C633.793 183.139 643.568 182.187 653.342 180.889C701.211 174.486 748.328 159.948 796.573 144.977C828.778 135.025 860.858 125.073 891.81 116.074C913.99 109.67 936.296 103.526 958.601 98.0741C1009.23 85.6994 1059.6 76.6131 1111.73 73.4112C1127.52 72.4593 1143.56 71.9401 1159.73 72.1997C1203.21 72.8055 1244.69 78.6899 1285.66 83.6225C1293.31 84.5744 1300.83 85.5263 1308.35 86.3051C1356.47 91.6704 1405.21 94.6992 1454.96 87.1705C1505.84 79.4688 1558.59 58.8731 1587.54 28.845" stroke="white" stroke-opacity="0.15" stroke-miterlimit="10"/>
<path d="M-81.2341 272.964C-37.1245 231.859 9.49139 191.187 68.7637 156.746C122.522 125.506 190.567 100.411 258.611 96.6895C295.703 94.6127 330.164 98.4203 361.492 106.555C416.253 120.747 458.733 147.4 512.868 163.496C549.584 174.486 589.057 180.543 632.164 178.899C641.939 178.466 651.713 177.688 661.362 176.563C708.98 170.938 756.097 157.092 803.716 142.121C835.42 132.169 866.998 121.872 897.449 112.266C919.253 105.43 941.183 98.7664 963.112 92.7089C1012.99 78.9496 1063.24 68.3056 1114.86 63.9788C1130.65 62.6807 1146.44 61.9884 1162.48 61.9884C1205.72 62.075 1246.69 67.9595 1287.17 73.3247C1294.69 74.3631 1302.21 75.4016 1309.6 76.3535C1357.09 82.411 1405.46 86.6513 1455.46 80.1611C1506.34 73.5843 1559.97 53.854 1588.54 24.0855" stroke="white" stroke-opacity="0.15" stroke-miterlimit="10"/>
<path d="M-70.0813 268.205C-26.8488 227.619 18.2633 187.033 76.4079 152.938C130.918 120.92 200.216 95.3914 269.262 92.0165C306.104 90.1992 339.938 94.2665 371.141 102.228C425.15 116.074 469.26 141.083 522.517 157.178C558.857 168.169 597.578 174.918 640.435 173.966C650.209 173.707 659.858 173.101 669.507 172.149C716.875 167.303 763.992 154.15 811.109 139.179C842.437 129.227 873.389 118.497 903.339 108.285C924.767 101.016 946.32 93.9203 967.999 87.257C1017.25 72.2862 1067.12 59.825 1118.37 54.5462C1134.04 52.9021 1149.83 51.9502 1165.62 51.7771C1208.6 51.2579 1249.07 57.2289 1288.92 63.1134C1296.32 64.2383 1303.71 65.3633 1311.1 66.4017C1357.97 73.1516 1405.84 78.6034 1456.09 73.1516C1506.96 67.6132 1561.35 48.7483 1589.67 19.4125" stroke="white" stroke-opacity="0.15" stroke-miterlimit="10"/>
<path d="M-58.8033 263.445C-16.448 223.379 27.1604 182.966 84.1771 149.217C139.314 116.506 209.99 90.5455 280.164 87.4302C316.755 85.786 349.963 90.1128 380.915 97.9011C434.298 111.314 479.911 134.852 532.166 150.861C568.13 161.938 606.225 169.38 648.831 169.034C658.48 168.947 668.129 168.515 677.778 167.649C724.895 163.582 772.012 151.121 818.503 136.064C849.329 126.112 879.78 115.035 909.228 104.218C930.155 96.5165 951.458 88.8148 972.887 81.6323C1021.51 65.2769 1071.13 51.258 1121.76 44.8543C1137.3 42.864 1152.96 41.6525 1168.62 41.3063C1211.35 40.3544 1251.45 46.2389 1290.55 52.556C1297.94 53.7675 1305.21 54.9791 1312.48 56.104C1358.6 63.5462 1406.21 70.2095 1456.71 65.7961C1507.59 61.2962 1562.73 43.3832 1590.8 14.3935" stroke="white" stroke-opacity="0.15" stroke-miterlimit="10"/>
<path d="M-47.6508 258.599C-6.17264 218.965 35.932 178.813 91.6957 145.41C147.459 112.006 219.513 85.5263 290.69 82.7572C432.292 77.3054 517.254 162.89 656.851 164.188C744.443 164.967 833.415 132.343 914.742 100.324C996.069 68.3056 1082.78 34.2103 1171.38 31.0949C1221.88 29.3642 1268.12 38.0179 1313.73 46.1523C1359.22 54.2867 1406.34 62.1615 1457.22 58.7866C1508.09 55.4117 1563.98 38.364 1591.8 9.72046" stroke="white" stroke-opacity="0.15" stroke-miterlimit="10"/>
</g>
<defs>
<clipPath id="clip0_727_325">
<rect width="1440" height="861" fill="white"/>
</clipPath>
</defs>
</svg>
