<svg width="2560" height="861" viewBox="0 0 2560 861" fill="none" xmlns="http://www.w3.org/2000/svg">
<g clip-path="url(#clip0_741_383)">
<path d="M-20.2234 861C37.9459 776.46 266.438 699.44 501.417 685.004C612.734 678.175 727.189 683.534 833.065 663.653C947.73 642.042 1019.92 596.314 1055.28 553.007C1090.64 509.7 1099.43 465.873 1138.77 422.739C1178.11 379.604 1259.29 334.568 1377.3 316.934C1459.95 304.573 1546.37 307.684 1630.07 297.917C1744.94 284.518 1840.15 248.645 1912.54 211.475C1984.73 174.304 2042.27 133.936 2123.67 99.0134C2243.77 47.494 2414.52 10.4968 2585.47 -1" stroke="white" stroke-opacity="0.15" stroke-miterlimit="10"/>
<path d="M-40.7292 843.193C2.79307 783.894 128.547 728.398 281.294 695.291C345.113 681.46 413.954 671.519 483.422 667.111C552.89 662.702 623.614 663.134 692.036 659.936C733.884 658.034 774.687 654.749 814.233 648.093C882.237 636.597 935.384 616.888 976.187 593.462C1003.18 577.989 1024.1 560.96 1039.59 544.19C1059.46 522.493 1072.23 500.278 1085.62 478.148C1098.17 457.489 1111.15 436.743 1131.23 416.256C1148.6 398.622 1172.87 380.728 1203.84 364.65C1247.78 341.916 1305.11 322.898 1374.16 313.13C1419.78 306.734 1466.23 304.918 1512.89 303.103C1551.18 301.634 1589.27 300.164 1626.93 296.274C1695.14 289.1 1756.45 274.491 1810.64 256.338C1847.68 243.977 1881.37 229.973 1911.5 215.624C1955.65 194.618 1994.57 172.316 2036.62 150.447C2065.08 135.665 2094.58 120.97 2128.06 107.139C2176.61 86.9981 2232.27 68.8453 2292.32 53.545C2383.97 30.0328 2485.45 13.0037 2586.72 4.79171" stroke="white" stroke-opacity="0.15" stroke-miterlimit="10"/>
<path d="M-61.2354 825.472C-15.2021 766.519 110.762 711.282 263.299 677.916C327.118 663.912 395.54 653.799 465.217 649.217C534.686 644.636 606.037 644.895 674.25 642.388C716.099 640.832 756.482 638.325 795.401 632.534C862.568 622.507 914.878 604.786 957.145 582.743C984.974 568.221 1006.94 551.797 1023.68 535.459C1045.24 514.368 1059.46 492.671 1074.32 470.887C1088.13 450.573 1102.36 430.087 1123.49 409.946C1141.7 392.571 1166.81 374.936 1198.61 359.204C1243.81 336.988 1301.77 318.663 1371.03 309.5C1416.85 303.449 1463.51 301.893 1509.96 300.51C1548.25 299.386 1586.34 298.262 1624 294.718C1692.21 288.408 1753.52 275.009 1808.34 258.067C1845.59 246.484 1879.9 233.431 1910.66 219.859C1955.86 200.064 1996.03 178.713 2039.34 157.535C2068.64 143.185 2098.98 128.922 2132.67 115.265C2181.84 95.4694 2237.92 77.3166 2297.76 61.757C2389.2 37.899 2488.8 20.0055 2588.6 10.5833" stroke="white" stroke-opacity="0.15" stroke-miterlimit="10"/>
<path d="M-81.7411 807.665C-32.9877 748.971 93.1852 694.08 245.304 660.454C308.914 646.364 377.336 635.991 447.013 631.237C516.691 626.483 588.252 626.656 656.255 624.84C698.313 623.717 738.069 621.901 776.36 616.974C842.481 608.416 894.373 592.77 938.104 571.938C966.77 558.28 989.787 542.461 1007.78 526.642C1030.8 506.242 1046.91 484.891 1062.81 463.453C1078.09 443.398 1093.36 423.257 1115.54 403.376C1134.79 386.174 1160.74 368.972 1193.17 353.585C1239.41 331.888 1298.21 314.34 1367.68 305.696C1413.5 300.078 1460.37 298.781 1506.82 297.657C1545.11 296.793 1583.2 296.015 1620.65 292.989C1688.65 287.543 1750.38 275.355 1805.41 259.709C1843.08 248.99 1877.81 236.802 1909.41 224.009C1955.44 205.337 1997.08 185.023 2041.65 164.536C2071.78 150.706 2102.74 136.789 2136.85 123.304C2186.86 103.768 2243.15 85.7013 2302.57 69.9689C2393.59 45.7651 2491.73 26.9208 2589.65 16.3748" stroke="white" stroke-opacity="0.15" stroke-miterlimit="10"/>
<path d="M-102.247 789.858C-50.9826 731.423 75.3995 676.878 227.518 642.993C291.128 628.817 359.341 618.271 429.228 613.343C498.905 608.416 571.094 608.589 638.679 607.292C680.737 606.515 720.074 605.391 757.738 601.328C822.812 594.326 874.285 580.668 919.272 561.132C948.776 548.426 973.048 533.212 992.089 517.739C1016.57 497.943 1034.15 477.024 1051.72 456.019C1068.04 436.31 1084.78 416.342 1108.01 396.893C1128.1 379.95 1154.88 363.007 1188.15 348.053C1235.44 326.875 1295.07 310.018 1364.75 301.893C1410.78 296.62 1457.65 295.669 1503.89 294.891C1542.19 294.286 1580.06 293.94 1617.51 291.347C1685.52 286.765 1747.24 275.787 1802.9 261.352C1840.77 251.497 1876.14 240.173 1908.57 228.158C1955.65 210.697 1998.33 191.333 2044.16 171.538C2074.92 158.14 2106.72 144.568 2141.45 131.429C2192.3 112.239 2248.8 94.0862 2307.8 78.1809C2398.61 53.5449 2495.07 33.9225 2591.32 22.1664" stroke="white" stroke-opacity="0.15" stroke-miterlimit="10"/>
<path d="M-122.752 772.051C-68.9771 713.875 57.6143 659.676 209.524 625.532C272.924 611.269 341.137 600.463 411.024 595.363C480.911 590.263 553.309 590.35 620.684 589.745C662.742 589.399 701.661 588.967 738.906 585.768C803.144 580.236 853.78 568.566 900.441 550.414C930.572 538.571 956.099 524.049 976.396 509.008C1002.55 489.904 1021.8 469.331 1040.63 448.758C1058.42 429.395 1076.2 409.686 1100.48 390.496C1121.61 373.812 1149.23 357.129 1183.13 342.52C1231.67 321.861 1291.93 305.696 1361.82 298.176C1408.06 293.249 1454.93 292.643 1501.17 292.211C1539.47 291.952 1577.34 291.865 1614.79 289.791C1682.59 286.074 1744.52 276.306 1800.6 263.08C1838.89 254.09 1874.67 243.631 1907.73 232.393C1955.86 216.056 1999.8 197.73 2046.88 178.626C2078.47 165.747 2110.91 152.521 2146.06 139.555C2197.74 120.624 2254.45 102.557 2313.03 86.4792C2403.43 61.4975 2498.21 41.0107 2593 28.0444" stroke="white" stroke-opacity="0.15" stroke-miterlimit="10"/>
<path d="M-143.467 754.331C-87.1813 696.501 39.6193 642.561 191.529 608.157C254.929 593.808 322.724 582.743 392.82 577.557C462.707 572.37 535.732 571.851 602.689 572.284C644.747 572.629 683.248 572.629 719.865 570.295C783.056 566.233 833.065 556.638 881.19 539.695C912.158 528.803 938.732 514.8 960.284 500.277C987.904 481.865 1008.83 461.724 1028.92 441.41C1047.96 422.393 1067 402.944 1092.52 384.099C1114.7 367.675 1142.95 351.251 1177.69 337.075C1227.28 316.847 1288.38 301.461 1358.47 294.545C1404.92 290.05 1451.79 289.532 1498.04 289.618C1536.33 289.705 1574.2 289.877 1611.45 288.235C1679.24 285.296 1741.18 276.825 1797.88 264.896C1836.38 256.77 1873 247.175 1906.69 236.716C1955.65 221.502 2001.05 204.213 2049.39 185.888C2081.82 173.526 2114.88 160.56 2150.45 147.853C2202.76 129.182 2259.89 111.115 2318.06 94.8642C2408.24 69.4503 2501.35 48.0991 2594.25 34.009" stroke="white" stroke-opacity="0.15" stroke-miterlimit="10"/>
<path d="M-163.973 736.523C-105.176 678.953 22.0428 625.359 173.534 590.696C236.725 576.26 304.519 564.936 374.825 559.577C444.921 554.217 518.365 554.044 584.904 554.736C627.171 555.168 664.834 556.205 701.033 554.649C763.178 552.056 812.559 544.536 862.149 528.89C893.954 518.862 921.365 505.55 944.591 491.46C973.675 473.653 996.273 453.944 1017.83 434.063C1038.12 415.305 1058.63 396.201 1084.99 377.616C1108.01 361.365 1137.09 345.287 1172.66 331.456C1223.3 311.747 1285.24 297.052 1355.54 290.655C1402.2 286.506 1449.28 286.42 1495.32 286.765C1533.61 287.025 1571.27 287.716 1608.52 286.506C1676.1 284.432 1738.25 277.17 1795.37 266.452C1834.08 259.19 1871.32 250.46 1905.85 240.778C1955.86 226.775 2002.31 210.437 2051.9 192.803C2085.17 180.874 2118.86 168.34 2154.85 155.892C2207.99 137.567 2265.33 119.5 2323.08 103.076C2413.05 77.3164 2504.49 55.1008 2595.72 39.8006" stroke="white" stroke-opacity="0.15" stroke-miterlimit="10"/>
<path d="M-184.478 718.717C-122.961 661.406 4.25781 608.244 155.54 573.148C218.522 558.539 286.316 547.129 356.621 541.51C426.927 535.978 500.58 535.719 566.909 537.102C609.176 537.966 646.421 539.609 681.993 539.004C743.3 537.966 791.845 532.434 843.109 517.998C875.541 508.922 904.208 496.128 928.689 482.557C959.238 465.441 983.51 446.078 1006.53 426.629C1028.29 408.217 1049.84 389.372 1077.25 371.133C1101.31 355.141 1131.24 339.409 1167.43 325.924C1219.33 306.734 1282.1 292.73 1352.4 286.939C1399.27 283.135 1446.35 283.308 1492.18 284.086C1530.47 284.691 1568.13 285.642 1605.17 284.95C1672.75 283.654 1734.69 277.689 1792.65 268.181C1831.78 261.784 1869.44 253.918 1904.59 244.928C1955.44 232.048 2003.36 216.748 2054.2 199.805C2088.31 188.395 2122.62 176.12 2159.24 163.932C2213.02 145.865 2270.56 127.885 2328.1 111.202C2417.65 85.0964 2507.42 62.0164 2596.98 45.4195" stroke="white" stroke-opacity="0.15" stroke-miterlimit="10"/>
<path d="M-204.984 700.909C-140.956 643.858 -13.5279 591.042 137.754 555.687C200.736 540.992 268.321 529.322 338.626 523.617C408.932 517.912 483.212 517.652 549.124 519.554C591.391 520.764 628.217 523.185 663.161 523.444C723.422 523.876 771.339 520.332 824.068 507.279C857.128 499.067 887.05 486.965 912.786 473.74C944.8 457.229 970.746 438.298 995.228 419.195C1018.24 401.128 1041.05 382.543 1069.51 364.65C1094.62 348.917 1125.17 333.444 1162.2 320.392C1215.14 301.72 1278.75 288.408 1349.26 283.135C1396.14 279.677 1443.42 280.196 1489.25 281.233C1527.54 282.098 1565.2 283.394 1602.24 283.221C1669.82 282.789 1731.76 278.035 1790.14 269.736C1829.48 264.204 1867.56 257.202 1903.76 248.99C1955.65 237.321 2004.82 222.971 2056.71 206.72C2091.66 195.742 2126.81 183.9 2163.63 171.884C2218.25 154.163 2276 136.097 2333.33 119.327C2422.68 92.7896 2510.77 68.8452 2598.65 51.1246" stroke="white" stroke-opacity="0.15" stroke-miterlimit="10"/>
<path d="M-225.49 683.102C-158.951 626.396 -31.3136 573.84 119.759 538.225C182.532 523.444 249.908 511.515 320.631 505.637C391.146 499.759 465.636 499.413 531.338 502.006C573.605 503.649 610.013 506.761 644.538 507.798C703.963 509.7 750.833 508.23 805.236 496.474C838.924 489.213 870.101 477.63 897.093 464.923C930.571 449.104 958.191 430.519 983.928 411.847C1008.41 394.127 1032.26 375.801 1061.77 358.167C1087.71 342.694 1119.1 327.48 1156.97 314.773C1210.96 296.533 1275.4 283.999 1345.92 279.332C1393 276.22 1440.28 277.084 1486.11 278.467C1524.4 279.677 1561.85 281.32 1598.89 281.493C1666.27 281.925 1728.41 278.381 1787.42 271.379C1826.96 266.625 1865.67 260.574 1902.71 253.14C1955.44 242.594 2005.87 229.282 2059.22 213.808C2095 203.349 2130.78 191.852 2168.03 180.01C2223.48 162.548 2281.65 144.568 2338.35 127.539C2427.49 100.742 2513.9 75.847 2599.9 56.9162" stroke="white" stroke-opacity="0.15" stroke-miterlimit="10"/>
<path d="M-245.996 665.382C-176.946 608.935 -49.0992 556.724 101.973 520.851C164.746 505.983 231.913 493.881 302.636 487.83C373.151 481.779 448.269 481.433 513.552 484.545C556.029 486.62 591.809 490.337 625.706 492.325C684.085 495.696 730.327 496.215 786.404 485.755C820.929 479.359 853.152 468.467 881.4 456.192C916.343 440.978 945.846 422.912 972.839 404.5C998.575 387.038 1023.68 368.972 1054.23 351.77C1081.23 336.556 1113.45 321.688 1151.95 309.327C1207.19 291.606 1272.26 279.764 1342.99 275.701C1390.28 273.021 1437.56 274.059 1483.39 275.874C1521.68 277.343 1559.13 279.332 1595.96 280.023C1663.34 281.32 1725.48 278.986 1784.91 273.194C1824.87 269.304 1864 264.031 1901.87 257.462C1955.65 248.04 2007.33 235.765 2061.94 220.983C2098.35 211.042 2134.97 199.805 2172.84 188.308C2229.13 171.106 2287.3 153.213 2343.79 135.924C2432.72 108.695 2517.25 83.0218 2601.79 62.8808" stroke="white" stroke-opacity="0.15" stroke-miterlimit="10"/>
<path d="M-266.502 647.575C-194.941 591.387 -66.6756 539.522 83.9786 503.389C146.542 488.435 213.709 476.074 284.432 469.85C355.156 463.626 430.693 463.194 495.558 466.997C538.034 469.504 573.396 473.913 606.665 476.679C663.997 481.519 709.403 484.113 767.154 474.95C802.306 469.418 835.576 459.131 865.288 447.375C901.696 432.853 932.873 415.132 961.33 397.152C988.322 380.037 1014.9 362.229 1046.28 345.287C1074.32 330.246 1107.17 315.724 1146.51 303.708C1202.8 286.506 1268.71 275.355 1339.64 271.811C1387.14 269.477 1434.64 270.86 1480.25 273.021C1518.54 274.837 1556 277.171 1592.61 278.294C1659.78 280.369 1722.13 279.245 1782.19 274.75C1822.36 271.725 1862.12 267.316 1900.62 261.524C1955.23 253.313 2008.38 241.989 2064.03 227.899C2101.28 218.39 2138.53 207.585 2176.82 196.261C2233.73 179.405 2292.32 161.511 2348.39 144.05C2436.9 116.475 2519.97 89.8507 2602.62 68.5859" stroke="white" stroke-opacity="0.15" stroke-miterlimit="10"/>
<path d="M-287.007 629.767C-212.936 573.926 -84.461 522.32 65.984 485.928C128.547 470.887 195.505 458.266 266.438 451.87C337.162 445.473 413.116 445.041 477.772 449.449C520.248 452.302 555.192 457.489 587.833 461.119C644.329 467.516 688.688 472.011 748.322 464.231C784.102 459.563 818.627 449.968 849.595 438.558C887.468 424.641 920.319 407.352 950.031 389.804C978.488 373.035 1006.11 355.487 1038.75 338.89C1067.63 324.108 1101.52 309.846 1141.49 298.262C1199.03 281.579 1265.57 271.12 1336.71 268.18C1384.42 266.192 1431.92 267.921 1477.32 270.428C1515.61 272.503 1553.07 275.182 1589.68 276.825C1656.85 279.764 1719.2 279.85 1779.68 276.565C1820.06 274.404 1860.44 270.86 1899.78 265.847C1955.23 258.758 2009.63 248.472 2066.76 235.073C2104.84 226.083 2142.71 215.537 2181.42 204.473C2239.17 187.876 2297.97 169.982 2353.63 152.348C2441.93 124.427 2523.32 96.9388 2604.3 74.4639" stroke="white" stroke-opacity="0.15" stroke-miterlimit="10"/>
<path d="M-307.722 611.961C-230.93 556.378 -102.456 505.118 47.9892 468.467C110.343 453.253 177.091 440.46 248.234 433.977C319.167 427.407 395.54 426.888 459.777 431.902C502.254 435.187 536.778 440.978 568.792 445.56C624.242 453.426 667.764 459.909 729.072 453.426C765.48 449.623 801.26 440.633 833.693 429.741C873.03 416.515 907.555 399.573 938.732 382.371C968.445 365.947 997.32 348.658 1031.01 332.321C1060.93 317.798 1095.45 303.795 1136.26 292.644C1194.84 276.479 1262.22 266.711 1333.57 264.377C1381.49 262.821 1428.99 264.723 1474.39 267.576C1512.68 269.996 1549.93 273.021 1586.55 275.096C1653.71 278.899 1715.86 280.196 1777.16 278.208C1817.97 276.911 1858.77 274.232 1898.94 269.996C1955.23 264.031 2011.1 254.782 2069.48 242.075C2108.39 233.517 2147.1 223.404 2186.02 212.512C2244.61 196.261 2303.62 178.367 2358.86 160.56C2446.95 132.207 2526.46 103.941 2605.76 80.1692" stroke="white" stroke-opacity="0.15" stroke-miterlimit="10"/>
<path d="M-328.228 594.153C-248.925 538.831 -120.241 487.916 29.9943 451.005C92.1392 435.705 158.887 422.739 230.03 415.996C301.172 409.34 377.964 408.735 441.992 414.354C484.677 418.071 518.574 424.554 550.17 429.914C604.573 439.249 647.258 447.634 710.24 442.621C747.276 439.682 784.102 431.383 818 420.924C858.802 408.303 895.21 391.879 927.642 375.023C958.819 358.945 988.741 341.916 1023.48 325.924C1054.44 311.661 1089.8 298.003 1131.23 287.111C1191.08 271.465 1259.08 262.389 1330.64 260.574C1378.56 259.363 1426.27 261.611 1471.67 264.809C1509.96 267.489 1547.21 270.86 1583.62 273.367C1650.57 278.035 1712.93 280.542 1774.65 279.764C1815.67 279.245 1857.09 277.516 1897.9 274.059C1955.23 269.218 2012.35 261.006 2071.78 249.077C2111.53 241.038 2150.87 231.27 2190.42 220.637C2249.84 204.646 2309.06 186.839 2363.88 168.772C2451.55 140.073 2529.6 110.856 2607.23 85.9607" stroke="white" stroke-opacity="0.15" stroke-miterlimit="10"/>
<path d="M-348.734 576.433C-266.92 521.369 -137.818 470.801 11.9995 433.631C74.1444 418.244 140.683 405.018 211.826 398.189C282.968 391.36 360.178 390.755 423.997 396.893C466.682 401.042 500.161 408.217 531.129 414.44C584.695 425.246 626.543 435.619 691.199 431.902C728.863 429.741 766.945 422.134 802.097 412.193C844.364 400.178 882.446 384.186 916.343 367.675C948.776 351.856 980.162 335.173 1015.73 319.527C1047.75 305.523 1083.74 292.125 1125.79 281.665C1186.68 266.538 1255.52 258.153 1327.29 256.943C1375.42 256.079 1423.13 258.672 1468.53 262.216C1506.82 265.241 1544.07 268.958 1580.48 271.898C1647.43 277.43 1709.79 281.06 1772.14 281.579C1813.36 281.925 1855.42 280.974 1897.06 278.381C1955.23 274.664 2013.61 267.489 2074.5 256.252C2115.09 248.731 2155.06 239.222 2195.02 228.849C2255.07 213.203 2314.71 195.31 2369.32 177.157C2456.78 148.026 2533.16 118.031 2608.9 91.9252" stroke="white" stroke-opacity="0.15" stroke-miterlimit="10"/>
<path d="M-369.239 558.626C-284.915 503.908 -155.603 453.599 -5.78573 416.169C56.1499 400.696 122.689 387.211 194.04 380.209C265.392 373.207 343.021 372.516 406.421 379.345C449.106 383.926 482.167 391.706 512.507 398.881C565.026 411.156 606.038 423.43 672.367 421.183C710.659 419.886 749.787 412.884 786.404 403.376C830.136 392.052 869.892 376.406 905.045 360.328C938.942 344.854 971.374 328.43 1007.99 313.044C1040.84 299.213 1077.88 286.16 1120.56 276.047C1182.71 261.438 1252.39 253.831 1324.16 253.139C1372.49 252.707 1420.2 255.56 1465.39 259.45C1503.69 262.735 1540.72 266.797 1577.13 270.255C1643.88 276.565 1706.44 281.492 1769.21 283.308C1810.85 284.518 1853.12 284.431 1895.81 282.616C1954.81 280.023 2014.65 273.886 2076.8 263.34C2118.23 256.251 2158.82 247.175 2199.21 236.975C2260.1 221.675 2319.73 203.695 2374.13 185.369C2461.18 155.806 2535.88 125.032 2610.16 97.7167" stroke="white" stroke-opacity="0.15" stroke-miterlimit="10"/>
<path d="M-389.745 540.819C-302.909 486.36 -173.389 436.397 -23.7807 398.708C38.155 383.148 104.485 369.491 175.836 362.229C247.188 355.055 325.235 354.363 388.426 361.711C431.111 366.725 463.544 375.196 493.466 383.148C545.148 396.979 585.114 411.069 653.326 410.291C692.246 409.859 732.629 403.549 770.502 394.472C815.489 383.754 857.128 368.626 893.745 352.894C928.898 337.766 962.586 321.602 1000.25 306.561C1034.15 292.989 1071.81 280.282 1115.33 270.515C1178.52 256.338 1249.04 249.509 1321.02 249.336C1369.56 249.25 1417.48 252.362 1462.47 256.684C1500.76 260.314 1537.79 264.636 1573.99 268.613C1640.74 275.787 1703.3 281.925 1766.7 284.95C1808.55 286.938 1851.45 287.803 1894.76 286.679C1954.81 285.21 2015.91 280.11 2079.1 270.255C2121.37 263.686 2162.59 254.955 2203.6 245.014C2265.33 229.973 2325.17 212.08 2379.15 193.581C2465.78 163.672 2539.02 131.948 2611.62 103.508" stroke="white" stroke-opacity="0.15" stroke-miterlimit="10"/>
<path d="M-410.251 523.012C-320.695 468.812 -191.175 419.195 -41.5666 381.247C20.1598 365.514 86.2802 351.684 157.841 344.336C229.402 336.988 307.867 336.297 370.64 344.25C413.535 349.695 445.339 358.858 474.633 367.675C525.27 382.976 564.398 400.35 634.285 399.572C673.832 399.14 715.471 394.299 754.599 385.742C801.051 375.628 844.573 360.933 882.446 345.546C918.854 330.765 954.007 314.859 992.716 300.078C1027.66 286.766 1066.16 274.318 1110.31 264.982C1174.76 251.324 1245.9 245.273 1317.88 245.619C1366.63 245.965 1414.55 249.336 1459.54 253.918C1497.83 257.807 1534.86 262.562 1570.85 266.884C1637.39 275.009 1699.95 282.184 1763.98 286.506C1806.04 289.359 1849.56 291.001 1893.71 290.742C1954.6 290.396 2016.96 286.333 2081.61 277.17C2124.51 271.033 2166.77 262.648 2207.99 252.967C2270.56 238.272 2330.61 220.292 2384.18 201.62C2470.59 171.279 2542.15 138.777 2612.88 109.127" stroke="white" stroke-opacity="0.15" stroke-miterlimit="10"/>
<path d="M-430.757 505.291C-338.69 451.351 -208.96 402.166 -59.5613 363.872C2.16508 348.053 68.0763 333.963 139.846 326.442C211.616 318.922 290.291 318.23 352.855 326.788C395.749 332.666 427.136 342.434 456.011 352.202C505.601 368.972 544.102 386.865 615.453 388.94C655.628 390.064 698.313 385.137 738.906 377.097C786.822 367.589 832.019 353.326 871.147 338.371C909.02 323.936 945.219 308.29 984.975 293.854C1020.96 280.801 1060.09 268.699 1105.08 259.623C1170.57 246.57 1242.55 241.124 1314.74 241.989C1363.7 242.68 1411.62 246.397 1456.61 251.324C1494.9 255.56 1531.72 260.66 1567.92 265.414C1634.46 274.318 1697.02 282.789 1761.68 288.321C1803.95 291.952 1848.1 294.545 1893.08 295.064C1954.81 295.842 2018.63 292.816 2084.33 284.432C2128.06 278.813 2170.96 270.774 2212.6 261.265C2276 246.916 2336.26 228.936 2389.41 210.091C2475.4 179.404 2545.29 146.038 2614.55 115.178" stroke="white" stroke-opacity="0.15" stroke-miterlimit="10"/>
<path d="M-451.472 487.484C-356.894 433.89 -226.746 384.964 -77.7655 346.411C-16.2484 330.505 49.6629 316.156 121.433 308.549C193.203 300.856 272.506 300.164 334.65 309.241C377.545 315.551 408.513 326.01 436.76 336.556C485.514 354.796 522.968 374.591 596.203 378.048C637.005 380.037 680.946 375.714 723.003 368.108C772.385 359.204 819.255 345.46 859.848 330.851C898.976 316.761 936.43 301.374 977.232 287.198C1014.06 274.404 1054.23 262.562 1099.85 253.918C1166.6 241.384 1239.2 236.629 1311.6 238.099C1360.56 239.136 1408.69 243.199 1453.68 248.472C1491.97 253.053 1528.79 258.413 1564.78 263.686C1631.32 273.454 1693.89 283.049 1758.96 289.964C1801.65 294.459 1846.21 297.83 1891.83 299.213C1954.6 301.115 2019.68 299.127 2086.63 291.433C2131.2 286.247 2174.72 278.64 2216.78 269.304C2281.02 255.214 2341.49 237.321 2394.22 218.217C2480.01 187.184 2548.22 152.953 2615.6 120.797" stroke="white" stroke-opacity="0.15" stroke-miterlimit="10"/>
<path d="M-471.977 469.677C-374.889 416.342 -244.531 367.762 -95.551 328.949C-34.0339 312.958 31.6681 298.435 103.438 290.569C175.417 282.703 254.929 281.925 316.865 291.693C359.76 298.435 390.309 309.586 417.929 320.997C465.636 340.705 502.463 362.316 577.162 367.33C618.801 370.096 663.579 366.465 707.101 359.377C757.738 351.078 806.7 337.766 848.549 323.503C889.142 309.759 927.851 294.632 969.491 280.801C1007.36 268.267 1048.17 256.77 1094.62 248.385C1162.41 236.37 1235.86 232.307 1308.46 234.382C1357.63 235.851 1405.76 240.173 1450.54 245.792C1488.83 250.633 1525.66 256.424 1561.44 262.13C1627.77 272.762 1690.54 283.567 1756.24 291.693C1799.14 297.052 1844.33 301.288 1890.78 303.449C1954.39 306.474 2020.72 305.524 2089.14 298.522C2134.55 293.854 2178.7 286.593 2221.39 277.516C2286.25 263.772 2346.93 245.792 2399.45 226.602C2485.03 195.137 2551.57 160.042 2617.27 126.761" stroke="white" stroke-opacity="0.15" stroke-miterlimit="10"/>
<path d="M-492.483 451.87C-392.884 398.794 -262.317 350.56 -113.546 311.401C-52.2378 295.323 13.255 280.542 85.4435 272.503C157.423 264.463 237.562 263.685 299.08 273.972C341.974 281.147 372.105 292.903 399.097 305.264C445.967 326.529 481.957 349.955 558.33 356.438C600.597 359.982 646.63 357.043 691.408 350.473C743.509 342.78 794.146 329.986 837.459 316.069C879.517 302.671 919.273 287.803 961.958 274.318C1000.88 262.043 1042.52 250.806 1089.6 242.853C1158.65 231.356 1232.72 227.985 1305.53 230.578C1354.91 232.393 1403.04 237.061 1447.82 243.026C1486.11 248.212 1522.73 254.263 1558.72 260.487C1625.05 271.984 1687.82 283.913 1753.94 293.335C1797.25 299.472 1842.87 304.573 1890.16 307.598C1954.81 311.661 2022.4 311.834 2091.86 305.523C2138.11 301.374 2183.09 294.372 2225.99 285.555C2291.69 272.07 2352.58 254.177 2404.89 234.727C2490.05 202.917 2554.92 166.957 2618.95 132.466" stroke="white" stroke-opacity="0.15" stroke-miterlimit="10"/>
<path d="M-512.989 434.063C-410.669 381.333 -280.102 333.358 -131.331 293.94C-70.2326 277.776 -4.73987 262.735 67.4486 254.609C139.637 246.484 219.986 245.619 281.294 256.511C324.188 264.118 353.901 276.565 380.475 289.705C426.299 312.439 461.66 337.766 539.498 345.633C582.393 350.041 629.682 347.707 675.715 341.656C729.281 334.568 781.591 322.207 826.16 308.635C869.473 295.583 910.484 280.974 954.216 267.748C994.181 255.733 1036.45 244.755 1084.36 237.234C1154.46 226.17 1229.37 223.576 1302.39 226.775C1351.98 228.936 1400.32 233.863 1444.89 240.173C1483.18 245.619 1519.8 252.102 1555.58 258.672C1621.7 271.033 1684.68 284.086 1751.43 294.891C1794.95 301.807 1841.19 307.857 1889.32 311.661C1954.81 316.847 2023.86 317.971 2094.58 312.439C2141.66 308.722 2187.28 302.152 2230.59 293.508C2297.13 280.369 2358.23 262.389 2410.12 242.853C2495.07 210.61 2558.26 173.872 2620.62 138.172" stroke="white" stroke-opacity="0.15" stroke-miterlimit="10"/>
<path d="M-533.494 416.342C-428.664 363.872 -297.679 316.242 -149.326 276.565C-88.2273 260.228 -22.9438 245.101 49.2447 236.716C121.433 228.417 202.201 227.639 263.299 238.963C306.194 247.002 335.488 260.141 361.434 274.145C406.212 298.349 440.946 325.492 520.248 334.914C563.98 340.1 612.106 338.458 659.604 332.926C714.634 326.442 768.828 314.513 814.652 301.374C859.22 288.581 901.697 274.318 946.265 261.438C987.277 249.682 1030.38 238.963 1078.92 231.788C1150.07 221.243 1226.02 219.341 1299.05 223.144C1348.85 225.737 1397.18 230.924 1441.75 237.58C1480.04 243.372 1516.66 250.114 1552.23 257.202C1618.35 270.342 1681.33 284.691 1748.5 296.706C1792.44 304.486 1839.1 311.315 1887.85 315.983C1954.39 322.207 2024.49 324.454 2096.68 319.7C2144.59 316.502 2190.84 310.278 2234.78 301.806C2302.15 288.927 2363.46 271.033 2414.94 251.238C2499.68 218.649 2561.2 180.961 2621.67 144.136" stroke="white" stroke-opacity="0.15" stroke-miterlimit="10"/>
<path d="M-554 398.535C-446.659 346.324 -315.464 299.04 -167.321 259.104C-106.431 242.68 -41.1479 227.293 31.2498 218.822C103.648 210.351 184.833 209.486 245.514 221.502C362.898 244.668 373.57 307.079 501.416 324.195C597.249 337.075 715.471 317.885 803.562 294.027C891.653 270.169 970.746 240.519 1073.9 226.256C1195.68 209.4 1329.18 217.525 1438.82 234.814C1548.46 252.102 1641.79 277.948 1745.99 298.349C1850.19 318.663 1972.18 333.79 2099.19 326.615C2222.64 319.7 2335.63 292.384 2419.96 259.363C2504.28 226.343 2564.12 187.876 2623.13 149.841" stroke="white" stroke-opacity="0.15" stroke-miterlimit="10"/>
<path d="M-535.378 393.781C-429.501 342.088 -300.399 295.237 -154.557 255.387C-92.203 238.358 -25.0363 222.626 49.0353 214.241C121.015 206.115 201.154 205.424 261.416 217.266C377.545 240.087 390.937 300.856 517.11 317.971C593.901 328.431 684.712 318.576 763.387 302.239C782.01 298.349 800.005 294.113 816.953 289.705C904.835 266.711 983.719 237.666 1086.04 223.404C1155.51 213.722 1228.53 211.907 1298.84 215.192C1350.52 217.612 1400.53 222.712 1446.56 229.541C1555.16 245.533 1648.06 269.736 1751.43 289.099C1781.14 294.632 1812.32 299.732 1844.54 304.14C1924.89 315.032 2012.14 321.169 2101.7 316.588C2117.6 315.81 2133.29 314.6 2148.78 313.217C2252.56 303.535 2346.93 280.369 2420.79 252.621C2505.12 220.81 2566.22 183.122 2624.8 145.433" stroke="white" stroke-opacity="0.15" stroke-miterlimit="10"/>
<path d="M-516.546 389.026C-412.134 337.766 -285.124 291.347 -141.584 251.67C-77.9746 234.036 -8.71553 217.871 67.2393 209.659C138.8 201.879 217.894 201.274 277.946 212.944C393.029 235.333 409.141 294.632 533.43 311.661C609.385 322.12 699.15 313.044 777.407 297.311C796.029 293.594 813.815 289.532 830.763 285.21C918.226 262.994 997.111 234.727 1098.38 220.378C1167.02 210.61 1239.2 208.449 1308.67 211.129C1359.52 213.117 1409.11 217.698 1454.72 223.922C1562.06 238.531 1654.55 261.179 1757.29 279.418C1786.79 284.604 1817.76 289.532 1849.77 293.681C1929.91 304.054 2016.12 310.278 2104.84 306.042C2120.53 305.351 2136.01 304.227 2151.29 302.93C2253.82 293.94 2347.98 272.07 2422.05 245.273C2506.58 214.673 2568.94 177.676 2626.9 140.333" stroke="white" stroke-opacity="0.15" stroke-miterlimit="10"/>
<path d="M-497.923 384.186C-394.976 333.444 -270.268 287.371 -129.029 247.866C-64.1643 229.714 7.39642 213.117 84.816 204.991C155.958 197.557 234.005 197.125 293.639 208.622C407.467 230.665 426.299 288.321 549.124 305.35C624.451 315.81 712.96 307.425 791.008 292.471C809.421 288.926 827.206 284.95 844.155 280.801C931.2 259.363 1010.29 231.788 1110.31 217.439C1178.31 207.671 1249.46 205.164 1318.09 207.239C1368.31 208.795 1417.27 212.857 1462.47 218.476C1568.76 231.788 1660.83 252.794 1762.52 269.996C1792.02 274.923 1822.57 279.504 1854.38 283.481C1934.1 293.335 2019.47 299.559 2107.14 295.842C2122.62 295.237 2138.11 294.286 2153.17 292.989C2254.66 284.691 2348.19 264.118 2422.68 238.271C2507.42 208.881 2570.82 172.662 2628.36 135.665" stroke="white" stroke-opacity="0.15" stroke-miterlimit="10"/>
<path d="M-479.091 379.431C-377.609 329.209 -254.993 283.481 -116.057 244.063C-49.7269 225.305 23.717 208.276 103.02 200.324C173.744 193.235 250.745 192.889 309.96 204.213C422.741 225.824 444.084 282.011 565.235 298.954C639.935 309.413 727.189 301.806 805.027 287.457C823.44 284.086 841.225 280.282 857.965 276.306C944.591 255.646 1023.68 228.763 1122.66 214.327C1189.82 204.559 1260.13 201.62 1327.92 203.09C1377.51 204.213 1425.85 207.758 1470.42 212.771C1575.46 224.7 1667.1 244.236 1768.17 260.228C1797.46 264.809 1828.01 269.131 1859.4 272.935C1938.7 282.357 2023.23 288.494 2109.86 285.21C2125.34 284.605 2140.41 283.827 2155.47 282.703C2255.91 275.182 2348.81 255.819 2423.72 230.924C2508.47 202.657 2573.12 167.303 2630.24 130.651" stroke="white" stroke-opacity="0.15" stroke-miterlimit="10"/>
<path d="M-460.469 374.677C-360.451 324.887 -240.137 279.591 -103.293 240.346C-35.7078 220.983 39.8285 203.522 121.014 195.742C191.32 189 267.274 188.827 326.071 199.978C437.807 221.243 461.66 275.787 581.347 292.73C655.209 303.276 741.626 296.274 819.045 282.616C837.25 279.332 855.035 275.787 871.774 271.898C958.191 252.102 1037.08 225.824 1135.21 211.388C1201.75 201.62 1271.01 198.249 1337.97 199.2C1386.72 199.891 1434.43 202.917 1478.79 207.325C1582.78 217.785 1673.8 235.938 1774.23 250.806C1803.32 255.128 1833.66 259.191 1864.84 262.735C1943.72 271.725 2027.63 277.776 2113.21 275.01C2128.48 274.491 2143.55 273.799 2158.4 272.762C2257.58 265.933 2350.07 247.867 2425.19 223.836C2510.14 196.779 2576.05 162.203 2632.55 125.897" stroke="white" stroke-opacity="0.15" stroke-miterlimit="10"/>
<path d="M-441.846 369.923C-343.294 320.651 -225.072 275.615 -90.7385 236.629C-21.8979 216.575 55.7308 198.854 138.591 191.161C208.477 184.677 283.177 184.764 341.765 195.742C452.244 216.575 478.818 269.65 596.831 286.506C670.065 297.052 755.227 290.828 832.228 277.862C850.432 274.75 868.008 271.292 884.747 267.662C970.746 248.645 1049.63 223.058 1146.72 208.622C1212.42 198.854 1280.84 195.137 1346.75 195.483C1394.88 195.829 1441.96 198.249 1485.9 202.139C1588.85 211.302 1679.45 227.812 1779.05 241.643C1807.92 245.619 1838.05 249.423 1869.02 252.794C1947.49 261.265 2030.56 267.316 2115.09 264.982C2130.16 264.55 2145.22 263.945 2159.87 263.08C2258 257.029 2349.65 240.173 2425.4 217.093C2510.35 191.161 2577.51 157.362 2633.59 121.488" stroke="white" stroke-opacity="0.15" stroke-miterlimit="10"/>
<path d="M-423.015 365.168C-325.927 316.329 -210.006 271.725 -77.7656 232.826C-7.46028 212.166 72.0517 194.013 156.795 186.493C226.263 180.355 299.916 180.528 358.295 191.333C467.728 211.82 496.813 263.253 613.151 280.109C685.758 290.655 769.664 285.21 846.456 272.848C864.451 269.909 882.027 266.624 898.767 263.08C984.347 244.841 1063.23 219.946 1159.27 205.51C1224.14 195.742 1291.72 191.593 1356.8 191.333C1404.3 191.247 1450.75 193.149 1494.27 196.434C1595.96 204.213 1686.35 219.168 1785.12 231.875C1813.78 235.592 1843.7 239.136 1874.46 242.248C1952.51 250.287 2034.74 256.251 2118.23 254.35C2133.08 254.004 2147.94 253.485 2162.59 252.707C2259.68 247.434 2350.7 231.788 2426.86 209.659C2511.81 184.937 2580.23 151.916 2635.89 116.388" stroke="white" stroke-opacity="0.15" stroke-miterlimit="10"/>
<path d="M-404.392 360.328C-308.769 312.007 -195.15 267.662 -65.0016 229.022C6.5592 207.758 88.1636 189.173 174.581 181.825C243.63 175.947 316.237 176.379 374.197 187.011C482.375 207.066 514.18 257.03 629.054 273.799C700.824 284.432 783.893 279.677 860.266 268.008C878.261 265.242 895.628 262.13 912.368 258.672C997.738 241.297 1076.41 217.007 1171.41 202.485C1235.65 192.717 1302.19 188.135 1366.42 187.357C1413.08 186.752 1459.12 188.135 1502.01 190.901C1602.66 197.298 1692.42 210.697 1790.56 222.366C1819.22 225.738 1848.73 229.022 1879.27 231.961C1956.9 239.482 2038.3 245.446 2120.95 244.063C2135.81 243.804 2150.45 243.372 2164.89 242.68C2260.93 238.099 2351.32 223.749 2427.91 202.571C2512.86 179.059 2582.54 146.816 2637.78 111.634" stroke="white" stroke-opacity="0.15" stroke-miterlimit="10"/>
<path d="M-385.56 355.573C-291.401 307.771 -180.084 263.685 -52.0284 225.305C20.7878 203.435 104.485 184.418 192.785 177.243C261.416 171.711 332.977 172.23 390.518 182.689C497.65 202.398 531.966 250.719 645.166 267.489C716.308 278.121 798.122 274.145 874.286 263.08C892.071 260.487 909.438 257.462 926.178 254.263C1011.13 237.666 1089.8 214.068 1183.75 199.546C1247.15 189.778 1312.86 184.764 1376.26 183.467C1422.29 182.516 1467.7 183.294 1510.17 185.455C1609.56 190.469 1699.12 202.312 1796.21 212.858C1824.66 215.969 1854.17 218.909 1884.3 221.675C1961.72 228.676 2042.06 234.641 2123.67 233.69C2138.32 233.517 2152.75 233.171 2167.19 232.653C2261.98 228.763 2351.95 215.71 2428.95 195.483C2514.11 173.094 2585.05 141.629 2639.45 106.88" stroke="white" stroke-opacity="0.15" stroke-miterlimit="10"/>
<path d="M-366.938 350.819C-274.243 303.449 -165.228 259.709 -39.4739 221.502C34.5978 199.027 120.596 179.577 210.57 172.576C278.574 167.303 349.298 168.081 406.421 178.367C512.506 197.644 549.333 244.495 660.859 261.179C731.374 271.811 811.932 268.613 887.887 258.153C905.672 255.733 923.039 252.88 939.569 249.768C1024.1 233.95 1102.78 211.042 1195.89 196.52C1258.66 186.666 1323.32 181.393 1385.67 179.405C1431.08 178.022 1475.65 178.281 1517.91 179.923C1616.26 183.64 1705.19 193.84 1801.65 203.349C1829.89 206.115 1859.19 208.881 1889.32 211.388C1966.32 217.958 2045.83 223.836 2126.39 223.404C2140.83 223.317 2155.26 223.058 2169.49 222.626C2263.23 219.514 2352.58 207.671 2429.79 188.395C2514.95 167.13 2587.14 136.529 2641.12 102.125" stroke="white" stroke-opacity="0.15" stroke-miterlimit="10"/>
<path d="M-348.106 346.065C-256.876 299.213 -150.163 255.733 -26.5011 217.785C48.826 194.618 136.917 174.823 228.565 168.081C296.15 163.067 365.828 164.018 422.532 174.218C527.362 193.149 567.118 238.358 676.97 255.041C746.648 265.674 826.369 263.167 901.696 253.485C919.273 251.238 936.64 248.558 953.17 245.619C1037.29 230.578 1116.17 208.363 1208.03 193.84C1269.96 183.986 1333.78 178.281 1395.3 175.774C1440.08 173.959 1484.02 173.699 1525.87 174.737C1622.95 177.071 1711.67 185.801 1807.3 194.186C1835.33 196.693 1864.42 199.113 1894.34 201.447C1970.92 207.498 2049.81 213.203 2129.32 213.376C2143.76 213.376 2157.98 213.29 2172 212.858C2264.7 210.437 2353.21 199.891 2431.05 181.566C2516.21 161.511 2589.65 131.688 2643.22 97.6303" stroke="white" stroke-opacity="0.15" stroke-miterlimit="10"/>
<path d="M-329.483 341.311C-239.719 294.978 -135.307 251.757 -13.7372 214.068C62.8454 190.296 153.029 170.069 246.56 163.499C313.726 158.831 382.358 159.955 438.644 169.896C542.428 188.395 584.695 232.134 692.873 248.731C761.923 259.45 840.389 257.635 915.506 248.558C933.083 246.484 950.241 243.89 966.771 241.124C1050.47 226.948 1129.35 205.424 1220.16 190.728C1281.47 180.874 1344.24 174.823 1404.92 171.711C1448.86 169.464 1492.39 168.686 1533.61 169.118C1629.65 170.069 1717.74 177.244 1812.74 184.505C1840.77 186.666 1869.44 188.913 1899.15 191.074C1975.32 196.607 2053.36 202.485 2131.83 203.003C2146.06 203.09 2160.08 203.09 2174.1 202.83C2265.54 201.102 2353.63 191.852 2431.88 174.477C2517.04 155.547 2591.95 126.589 2644.89 92.8761" stroke="white" stroke-opacity="0.15" stroke-miterlimit="10"/>
<path d="M-310.861 336.556C-222.561 290.655 -120.451 247.694 -1.18282 210.264C76.6552 185.801 168.931 165.142 264.345 158.831C331.093 154.423 398.679 155.719 454.755 165.574C557.284 183.64 602.271 225.824 708.984 242.421C777.407 253.14 854.617 252.102 929.526 243.631C946.893 241.643 964.05 239.309 980.581 236.629C1064.07 223.231 1142.74 202.398 1232.51 187.703C1292.98 177.849 1354.91 171.365 1414.76 167.648C1458.07 164.969 1500.97 163.672 1541.77 163.499C1636.55 163.153 1724.44 168.686 1818.59 174.91C1846.42 176.725 1875.09 178.713 1904.38 180.701C1980.34 185.801 2057.34 191.593 2134.76 192.544C2148.78 192.717 2162.8 192.803 2176.61 192.63C2267 191.679 2354.46 183.64 2433.14 167.216C2518.3 149.409 2594.46 121.229 2646.98 87.9488" stroke="white" stroke-opacity="0.15" stroke-miterlimit="10"/>
<path d="M-292.029 331.715C-205.194 286.333 -105.385 243.631 11.7904 206.461C90.8838 181.393 185.252 160.301 282.34 154.163C348.67 150.014 415.209 151.57 470.867 161.165C572.35 178.886 619.847 219.514 724.887 236.024C792.472 246.743 868.636 246.397 943.336 238.704C960.703 236.888 977.651 234.727 994.181 232.221C1077.25 219.6 1155.93 199.459 1244.64 184.764C1304.49 174.909 1365.38 167.994 1424.17 163.758C1466.86 160.647 1508.92 158.831 1549.51 158.053C1643.25 156.324 1730.71 160.301 1823.83 165.487C1851.45 167.043 1879.9 168.686 1908.99 170.501C1984.52 175.082 2060.69 180.874 2137.27 182.257C2151.08 182.516 2164.89 182.689 2178.7 182.603C2268.05 182.343 2354.67 175.515 2433.77 160.041C2518.93 143.445 2596.35 116.042 2648.45 83.108" stroke="white" stroke-opacity="0.15" stroke-miterlimit="10"/>
<path d="M-273.407 326.961C-188.036 282.011 -90.7383 239.568 24.554 202.744C104.903 176.984 201.363 155.46 300.335 149.582C366.037 145.692 431.739 147.507 486.979 156.93C587.415 174.218 637.424 213.29 740.789 229.714C807.747 240.519 882.655 240.865 956.936 233.777C974.094 232.134 991.043 230.06 1007.57 227.726C1090.22 215.883 1168.9 196.434 1256.78 181.738C1315.79 171.884 1375.84 164.623 1433.8 159.782C1475.65 156.238 1517.29 153.904 1557.46 152.607C1649.95 149.582 1736.99 151.916 1829.48 155.979C1856.89 157.189 1885.13 158.572 1914.01 160.214C1989.13 164.277 2064.45 170.069 2139.99 171.97C2153.8 172.316 2167.4 172.576 2181 172.662C2269.09 173.094 2355.3 167.562 2434.81 153.04C2519.97 137.567 2598.65 111.029 2650.33 78.4402" stroke="white" stroke-opacity="0.15" stroke-miterlimit="10"/>
<path d="M-254.575 322.207C-170.878 277.776 -75.6728 235.592 37.3179 199.027C118.922 172.662 217.475 150.706 318.121 145.001C383.404 141.37 448.06 143.358 502.881 152.694C602.062 169.637 654.791 207.152 756.692 223.49C823.021 234.295 896.884 235.333 970.746 228.936C987.904 227.466 1004.64 225.565 1021.17 223.404C1103.41 212.339 1182.08 193.581 1268.92 178.8C1327.09 168.945 1386.3 161.252 1443.42 155.806C1484.64 151.916 1525.66 148.977 1565.2 147.075C1656.64 142.667 1743.27 143.358 1834.92 146.47C1862.33 147.421 1890.36 148.545 1918.82 149.928C1993.52 153.558 2068.01 159.35 2142.5 161.598C2156.1 162.03 2169.49 162.376 2183.09 162.548C2270.14 163.672 2355.51 159.35 2435.65 145.865C2520.81 131.516 2600.95 105.842 2652.01 73.5995" stroke="white" stroke-opacity="0.15" stroke-miterlimit="10"/>
<path d="M-235.952 317.453C-153.511 273.54 -61.0257 231.529 50.0818 195.223C132.942 168.167 233.587 145.779 336.115 140.333C400.98 136.875 464.381 139.209 518.993 148.285C617.127 164.796 672.367 200.756 772.594 217.093C838.087 227.899 910.903 229.714 984.556 224.009C1001.51 222.712 1018.24 220.983 1034.77 218.909C1116.59 208.622 1195.26 190.556 1281.05 175.774C1338.59 165.92 1396.76 157.88 1453.05 151.83C1493.64 147.507 1533.82 144.05 1573.15 141.543C1663.34 135.838 1749.55 134.887 1840.57 136.875C1867.77 137.48 1895.6 138.345 1923.84 139.555C1998.12 142.667 2071.99 148.458 2145.43 151.224C2158.82 151.743 2172.21 152.175 2185.4 152.435C2271.39 154.336 2356.14 151.224 2436.7 138.69C2521.86 125.465 2603.25 100.569 2653.89 68.7588" stroke="white" stroke-opacity="0.15" stroke-miterlimit="10"/>
<path d="M-217.12 312.698C-136.144 269.218 -45.9606 227.466 63.0545 191.506C147.17 163.758 249.908 140.938 354.319 135.751C418.766 132.553 481.12 135.06 535.314 144.05C632.193 160.214 690.153 194.618 788.706 210.869C853.571 221.675 925.131 224.268 998.575 219.168C1015.52 218.044 1032.26 216.402 1048.58 214.5C1129.98 204.991 1208.65 187.616 1293.4 172.835C1350.1 162.894 1407.43 154.509 1462.67 147.94C1502.43 143.185 1542.19 139.209 1581.1 136.097C1670.24 129.009 1756.03 126.502 1846.21 127.453C1873.21 127.712 1900.83 128.317 1928.87 129.354C2002.94 131.948 2075.75 137.739 2148.15 140.938C2161.54 141.543 2174.72 142.061 2187.7 142.494C2272.44 145.087 2356.56 143.185 2437.74 131.688C2522.69 119.587 2605.55 95.5557 2655.77 64.0908" stroke="white" stroke-opacity="0.15" stroke-miterlimit="10"/>
<path d="M-198.498 307.944C-118.986 264.982 -31.3137 223.404 75.6089 187.789C160.77 159.35 265.601 136.097 371.895 131.17C435.714 128.231 497.231 130.997 551.216 139.728C647.049 155.46 707.729 188.308 804.608 204.559C868.845 215.451 939.151 218.649 1012.39 214.241C1029.12 213.203 1045.86 211.82 1062.18 210.091C1143.37 201.361 1222.05 184.678 1305.53 169.896C1361.61 159.955 1417.9 151.224 1472.3 143.963C1511.43 138.777 1550.56 134.282 1588.85 130.565C1676.73 122.18 1762.31 118.376 1851.65 117.944C1878.44 117.771 1905.85 118.29 1933.68 119.068C2007.33 121.143 2079.31 126.934 2150.66 130.651C2163.84 131.343 2176.82 131.948 2189.79 132.467C2273.49 135.751 2356.97 135.146 2438.37 124.6C2523.32 113.622 2607.44 90.4557 2657.24 59.3365" stroke="white" stroke-opacity="0.15" stroke-miterlimit="10"/>
<path d="M-179.876 303.103C-101.828 260.66 -16.4576 219.341 88.3726 183.9C174.79 154.769 281.712 131.084 389.89 126.416C453.291 123.736 513.761 126.675 567.327 135.319C662.114 150.706 725.305 181.911 820.51 198.163C883.91 209.054 953.379 213.031 1025.99 209.314C1042.73 208.449 1059.26 207.239 1075.58 205.597C1156.34 197.644 1235.02 181.652 1317.67 166.871C1372.91 156.93 1428.36 147.767 1481.92 139.987C1520.42 134.368 1558.93 129.355 1596.8 125.119C1683.63 115.351 1768.59 109.646 1857.09 108.436C1883.88 108.09 1911.08 108.176 1938.49 108.781C2011.72 110.337 2082.87 116.129 2153.38 120.278C2166.35 121.056 2179.33 121.748 2192.09 122.439C2274.74 126.416 2357.39 127.021 2439.42 117.512C2524.37 107.658 2609.95 85.2693 2659.12 54.5823" stroke="white" stroke-opacity="0.15" stroke-miterlimit="10"/>
<path d="M-161.043 298.349C-84.4609 256.338 -1.60106 215.278 101.346 180.183C189.018 150.36 298.033 126.243 407.885 121.834C470.867 119.327 530.292 122.612 583.439 131.084C676.971 146.038 742.882 175.774 836.622 191.939C899.395 202.83 967.608 207.498 1040.01 204.473C1056.54 203.781 1073.07 202.658 1089.39 201.274C1169.74 194.1 1248.41 178.886 1330.01 163.931C1384.63 153.991 1439.03 144.482 1491.76 136.011C1529.42 130.046 1567.5 124.427 1604.96 119.587C1690.54 108.522 1775.28 101.088 1862.95 98.9271C1889.53 98.2355 1916.52 98.0626 1943.72 98.4949C2016.54 99.6186 2086.84 105.41 2156.31 109.905C2169.08 110.77 2181.84 111.548 2194.6 112.326C2276 116.993 2358.23 118.809 2440.67 110.337C2525.62 101.52 2612.46 80.0827 2661.21 49.7416" stroke="white" stroke-opacity="0.15" stroke-miterlimit="10"/>
<path d="M-142.421 293.594C-67.3031 252.102 13.0458 211.215 114.11 176.465C202.828 145.951 314.145 121.315 425.88 117.339C488.444 115.092 546.822 118.549 599.551 126.848C692.036 141.456 760.458 169.55 852.525 185.715C914.669 196.693 981.627 201.966 1053.82 199.632C1070.35 199.113 1086.67 198.162 1102.99 196.866C1182.92 190.469 1261.59 175.947 1342.15 160.992C1395.93 151.052 1449.49 141.111 1501.17 132.121C1538.21 125.724 1575.46 119.587 1612.7 114.141C1697.23 101.78 1781.35 92.7032 1868.39 89.5048C1894.76 88.5539 1921.54 88.0353 1948.53 88.2946C2021.14 88.8997 2090.4 94.7778 2158.82 99.705C2171.59 100.656 2184.14 101.607 2196.7 102.385C2277.04 107.744 2358.44 110.77 2441.51 103.249C2526.46 95.5557 2614.55 74.9825 2662.89 44.9872" stroke="white" stroke-opacity="0.15" stroke-miterlimit="10"/>
<path d="M-123.589 288.84C-49.9359 247.78 27.902 207.152 126.873 172.749C216.638 141.543 330.257 116.475 443.875 112.758C505.811 110.683 563.352 114.487 615.663 122.612C707.102 136.789 778.035 163.413 868.427 179.491C929.735 190.469 995.646 196.52 1067.63 194.878C1083.95 194.445 1100.27 193.667 1116.38 192.544C1195.89 186.925 1274.57 173.094 1354.08 158.14C1407.02 148.199 1459.74 137.912 1510.59 128.317C1547 121.488 1583.62 114.832 1620.23 108.781C1703.51 95.0371 1787.42 84.4048 1873.63 80.0827C1899.99 78.786 1926.35 78.0945 1953.14 78.0945C2025.33 78.1809 2093.75 84.059 2161.33 89.4184C2173.89 90.4557 2186.44 91.493 2198.79 92.4439C2278.09 98.4948 2358.86 102.73 2442.35 96.2473C2527.3 89.6777 2616.85 69.9689 2664.56 40.2329" stroke="white" stroke-opacity="0.15" stroke-miterlimit="10"/>
<path d="M-104.966 284.086C-32.7778 243.544 42.5493 203.003 139.638 168.945C230.658 136.961 346.369 111.461 461.661 108.09C523.178 106.275 579.673 110.337 631.775 118.29C721.958 132.121 795.611 157.102 884.539 173.181C945.219 184.159 1009.87 190.901 1081.44 189.95C1097.76 189.691 1113.87 189.086 1129.98 188.135C1209.07 183.294 1287.75 170.155 1366.42 155.201C1418.73 145.26 1470.42 134.541 1520.43 124.341C1556.21 117.08 1592.2 109.992 1628.39 103.336C1710.63 88.381 1793.9 75.9334 1879.48 70.6604C1905.64 69.018 1932 68.0672 1958.37 67.8943C2030.14 67.3756 2097.72 73.3401 2164.26 79.2182C2176.61 80.3419 2188.95 81.4657 2201.3 82.503C2279.56 89.2454 2359.49 94.6913 2443.39 89.2455C2528.34 83.7132 2619.16 64.8688 2666.44 35.5649" stroke="white" stroke-opacity="0.15" stroke-miterlimit="10"/>
<path d="M-86.1348 279.332C-15.411 239.309 57.4052 198.941 152.61 165.228C244.677 132.553 362.689 106.62 479.865 103.509C540.963 101.866 596.413 106.188 648.095 113.968C737.232 127.367 813.396 150.879 900.65 166.871C960.703 177.935 1024.31 185.369 1095.45 185.023C1111.57 184.937 1127.68 184.505 1143.79 183.64C1222.46 179.578 1301.14 167.13 1378.77 152.089C1430.24 142.148 1481.09 131.084 1530.26 120.278C1565.2 112.585 1600.77 104.892 1636.55 97.7169C1717.74 81.3794 1800.6 67.3757 1885.13 60.979C1911.08 58.9909 1937.23 57.7807 1963.39 57.4349C2034.74 56.484 2101.7 62.3621 2166.98 68.6724C2179.33 69.8826 2191.46 71.0928 2203.6 72.2165C2280.6 79.6505 2360.11 86.3065 2444.44 81.898C2529.39 77.403 2621.46 59.5095 2668.33 30.5514" stroke="white" stroke-opacity="0.15" stroke-miterlimit="10"/>
<path d="M-67.5126 274.491C1.74651 234.9 72.0518 194.791 165.165 161.425C258.277 128.058 378.591 101.607 497.441 98.8406C733.884 93.3947 875.75 178.886 1108.85 180.183C1255.11 180.961 1403.67 148.372 1539.47 116.388C1675.26 84.4048 1820.06 50.3466 1967.99 47.2347C2052.32 45.5058 2129.53 54.15 2205.69 62.2756C2281.65 70.4011 2360.32 78.2674 2445.27 74.8961C2530.23 71.5249 2623.55 54.4958 2670 25.8835" stroke="white" stroke-opacity="0.15" stroke-miterlimit="10"/>
</g>
<defs>
<clipPath id="clip0_741_383">
<rect width="2560" height="861" fill="white"/>
</clipPath>
</defs>
</svg>
