<svg width="1920" height="861" viewBox="0 0 1920 861" fill="none" xmlns="http://www.w3.org/2000/svg">
<g clip-path="url(#clip0_751_693)">
<path d="M3.88892 873C49.3201 786.106 227.776 706.942 411.299 692.104C498.239 685.085 587.631 690.593 670.322 670.158C759.877 647.946 816.258 600.945 843.876 556.432C871.494 511.919 878.358 466.872 909.081 422.537C939.804 378.201 1003.21 331.911 1095.38 313.786C1159.93 301.08 1227.43 304.279 1292.8 294.239C1382.51 280.467 1456.87 243.595 1513.41 205.39C1569.79 167.185 1614.74 125.693 1678.31 89.798C1772.11 36.8442 1905.46 -1.18311 2038.98 -13" stroke="white" stroke-opacity="0.15" stroke-miterlimit="10"/>
<path d="M-12.1267 854.697C21.865 793.747 120.081 736.706 239.379 702.677C289.223 688.461 342.988 678.244 397.244 673.712C451.5 669.181 506.737 669.625 560.176 666.338C592.86 664.383 624.727 661.007 655.614 654.166C708.726 642.349 750.235 622.091 782.102 598.013C803.184 582.109 819.526 564.606 831.619 547.369C847.144 525.068 857.113 502.234 867.572 479.489C877.377 458.254 887.509 436.93 903.198 415.873C916.762 397.748 935.719 379.356 959.905 362.83C994.224 339.463 1039 319.917 1092.93 309.877C1128.56 303.302 1164.84 301.436 1201.28 299.57C1231.18 298.06 1260.93 296.549 1290.34 292.551C1343.62 285.177 1391.5 270.161 1433.83 251.503C1462.75 238.798 1489.06 224.404 1512.6 209.655C1547.08 188.065 1577.48 165.142 1610.32 142.663C1632.55 127.47 1655.59 112.366 1681.74 98.1499C1719.65 77.4482 1763.12 58.7899 1810.02 43.0637C1881.6 18.8968 1960.86 1.39364 2039.96 -7.047" stroke="white" stroke-opacity="0.15" stroke-miterlimit="10"/>
<path d="M-28.1421 836.483C7.81066 775.888 106.19 719.114 225.325 684.818C275.168 670.425 328.607 660.03 383.027 655.321C437.283 650.612 493.009 650.878 546.285 648.302C578.969 646.702 610.51 644.126 640.906 638.173C693.364 627.866 734.22 609.652 767.231 586.996C788.966 572.069 806.125 555.188 819.199 538.396C836.031 516.717 847.144 494.415 858.747 472.026C869.533 451.146 880.645 430.089 897.151 409.387C911.369 391.529 930.979 373.403 955.819 357.233C991.118 334.399 1036.39 315.563 1090.48 306.145C1126.27 299.925 1162.71 298.326 1198.99 296.905C1228.9 295.75 1258.64 294.595 1288.06 290.952C1341.33 284.466 1389.21 270.694 1432.03 253.28C1461.12 241.374 1487.92 227.958 1511.94 214.009C1547.24 193.662 1578.62 171.717 1612.45 149.949C1635.33 135.2 1659.02 120.54 1685.33 106.502C1723.74 86.1553 1767.53 67.497 1814.27 51.5042C1885.69 26.982 1963.48 8.59028 2041.43 -1.09424" stroke="white" stroke-opacity="0.15" stroke-miterlimit="10"/>
<path d="M-44.1575 818.18C-6.08024 757.852 92.463 701.433 211.27 666.871C260.951 652.388 314.389 641.727 368.809 636.84C423.228 631.953 479.118 632.131 532.23 630.265C565.078 629.11 596.128 627.244 626.035 622.18C677.676 613.384 718.204 597.302 752.359 575.89C774.748 561.852 792.724 545.592 806.779 529.333C824.755 508.365 837.339 486.419 849.759 464.384C861.688 443.772 873.618 423.07 890.941 402.635C905.976 384.954 926.24 367.273 951.57 351.458C987.687 329.157 1033.61 311.12 1087.86 302.235C1123.65 296.46 1160.26 295.128 1196.54 293.973C1226.45 293.084 1256.19 292.284 1285.44 289.175C1338.55 283.577 1386.76 271.05 1429.74 254.968C1459.16 243.951 1486.29 231.423 1510.96 218.273C1546.92 199.082 1579.44 178.203 1614.24 157.145C1637.78 142.93 1661.96 128.625 1688.6 114.765C1727.66 94.6847 1771.62 76.1154 1818.03 59.9449C1889.12 35.0672 1965.76 15.6982 2042.25 4.85864" stroke="white" stroke-opacity="0.15" stroke-miterlimit="10"/>
<path d="M-60.173 799.877C-20.1347 739.816 78.572 683.752 197.379 648.923C247.06 634.352 300.335 623.512 354.918 618.448C409.337 613.384 465.718 613.561 518.503 612.229C551.351 611.429 582.074 610.274 611.49 606.098C662.314 598.901 702.516 584.863 737.651 564.783C760.694 551.723 779.651 536.085 794.522 520.181C813.642 499.835 827.37 478.334 841.097 456.743C853.844 436.486 866.918 415.962 885.058 395.971C900.746 378.556 921.664 361.142 947.648 345.771C984.581 324.003 1031.16 306.678 1085.58 298.326C1121.53 292.906 1158.14 291.929 1194.25 291.129C1224.16 290.507 1253.74 290.152 1282.99 287.486C1336.1 282.777 1384.31 271.494 1427.78 256.656C1457.36 246.527 1484.98 234.888 1510.31 222.538C1547.08 204.591 1580.42 184.688 1616.21 164.342C1640.23 150.571 1665.07 136.621 1692.2 123.116C1731.91 103.392 1776.03 84.7336 1822.12 68.3854C1893.04 43.0635 1968.38 22.8948 2043.55 10.8114" stroke="white" stroke-opacity="0.15" stroke-miterlimit="10"/>
<path d="M-76.1879 781.574C-34.1885 721.779 64.6815 666.071 183.326 630.976C232.842 616.316 286.118 605.21 340.701 599.968C395.283 594.725 451.827 594.814 504.449 594.192C537.297 593.837 567.693 593.393 596.782 590.105C646.953 584.419 686.501 572.424 722.944 553.766C746.476 541.594 766.414 526.667 782.266 511.208C802.693 491.572 817.728 470.426 832.436 449.28C846.327 429.378 860.218 409.12 879.175 389.396C895.68 372.248 917.252 355.1 943.726 340.085C981.64 318.85 1028.71 302.235 1083.29 294.506C1119.4 289.441 1156.01 288.819 1192.13 288.375C1222.03 288.108 1251.61 288.02 1280.87 285.887C1333.81 282.067 1382.19 272.027 1425.98 258.433C1455.89 249.193 1483.83 238.442 1509.66 226.892C1547.24 210.099 1581.56 191.263 1618.33 171.628C1643.01 158.389 1668.34 144.795 1695.79 131.468C1736.16 112.01 1780.44 93.4408 1826.2 76.9149C1896.8 51.2376 1970.83 30.1805 2044.86 16.8531" stroke="white" stroke-opacity="0.15" stroke-miterlimit="10"/>
<path d="M-92.3671 763.361C-48.4067 703.921 50.6268 648.479 169.271 613.117C218.788 598.368 271.736 586.996 326.482 581.665C381.065 576.334 438.099 575.801 490.394 576.245C523.242 576.6 553.312 576.601 581.91 574.202C631.264 570.026 670.321 560.163 707.908 542.749C732.095 531.554 752.849 517.161 769.682 502.234C791.253 483.309 807.596 462.608 823.284 441.728C838.156 422.181 853.027 402.19 872.964 382.821C890.287 365.94 912.349 349.059 939.477 334.488C978.208 313.697 1025.93 297.882 1080.67 290.774C1116.95 286.154 1153.56 285.621 1189.68 285.71C1219.58 285.798 1249.16 285.976 1278.25 284.288C1331.2 281.267 1379.57 272.56 1423.86 260.299C1453.93 251.947 1482.53 242.085 1508.84 231.334C1547.08 215.697 1582.54 197.927 1620.29 179.091C1645.62 166.386 1671.44 153.058 1699.22 139.998C1740.08 120.806 1784.69 102.237 1830.12 85.5333C1900.56 59.4118 1973.28 37.4661 2045.84 22.9838" stroke="white" stroke-opacity="0.15" stroke-miterlimit="10"/>
<path d="M-108.382 745.058C-62.4609 685.884 36.8995 630.798 155.217 595.17C204.57 580.332 257.519 568.693 312.428 563.184C367.175 557.676 424.536 557.498 476.504 558.209C509.515 558.653 538.931 559.719 567.203 558.12C615.739 555.454 654.306 547.725 693.037 531.643C717.877 521.336 739.286 507.654 757.425 493.171C780.141 474.869 797.79 454.611 814.623 434.176C830.475 414.896 846.49 395.26 867.081 376.158C885.058 359.454 907.773 342.928 935.555 328.712C975.103 308.455 1023.48 293.351 1078.39 286.776C1114.83 282.511 1151.6 282.422 1187.55 282.778C1217.46 283.044 1246.87 283.755 1275.96 282.511C1328.75 280.379 1377.28 272.915 1421.9 261.898C1452.13 254.435 1481.22 245.461 1508.18 235.51C1547.24 221.116 1583.52 204.324 1622.25 186.199C1648.24 173.938 1674.55 161.055 1702.66 148.26C1744.16 129.425 1788.94 110.855 1834.05 93.9738C1904.32 67.4969 1975.73 44.6628 2046.99 28.9365" stroke="white" stroke-opacity="0.15" stroke-miterlimit="10"/>
<path d="M-124.397 726.755C-76.3513 667.848 23.0091 613.206 141.163 577.134C190.353 562.118 243.301 550.39 298.211 544.615C353.121 538.929 410.645 538.662 462.45 540.084C495.461 540.972 524.55 542.66 552.332 542.039C600.214 540.972 638.128 535.286 678.166 520.448C703.497 511.119 725.885 497.97 745.006 484.02C768.865 466.428 787.822 446.526 805.799 426.535C822.794 407.61 839.627 388.241 861.035 369.494C879.829 353.057 903.198 336.887 931.47 323.026C971.998 303.302 1021.02 288.908 1075.93 282.956C1112.54 279.046 1149.31 279.224 1185.1 280.023C1215.01 280.645 1244.42 281.623 1273.35 280.912C1326.13 279.579 1374.51 273.449 1419.77 263.675C1450.33 257.101 1479.75 249.015 1507.2 239.775C1546.92 226.537 1584.34 210.81 1624.05 193.396C1650.69 181.668 1677.49 169.051 1706.09 156.524C1748.09 137.954 1793.03 119.474 1837.97 102.326C1907.91 75.4936 1978.02 51.771 2047.97 34.712" stroke="white" stroke-opacity="0.15" stroke-miterlimit="10"/>
<path d="M-140.413 708.452C-90.4057 649.812 9.11804 595.525 127.272 559.186C176.462 544.082 229.247 532.087 284.157 526.223C339.066 520.359 397.081 520.093 448.559 522.047C481.57 523.291 510.332 525.779 537.623 526.045C584.689 526.49 622.112 522.847 663.295 509.431C689.115 500.99 712.485 488.551 732.585 474.957C757.589 457.987 777.853 438.529 796.974 418.894C814.95 400.324 832.763 381.222 854.988 362.83C874.599 346.66 898.458 330.756 927.384 317.34C968.73 298.148 1018.41 284.466 1073.48 279.046C1110.09 275.492 1147.02 276.025 1182.81 277.091C1212.72 277.98 1242.13 279.312 1271.06 279.135C1323.84 278.69 1372.22 273.804 1417.81 265.274C1448.54 259.588 1478.28 252.391 1506.55 243.951C1547.08 231.956 1585.48 217.207 1626.01 200.504C1653.3 189.22 1680.76 177.047 1709.52 164.697C1752.17 146.483 1797.28 127.914 1842.05 110.677C1911.84 83.4008 1980.64 58.7897 2049.27 40.5757" stroke="white" stroke-opacity="0.15" stroke-miterlimit="10"/>
<path d="M-156.428 690.149C-104.46 631.864 -4.77282 577.844 113.218 541.239C162.244 526.045 214.866 513.784 270.102 507.743C325.175 501.701 383.354 501.345 434.668 504.011C467.679 505.699 496.115 508.898 523.079 509.964C569.491 511.918 606.097 510.408 648.587 498.325C674.898 490.861 699.248 478.956 720.329 465.895C746.476 449.635 768.048 430.533 788.149 411.342C807.269 393.128 825.899 374.292 848.942 356.167C869.206 340.263 893.719 324.625 923.299 311.564C965.461 292.817 1015.8 279.934 1070.87 275.136C1107.64 271.938 1144.57 272.826 1180.36 274.248C1210.27 275.492 1239.52 277.18 1268.45 277.358C1321.07 277.802 1369.6 274.159 1415.69 266.962C1446.57 262.076 1476.81 255.856 1505.73 248.215C1546.92 237.376 1586.3 223.693 1627.97 207.789C1655.92 197.038 1683.86 185.221 1712.95 173.049C1756.26 155.102 1801.69 136.621 1845.98 119.118C1915.59 91.5749 1983.09 65.9864 2050.25 46.5286" stroke="white" stroke-opacity="0.15" stroke-miterlimit="10"/>
<path d="M-172.443 671.935C-118.514 613.917 -18.6638 560.252 99.3266 523.38C148.353 508.098 200.811 495.659 256.048 489.44C311.121 483.22 369.789 482.865 420.777 486.064C453.951 488.196 481.897 492.017 508.371 494.06C553.966 497.525 590.082 498.058 633.879 487.308C660.843 480.733 686.01 469.538 708.072 456.921C735.364 441.284 758.406 422.714 779.487 403.79C799.588 385.842 819.199 367.273 843.058 349.592C864.14 333.955 889.307 318.673 919.376 305.967C962.519 287.753 1013.34 275.581 1068.58 271.405C1105.51 268.651 1142.45 269.717 1178.24 271.583C1208.14 273.093 1237.39 275.137 1266.16 275.847C1318.78 277.18 1367.31 274.781 1413.73 268.828C1444.94 264.83 1475.5 259.41 1505.08 252.658C1547.08 242.973 1587.44 230.357 1630.1 215.164C1658.53 204.946 1687.13 193.396 1716.71 181.579C1760.67 163.898 1806.1 145.506 1850.23 127.737C1919.68 99.7492 1985.7 73.3611 2051.72 52.6593" stroke="white" stroke-opacity="0.15" stroke-miterlimit="10"/>
<path d="M-188.458 653.633C-132.568 595.881 -32.3909 542.571 85.2727 505.433C134.136 490.062 186.594 477.356 241.831 470.959C297.067 464.562 356.062 464.118 406.723 468.027C439.898 470.604 467.516 475.135 493.5 477.978C538.277 482.954 573.74 485.619 618.844 476.201C646.299 470.515 672.283 459.942 695.489 447.859C723.924 432.932 748.274 414.718 770.5 396.238C791.581 378.646 812.336 360.343 836.849 342.928C858.747 327.469 884.404 312.542 915.128 300.192C959.088 282.511 1010.57 271.05 1065.97 267.407C1103.06 265.008 1140.16 266.43 1175.79 268.651C1205.69 270.517 1234.94 272.916 1263.54 274.071C1316 276.203 1364.7 275.048 1411.6 270.428C1442.98 267.318 1474.03 262.787 1504.1 256.834C1546.75 248.393 1588.26 236.754 1631.73 222.272C1660.82 212.498 1689.91 201.392 1719.82 189.753C1764.27 172.428 1810.02 154.036 1853.82 136.088C1922.95 107.746 1987.83 80.3802 2052.38 58.5234" stroke="white" stroke-opacity="0.15" stroke-miterlimit="10"/>
<path d="M-204.474 635.329C-146.623 577.933 -46.282 524.89 71.2181 487.485C120.081 472.025 172.376 459.053 227.776 452.479C283.013 445.904 342.335 445.46 392.832 449.991C426.006 452.923 453.298 458.254 478.792 461.985C522.915 468.56 557.561 473.18 604.136 465.184C632.081 460.386 659.046 450.524 683.232 438.796C712.811 424.491 738.469 406.722 761.674 388.685C783.9 371.449 805.471 353.412 830.965 336.353C853.517 321.16 879.992 306.5 911.205 294.594C956.146 277.447 1008.11 266.696 1063.68 263.675C1100.94 261.631 1138.03 263.408 1173.5 265.985C1203.4 268.117 1232.66 270.872 1261.25 272.56C1313.71 275.581 1362.41 275.67 1409.64 272.293C1441.18 270.072 1472.72 266.429 1503.45 261.276C1546.75 253.99 1589.24 243.418 1633.86 229.646C1663.6 220.406 1693.18 209.566 1723.41 198.193C1768.51 181.135 1814.44 162.743 1857.91 144.618C1926.87 115.92 1990.44 87.6656 2053.69 64.5649" stroke="white" stroke-opacity="0.15" stroke-miterlimit="10"/>
<path d="M-220.653 617.027C-160.677 559.897 -60.3361 507.21 57.164 469.538C105.864 453.901 157.995 440.751 213.558 434.087C268.958 427.335 328.607 426.802 378.778 431.955C411.952 435.331 438.917 441.284 463.92 445.993C507.227 454.078 541.219 460.742 589.101 454.078C617.537 450.169 645.482 440.929 670.812 429.734C701.535 416.14 728.5 398.726 752.85 381.045C776.056 364.163 798.608 346.394 824.919 329.601C848.288 314.675 875.252 300.281 907.12 288.82C952.878 272.205 1005.5 262.165 1061.23 259.766C1098.65 258.167 1135.75 260.121 1171.21 263.053C1201.12 265.541 1230.2 268.651 1258.8 270.783C1311.26 274.693 1359.8 276.025 1407.68 273.982C1439.55 272.649 1471.41 269.895 1502.79 265.541C1546.75 259.411 1590.39 249.904 1635.98 236.843C1666.38 228.047 1696.61 217.652 1727.01 206.457C1772.76 189.753 1818.85 171.361 1861.99 153.059C1930.79 123.916 1992.89 94.8626 2054.83 70.4292" stroke="white" stroke-opacity="0.15" stroke-miterlimit="10"/>
<path d="M-236.668 598.724C-174.731 541.861 -74.2269 489.529 43.1098 451.59C91.646 435.864 143.778 422.537 199.341 415.607C254.904 408.765 314.88 408.143 364.887 413.918C398.225 417.739 424.699 424.403 449.376 429.911C491.866 439.507 525.204 448.125 574.393 442.972C603.319 439.951 632.081 431.422 658.556 420.671C690.423 407.699 718.858 390.818 744.189 373.492C768.538 356.966 791.908 339.463 819.036 323.026C843.222 308.366 870.84 294.328 903.198 283.133C949.936 267.051 1003.05 257.722 1058.94 255.856C1096.36 254.613 1133.62 256.923 1169.08 260.21C1198.99 262.964 1228.08 266.429 1256.52 269.006C1308.81 273.804 1357.51 276.381 1405.72 275.581C1437.75 275.048 1470.11 273.271 1501.97 269.717C1546.75 264.741 1591.37 256.301 1637.78 244.04C1668.83 235.777 1699.55 225.737 1730.44 214.808C1776.85 198.371 1823.1 180.068 1865.91 161.499C1934.39 132.001 1995.34 101.97 2055.97 76.382" stroke="white" stroke-opacity="0.15" stroke-miterlimit="10"/>
<path d="M-252.683 580.51C-188.785 523.913 -87.9544 471.937 29.0555 433.732C77.5917 417.917 129.56 404.323 185.123 397.304C240.687 390.285 300.989 389.663 350.833 395.971C384.171 400.236 410.318 407.61 434.505 414.007C476.34 425.113 509.025 435.775 559.522 431.955C588.938 429.734 618.681 421.915 646.136 411.697C679.147 399.347 708.889 382.91 735.364 365.94C760.694 349.681 785.207 332.533 812.989 316.451C837.992 302.058 866.101 288.286 898.949 277.536C946.505 261.987 1000.27 253.369 1056.32 252.125C1093.91 251.236 1131.17 253.902 1166.63 257.545C1196.54 260.654 1225.63 264.475 1254.06 267.496C1306.36 273.182 1355.06 276.914 1403.76 277.447C1435.95 277.802 1468.8 276.825 1501.32 274.159C1546.75 270.339 1592.35 262.964 1639.9 251.414C1671.61 243.684 1702.82 233.911 1734.03 223.249C1780.94 207.167 1827.51 188.776 1870.16 170.117C1938.47 140.175 1998.12 109.345 2057.28 82.5125" stroke="white" stroke-opacity="0.15" stroke-miterlimit="10"/>
<path d="M-268.699 562.207C-202.84 505.966 -101.845 454.256 15.1646 415.784C63.5373 399.88 115.505 386.02 171.232 378.823C226.959 371.626 287.588 370.915 337.105 377.934C370.443 382.643 396.264 390.64 419.96 398.014C460.979 410.631 493.009 423.247 544.814 420.937C574.72 419.605 605.28 412.408 633.879 402.634C668.034 390.995 699.084 374.914 726.539 358.388C753.013 342.484 778.343 325.603 806.942 309.787C832.599 295.572 861.525 282.156 894.863 271.76C943.399 256.745 997.819 248.926 1053.87 248.215C1091.62 247.771 1128.88 250.703 1164.18 254.701C1194.09 258.077 1223.01 262.253 1251.45 265.807C1303.58 272.293 1352.44 277.358 1401.47 279.224C1433.99 280.467 1467 280.379 1500.34 278.513C1546.42 275.847 1593.16 269.539 1641.7 258.699C1674.06 251.414 1705.76 242.085 1737.3 231.601C1784.86 215.874 1831.43 197.394 1873.92 178.558C1941.91 148.172 2000.25 116.541 2058.26 88.4652" stroke="white" stroke-opacity="0.15" stroke-miterlimit="10"/>
<path d="M-284.714 543.904C-216.894 487.93 -115.736 436.575 1.11049 397.837C49.4833 381.844 101.288 367.806 157.015 360.343C212.741 352.968 273.698 352.257 323.051 359.81C356.389 364.963 381.719 373.67 405.089 381.844C445.454 396.06 476.667 410.542 529.943 409.743C560.339 409.298 591.88 402.812 621.459 393.483C656.595 382.466 689.115 366.918 717.714 350.747C745.169 335.199 771.48 318.584 800.896 303.124C827.37 289.175 856.786 276.114 890.778 266.074C940.131 251.503 995.204 244.484 1051.42 244.306C1089.33 244.217 1126.76 247.416 1161.89 251.858C1191.8 255.59 1220.73 260.032 1249 264.119C1301.13 271.494 1349.99 277.802 1399.51 280.912C1432.19 282.955 1465.69 283.844 1499.52 282.689C1546.42 281.178 1594.14 275.936 1643.5 265.808C1676.51 259.055 1708.7 250.081 1740.73 239.864C1788.94 224.404 1835.68 206.012 1877.84 186.999C1945.5 156.257 2002.7 123.65 2059.41 94.4183" stroke="white" stroke-opacity="0.15" stroke-miterlimit="10"/>
<path d="M-300.73 525.601C-230.785 469.893 -129.627 418.894 -12.7807 379.889C35.4287 363.719 87.0699 349.503 142.96 341.951C198.85 334.399 260.133 333.688 309.16 341.862C342.661 347.46 367.501 356.877 390.38 365.94C429.928 381.666 460.488 399.525 515.071 398.725C545.958 398.281 578.479 393.305 609.039 384.509C645.318 374.114 679.31 359.01 708.889 343.195C737.325 328.002 764.779 311.653 795.012 296.46C822.304 282.778 852.373 269.983 886.855 260.388C937.189 246.35 992.753 240.13 1048.97 240.486C1087.05 240.841 1124.47 244.306 1159.61 249.015C1189.51 253.013 1218.44 257.9 1246.55 262.342C1298.51 270.694 1347.38 278.069 1397.38 282.511C1430.23 285.443 1464.22 287.131 1498.71 286.865C1546.26 286.509 1594.96 282.333 1645.46 272.915C1678.96 266.607 1711.97 257.989 1744.17 248.038C1793.03 232.933 1839.93 214.453 1881.77 195.262C1949.26 164.076 2005.15 130.668 2060.39 100.193" stroke="white" stroke-opacity="0.15" stroke-miterlimit="10"/>
<path d="M-316.745 507.387C-244.839 451.946 -143.518 401.391 -26.8347 362.031C21.3747 345.771 72.8525 331.289 128.906 323.559C184.96 315.829 246.406 315.118 295.269 323.915C328.771 329.956 353.284 339.996 375.836 350.036C414.567 367.273 444.637 385.664 500.363 387.797C531.74 388.952 565.078 383.887 596.782 375.625C634.206 365.851 669.505 351.191 700.065 335.82C729.644 320.983 757.916 304.901 788.966 290.063C817.075 276.647 847.634 264.208 882.77 254.879C933.921 241.463 990.138 235.865 1046.52 236.754C1084.76 237.465 1122.18 241.285 1157.32 246.35C1187.22 250.703 1215.99 255.945 1244.26 260.832C1296.23 269.983 1345.09 278.69 1395.59 284.377C1428.6 288.108 1463.08 290.774 1498.22 291.307C1546.43 292.107 1596.27 288.997 1647.58 280.379C1681.74 274.603 1715.24 266.341 1747.76 256.567C1797.28 241.818 1844.34 223.338 1885.85 203.969C1953.02 172.427 2007.6 138.132 2061.69 106.413" stroke="white" stroke-opacity="0.15" stroke-miterlimit="10"/>
<path d="M-332.923 489.085C-259.057 433.998 -157.409 383.71 -41.0523 344.083C6.99361 327.735 58.4714 312.986 114.525 305.168C170.579 297.26 232.515 296.549 281.052 305.878C314.553 312.364 338.739 323.115 360.801 333.955C398.879 352.702 428.131 373.048 485.329 376.602C517.196 378.646 551.514 374.203 584.362 366.384C622.93 357.233 659.536 343.106 691.24 328.091C721.8 313.608 751.052 297.793 782.919 283.222C811.682 270.072 843.058 257.9 878.684 249.015C930.816 236.132 987.523 231.245 1044.07 232.756C1082.31 233.822 1119.89 237.998 1155.03 243.418C1184.94 248.127 1213.7 253.635 1241.81 259.055C1293.78 269.095 1342.64 278.957 1393.46 286.065C1426.8 290.685 1461.61 294.15 1497.24 295.572C1546.26 297.527 1597.09 295.483 1649.38 287.576C1684.19 282.245 1718.18 274.426 1751.03 264.83C1801.2 250.348 1848.43 231.956 1889.61 212.321C1956.61 180.424 2009.89 145.24 2062.51 112.188" stroke="white" stroke-opacity="0.15" stroke-miterlimit="10"/>
<path d="M-348.939 470.782C-273.111 415.962 -171.3 366.029 -54.9434 326.136C-6.89748 309.699 44.4169 294.772 100.471 286.687C156.688 278.602 218.788 277.802 267.161 287.842C300.662 294.772 324.521 306.234 346.093 317.962C383.353 338.219 412.115 360.432 470.457 365.585C502.978 368.428 537.95 364.696 571.942 357.411C611.49 348.881 649.731 335.198 682.415 320.538C714.119 306.411 744.352 290.863 776.872 276.647C806.452 263.764 838.319 251.947 874.599 243.329C927.547 230.979 984.908 226.803 1041.62 228.935C1080.02 230.446 1117.61 234.888 1152.58 240.663C1182.48 245.639 1211.25 251.592 1239.19 257.456C1291 268.384 1340.02 279.49 1391.34 287.842C1424.84 293.351 1460.14 297.704 1496.42 299.925C1546.1 303.035 1597.9 302.058 1651.34 294.861C1686.8 290.063 1721.29 282.6 1754.62 273.271C1805.28 259.144 1852.68 240.663 1893.7 220.939C1960.54 188.598 2012.5 152.525 2063.82 118.319" stroke="white" stroke-opacity="0.15" stroke-miterlimit="10"/>
<path d="M-364.954 452.479C-287.165 397.925 -185.19 348.348 -68.9976 308.099C-21.1151 291.573 30.0359 276.38 86.4164 268.117C142.633 259.854 205.224 259.055 253.27 269.628C286.771 277.002 310.304 289.086 331.385 301.791C367.992 323.648 396.1 347.726 455.749 354.39C488.76 358.032 524.713 355.011 559.685 348.259C600.377 340.351 639.925 327.202 673.754 312.897C706.601 299.126 737.652 283.844 770.99 269.983C801.386 257.367 833.907 245.816 870.677 237.642C924.606 225.825 982.457 222.36 1039.33 225.026C1077.9 226.892 1115.48 231.689 1150.45 237.82C1180.36 243.151 1208.96 249.37 1237.07 255.767C1288.87 267.584 1337.9 279.845 1389.54 289.53C1423.37 295.838 1458.99 301.08 1495.93 304.19C1546.42 308.366 1599.21 308.544 1653.47 302.058C1689.58 297.793 1724.72 290.596 1758.22 281.534C1809.53 267.673 1857.09 249.281 1897.94 229.29C1964.46 196.594 2015.12 159.633 2065.13 124.182" stroke="white" stroke-opacity="0.15" stroke-miterlimit="10"/>
<path d="M-380.969 434.176C-301.056 379.978 -199.081 330.667 -82.8885 290.152C-35.1694 273.537 15.9816 258.078 72.362 249.726C128.742 241.374 191.496 240.486 239.379 251.68C272.88 259.499 296.086 272.293 316.841 285.798C352.63 309.166 380.248 335.198 441.041 343.284C474.543 347.815 511.476 345.416 547.429 339.197C589.264 331.911 630.12 319.206 664.929 305.256C698.757 291.84 730.788 276.825 764.943 263.231C796.156 250.881 829.167 239.597 866.591 231.867C921.337 220.495 979.842 217.829 1036.88 221.116C1075.61 223.338 1113.36 228.402 1148.17 234.888C1178.07 240.486 1206.67 247.149 1234.62 253.902C1286.26 266.607 1335.45 280.023 1387.58 291.129C1421.57 298.237 1457.69 304.457 1495.27 308.366C1546.42 313.697 1600.35 314.852 1655.59 309.166C1692.36 305.345 1727.99 298.593 1761.81 289.708C1813.78 276.203 1861.5 257.722 1902.03 237.642C1968.38 204.502 2017.73 166.741 2066.43 130.047" stroke="white" stroke-opacity="0.15" stroke-miterlimit="10"/>
<path d="M-396.985 415.962C-315.11 362.031 -212.808 313.075 -96.9425 272.293C-49.2234 255.501 1.76413 239.952 58.1446 231.334C114.525 222.805 177.606 222.005 225.325 233.644C258.826 241.907 281.705 255.412 301.97 269.806C336.942 294.683 364.07 322.582 426.007 332.266C460.162 337.597 497.749 335.909 534.845 330.223C577.825 323.559 620.152 311.298 655.941 297.793C690.75 284.643 723.924 269.983 758.733 256.745C790.764 244.661 824.429 233.644 862.342 226.27C917.906 215.43 977.228 213.475 1034.26 217.385C1073.16 220.05 1110.91 225.381 1145.72 232.223C1175.62 238.175 1204.22 245.106 1232 252.391C1283.64 265.896 1332.83 280.645 1385.29 292.995C1419.61 300.992 1456.05 308.011 1494.13 312.808C1546.1 319.205 1600.84 321.516 1657.23 316.629C1694.65 313.341 1730.76 306.944 1765.08 298.237C1817.71 284.999 1865.59 266.607 1905.79 246.261C1971.98 212.765 2020.02 174.027 2067.25 136.177" stroke="white" stroke-opacity="0.15" stroke-miterlimit="10"/>
<path d="M-413 397.659C-329.165 343.994 -226.699 295.394 -110.997 254.346C-63.4412 237.465 -12.4536 221.65 44.0902 212.942C100.634 204.235 164.042 203.347 211.434 215.697C303.113 239.508 311.448 303.657 411.299 321.249C486.146 334.487 578.479 314.763 647.279 290.241C716.08 265.719 777.853 235.243 858.42 220.583C953.531 203.258 1057.79 211.61 1143.43 229.379C1229.06 247.149 1301.95 273.715 1383.33 294.683C1464.71 315.563 1559.99 331.111 1659.19 323.737C1755.6 316.629 1843.85 288.553 1909.71 254.612C1975.57 220.672 2022.31 181.134 2068.39 142.041" stroke="white" stroke-opacity="0.15" stroke-miterlimit="10"/>
<path d="M-398.455 392.772C-315.764 339.641 -214.933 291.485 -101.028 250.525C-52.3285 233.022 0.129854 216.852 57.9811 208.233C114.198 199.882 176.789 199.171 223.854 211.343C314.553 234.799 325.012 297.26 423.555 314.852C483.531 325.603 554.456 315.474 615.902 298.681C630.447 294.683 644.501 290.33 657.738 285.798C726.375 262.165 787.985 232.311 867.899 217.651C922.155 207.7 979.189 205.834 1034.1 209.211C1074.46 211.698 1113.52 216.941 1149.47 223.96C1234.29 240.397 1306.85 265.274 1387.58 285.176C1410.78 290.863 1435.13 296.105 1460.3 300.636C1523.06 311.831 1591.2 318.139 1661.15 313.43C1673.57 312.631 1685.82 311.387 1697.92 309.965C1778.97 300.014 1852.68 276.203 1910.36 247.682C1976.22 214.986 2023.94 176.248 2069.7 137.51" stroke="white" stroke-opacity="0.15" stroke-miterlimit="10"/>
<path d="M-383.747 387.886C-302.2 335.198 -203.003 287.487 -90.8959 246.705C-41.2158 228.58 12.8768 211.965 72.1988 203.525C128.089 195.528 189.862 194.906 236.764 206.901C326.646 229.913 339.23 290.863 436.302 308.366C495.624 319.117 565.732 309.788 626.852 293.617C641.396 289.797 655.287 285.621 668.524 281.178C736.835 258.344 798.444 229.291 877.541 214.542C931.143 204.502 987.523 202.281 1041.78 205.035C1081.49 207.078 1120.22 211.787 1155.85 218.185C1239.68 233.2 1311.92 256.478 1392.16 275.225C1415.2 280.556 1439.38 285.621 1464.39 289.886C1526.98 300.547 1594.31 306.944 1663.6 302.591C1675.85 301.88 1687.95 300.725 1699.88 299.392C1779.95 290.152 1853.49 267.673 1911.35 240.13C1977.37 208.678 2026.07 170.65 2071.34 132.268" stroke="white" stroke-opacity="0.15" stroke-miterlimit="10"/>
<path d="M-369.203 382.91C-288.799 330.756 -191.4 283.399 -81.0906 242.796C-30.4299 224.137 25.4603 207.078 85.9263 198.727C141.49 191.086 202.446 190.641 249.021 202.458C337.922 225.115 352.63 284.377 448.559 301.88C507.391 312.631 576.518 304.012 637.474 288.642C651.855 284.999 665.746 280.912 678.983 276.647C746.967 254.612 808.74 226.27 886.856 211.521C939.968 201.481 995.531 198.904 1049.13 201.037C1088.35 202.636 1126.6 206.812 1161.89 212.587C1244.91 226.27 1316.82 247.86 1396.24 265.541C1419.28 270.605 1443.14 275.314 1467.98 279.401C1530.25 289.53 1596.92 295.927 1665.4 292.107C1677.49 291.485 1689.58 290.507 1701.35 289.175C1780.61 280.645 1853.66 259.499 1911.84 232.933C1978.02 202.725 2027.54 165.497 2072.48 127.47" stroke="white" stroke-opacity="0.15" stroke-miterlimit="10"/>
<path d="M-354.495 378.024C-275.236 326.402 -179.471 279.401 -70.9586 238.886C-19.154 219.606 38.2069 202.103 100.144 193.929C155.38 186.643 215.519 186.288 261.768 197.927C349.852 220.139 366.521 277.891 461.142 295.305C519.484 306.056 587.63 298.237 648.423 283.488C662.804 280.023 676.695 276.114 689.769 272.027C757.425 250.792 819.199 223.16 896.497 208.322C948.956 198.282 1003.87 195.262 1056.81 196.772C1095.54 197.927 1133.3 201.57 1168.1 206.723C1250.14 218.984 1321.72 239.064 1400.65 255.501C1423.53 260.21 1447.39 264.653 1471.9 268.562C1533.84 278.246 1599.86 284.555 1667.52 281.178C1679.61 280.556 1691.38 279.757 1703.15 278.602C1781.59 270.872 1854.15 250.97 1912.65 225.381C1978.84 196.328 2029.34 159.989 2073.95 122.317" stroke="white" stroke-opacity="0.15" stroke-miterlimit="10"/>
<path d="M-339.951 373.137C-261.835 321.96 -167.868 275.403 -60.99 235.066C-8.20478 215.164 50.7904 197.216 114.198 189.22C169.108 182.29 228.43 182.112 274.351 193.573C361.618 215.43 380.248 271.494 473.726 288.908C531.413 299.748 598.907 292.551 659.373 278.513C673.59 275.137 687.481 271.494 700.555 267.496C768.048 247.149 829.658 220.139 906.303 205.301C958.271 195.262 1012.36 191.796 1064.66 192.774C1102.74 193.485 1140 196.594 1174.64 201.126C1255.86 211.876 1326.95 230.535 1405.39 245.817C1428.11 250.259 1451.8 254.435 1476.15 258.078C1537.76 267.318 1603.3 273.537 1670.14 270.694C1682.07 270.161 1693.83 269.45 1705.43 268.384C1782.9 261.365 1855.13 242.796 1913.8 218.096C1980.15 190.286 2031.62 154.747 2075.75 117.43" stroke="white" stroke-opacity="0.15" stroke-miterlimit="10"/>
<path d="M-325.406 368.25C-248.435 317.606 -156.101 271.316 -51.1847 231.245C2.58104 210.632 63.2104 192.418 127.925 184.511C182.508 177.847 240.85 177.936 286.608 189.22C372.894 210.632 393.649 265.185 485.819 282.511C543.016 293.351 609.529 286.953 669.668 273.626C683.886 270.428 697.613 266.874 710.687 263.142C777.853 243.595 839.463 217.296 915.291 202.458C966.605 192.418 1020.04 188.598 1071.52 188.953C1109.11 189.309 1145.88 191.796 1180.2 195.795C1260.6 205.213 1331.36 222.183 1409.15 236.398C1431.7 240.486 1455.24 244.395 1479.42 247.86C1540.71 256.567 1605.58 262.787 1671.61 260.388C1683.37 259.943 1695.14 259.321 1706.58 258.433C1783.22 252.214 1854.8 234.888 1913.96 211.165C1980.31 184.511 2032.77 149.771 2076.56 112.899" stroke="white" stroke-opacity="0.15" stroke-miterlimit="10"/>
<path d="M-310.698 363.363C-234.871 313.164 -144.335 267.318 -41.0526 227.336C13.8571 206.101 75.9573 187.443 142.143 179.713C196.399 173.405 253.923 173.582 299.518 184.689C384.988 205.746 407.703 258.611 498.566 275.936C555.273 286.776 620.805 281.178 680.781 268.473C694.835 265.452 708.562 262.076 721.636 258.433C788.476 239.686 850.085 214.097 925.096 199.26C975.757 189.22 1028.54 184.955 1079.37 184.689C1116.46 184.6 1152.74 186.554 1186.73 189.931C1266.16 197.927 1336.76 213.298 1413.89 226.359C1436.28 230.179 1459.65 233.822 1483.67 237.02C1544.63 245.283 1608.85 251.414 1674.06 249.459C1685.66 249.104 1697.26 248.571 1708.7 247.771C1784.53 242.351 1855.62 226.27 1915.1 203.524C1981.45 178.114 2034.89 144.173 2078.36 107.657" stroke="white" stroke-opacity="0.15" stroke-miterlimit="10"/>
<path d="M-296.154 358.388C-221.47 308.721 -132.732 263.142 -31.0837 223.427C24.8065 201.57 88.5409 182.467 156.034 174.915C209.963 168.873 266.67 169.318 311.938 180.246C396.427 200.859 421.267 252.214 510.986 269.45C567.039 280.379 631.918 275.492 691.567 263.497C705.621 260.654 719.185 257.456 732.259 253.902C798.935 236.043 860.381 211.077 934.575 196.15C984.745 186.11 1036.71 181.401 1086.88 180.601C1123.33 179.979 1159.28 181.401 1192.78 184.244C1271.39 190.819 1341.49 204.591 1418.14 216.585C1440.53 220.05 1463.57 223.427 1487.43 226.447C1548.06 234.177 1611.63 240.308 1676.18 238.886C1687.78 238.62 1699.22 238.175 1710.5 237.465C1785.51 232.756 1856.11 218.007 1915.92 196.239C1982.27 172.072 2036.69 138.931 2079.83 102.77" stroke="white" stroke-opacity="0.15" stroke-miterlimit="10"/>
<path d="M-281.446 353.501C-207.906 304.368 -120.966 259.055 -20.9517 219.606C35.919 197.127 101.288 177.581 170.252 170.206C223.854 164.52 279.744 165.053 324.685 175.804C408.357 196.061 435.158 245.728 523.569 262.964C579.132 273.893 643.03 269.806 702.516 258.433C716.407 255.767 729.971 252.658 743.044 249.37C809.393 232.311 870.84 208.056 944.216 193.129C993.733 183.089 1045.05 177.936 1094.56 176.603C1130.52 175.626 1165.98 176.426 1199.15 178.647C1276.78 183.8 1346.72 195.972 1422.55 206.812C1444.78 210.01 1467.82 213.031 1491.35 215.874C1551.82 223.071 1614.57 229.202 1678.31 228.224C1689.75 228.047 1701.02 227.691 1712.3 227.158C1786.33 223.16 1856.6 209.744 1916.74 188.953C1983.25 165.941 2038.65 133.6 2081.14 97.8832" stroke="white" stroke-opacity="0.15" stroke-miterlimit="10"/>
<path d="M-266.901 348.615C-194.505 299.926 -109.363 254.968 -11.1463 215.697C46.7049 192.596 113.871 172.605 184.142 165.408C237.254 159.989 292.491 160.788 337.105 171.361C419.96 191.175 448.722 239.331 535.826 256.478C590.899 267.407 653.816 264.119 713.138 253.369C727.029 250.881 740.593 247.949 753.503 244.75C819.526 228.491 880.972 204.946 953.695 190.02C1002.72 179.891 1053.22 174.471 1101.92 172.428C1137.38 171.006 1172.19 171.272 1205.2 172.961C1282.01 176.781 1351.46 187.265 1426.8 197.039C1448.86 199.882 1471.74 202.725 1495.27 205.302C1555.41 212.054 1617.51 218.096 1680.43 217.652C1691.71 217.563 1702.98 217.296 1714.1 216.852C1787.31 213.653 1857.09 201.481 1917.39 181.668C1983.9 159.811 2040.28 128.359 2082.45 92.9967" stroke="white" stroke-opacity="0.15" stroke-miterlimit="10"/>
<path d="M-252.193 343.728C-180.941 295.572 -97.5964 250.881 -1.01425 211.876C57.8175 188.065 126.618 167.718 198.197 160.788C250.982 155.635 305.401 156.612 349.688 167.096C431.563 186.554 462.613 233.022 548.409 250.17C602.829 261.098 665.092 258.522 723.924 248.571C737.651 246.261 751.215 243.506 764.126 240.486C829.821 225.026 891.431 202.192 963.173 187.265C1011.55 177.136 1061.39 171.272 1109.44 168.696C1144.41 166.83 1178.73 166.563 1211.41 167.63C1287.24 170.028 1356.53 179.002 1431.21 187.621C1453.11 190.197 1475.83 192.685 1499.2 195.084C1559.01 201.303 1620.62 207.167 1682.72 207.345C1693.99 207.345 1705.11 207.256 1716.06 206.812C1788.45 204.324 1857.58 193.485 1918.37 174.649C1984.88 154.036 2042.25 123.383 2084.08 88.3765" stroke="white" stroke-opacity="0.15" stroke-miterlimit="10"/>
<path d="M-237.648 338.841C-167.541 291.218 -85.9932 246.794 8.95478 208.056C68.7671 183.622 139.202 162.832 212.251 156.079C264.71 151.281 318.312 152.437 362.272 162.654C443.329 181.668 476.341 226.625 560.829 243.684C614.759 254.701 676.042 252.836 734.71 243.507C748.438 241.374 761.838 238.709 774.748 235.866C840.117 221.294 901.727 199.171 972.652 184.067C1020.53 173.938 1069.56 167.719 1116.95 164.52C1151.27 162.21 1185.26 161.41 1217.46 161.854C1292.47 162.832 1361.27 170.206 1435.46 177.67C1457.36 179.891 1479.75 182.201 1502.96 184.422C1562.44 190.108 1623.4 196.15 1684.68 196.683C1695.79 196.772 1706.74 196.772 1717.69 196.506C1789.11 194.729 1857.91 185.222 1919.03 167.363C1985.54 147.905 2044.04 118.141 2085.39 83.4899" stroke="white" stroke-opacity="0.15" stroke-miterlimit="10"/>
<path d="M-223.104 333.955C-154.14 286.776 -74.3906 242.618 18.7597 204.146C79.5526 179.002 151.622 157.767 226.142 151.281C278.273 146.75 331.058 148.083 374.855 158.212C454.932 176.781 490.068 220.139 573.413 237.198C626.852 248.215 687.154 247.149 745.659 238.442C759.223 236.399 772.624 234 785.534 231.245C850.739 217.474 912.186 196.061 982.294 180.957C1029.52 170.828 1077.9 164.164 1124.63 160.344C1158.46 157.59 1191.96 156.257 1223.83 156.079C1297.86 155.724 1366.5 161.41 1440.04 167.807C1461.77 169.673 1484.16 171.717 1507.04 173.76C1566.36 179.002 1626.5 184.955 1686.97 185.932C1697.92 186.11 1708.87 186.199 1719.65 186.021C1790.25 185.044 1858.56 176.781 1920.01 159.9C1986.52 141.597 2046 112.632 2087.02 78.4254" stroke="white" stroke-opacity="0.15" stroke-miterlimit="10"/>
<path d="M-208.396 328.979C-140.576 282.333 -62.624 238.442 28.8921 200.237C90.6655 174.471 164.369 152.792 240.196 146.484C292.001 142.219 343.969 143.818 387.439 153.68C466.699 171.894 503.795 213.653 585.833 230.623C638.618 241.641 698.104 241.285 756.445 233.378C770.009 231.512 783.246 229.291 796.157 226.714C861.035 213.742 922.482 193.04 991.772 177.936C1038.51 167.807 1086.07 160.699 1131.99 156.346C1165.33 153.147 1198.17 151.281 1229.88 150.482C1303.09 148.705 1371.4 152.792 1444.12 158.123C1465.7 159.722 1487.92 161.41 1510.64 163.276C1569.63 167.985 1629.12 173.938 1688.93 175.359C1699.71 175.626 1710.5 175.804 1721.29 175.715C1791.07 175.448 1858.72 168.429 1920.5 152.525C1987.01 135.466 2047.48 107.301 2088.17 73.4498" stroke="white" stroke-opacity="0.15" stroke-miterlimit="10"/>
<path d="M-193.852 324.092C-127.176 277.891 -51.1846 234.266 38.8607 196.416C101.615 169.939 176.952 147.816 254.25 141.774C305.565 137.776 356.879 139.642 400.022 149.327C478.465 167.096 517.523 207.256 598.253 224.137C650.548 235.243 709.053 235.599 767.067 228.313C780.468 226.625 793.705 224.493 806.615 222.094C871.167 209.921 932.613 189.93 1001.25 174.826C1047.34 164.697 1094.24 157.234 1139.51 152.259C1172.19 148.616 1204.71 146.217 1236.09 144.884C1308.32 141.774 1376.3 144.173 1448.54 148.349C1469.94 149.593 1492.01 151.015 1514.56 152.703C1573.23 156.879 1632.06 162.832 1691.05 164.786C1701.84 165.142 1712.46 165.408 1723.08 165.497C1791.88 165.941 1859.21 160.255 1921.31 145.328C1987.83 129.424 2049.27 102.148 2089.64 68.6519" stroke="white" stroke-opacity="0.15" stroke-miterlimit="10"/>
<path d="M-179.144 319.205C-113.775 273.537 -39.4182 230.179 48.8295 192.596C112.564 165.497 189.536 142.93 268.141 137.065C319.129 133.334 369.626 135.377 412.443 144.973C489.904 162.387 531.087 200.948 610.673 217.74C662.478 228.846 720.165 229.912 777.853 223.338C791.254 221.827 804.328 219.873 817.238 217.651C881.463 206.279 942.909 186.999 1010.73 171.805C1056.16 161.677 1102.41 153.769 1147.02 148.172C1179.22 144.173 1211.25 141.153 1242.13 139.198C1313.55 134.667 1381.21 135.377 1452.78 138.576C1474.19 139.553 1496.09 140.708 1518.32 142.13C1576.66 145.862 1634.84 151.814 1693.01 154.124C1703.64 154.569 1714.1 154.924 1724.72 155.102C1792.7 156.257 1859.38 151.814 1921.97 137.954C1988.48 123.205 2051.07 96.817 2090.95 63.6764" stroke="white" stroke-opacity="0.15" stroke-miterlimit="10"/>
<path d="M-164.599 314.319C-100.211 269.184 -27.9785 226.003 58.7983 188.687C123.513 160.877 202.119 137.865 282.196 132.268C332.856 128.714 382.373 131.113 425.026 140.442C501.671 157.412 544.814 194.373 623.093 211.166C674.244 222.272 731.115 224.137 788.639 218.273C801.876 216.941 814.95 215.164 827.86 213.031C891.758 202.458 953.205 183.889 1020.21 168.696C1065.15 158.567 1110.58 150.304 1154.54 144.085C1186.24 139.642 1217.62 136.088 1248.34 133.512C1318.78 127.648 1386.11 126.67 1457.2 128.714C1478.44 129.336 1500.18 130.224 1522.24 131.468C1580.25 134.667 1637.94 140.62 1695.3 143.463C1705.76 143.996 1716.22 144.44 1726.52 144.707C1793.68 146.661 1859.87 143.463 1922.78 130.58C1989.3 116.986 2052.87 91.3974 2092.42 58.701" stroke="white" stroke-opacity="0.15" stroke-miterlimit="10"/>
<path d="M-149.891 309.432C-86.6471 264.741 -16.2124 221.827 68.9303 184.866C134.626 156.346 214.866 132.89 296.413 127.559C346.747 124.271 395.447 126.848 437.773 136.088C513.437 152.703 558.705 188.065 635.676 204.768C686.337 215.874 742.227 218.54 799.588 213.298C812.826 212.143 825.899 210.455 838.646 208.5C902.217 198.727 963.664 180.868 1029.85 165.675C1074.14 155.457 1118.91 146.839 1162.06 140.086C1193.11 135.2 1224.16 131.113 1254.55 127.914C1324.17 120.629 1391.17 118.052 1461.61 119.029C1482.69 119.296 1504.26 119.918 1526.16 120.984C1584.01 123.649 1640.88 129.602 1697.43 132.89C1707.89 133.512 1718.18 134.045 1728.31 134.489C1794.5 137.154 1860.19 135.2 1923.6 123.383C1989.95 110.944 2054.67 86.244 2093.89 53.9031" stroke="white" stroke-opacity="0.15" stroke-miterlimit="10"/>
<path d="M-135.347 304.545C-73.2466 260.388 -4.77296 217.651 78.7355 181.046C145.248 151.814 227.122 127.914 310.14 122.85C359.984 119.829 408.03 122.672 450.193 131.646C525.04 147.816 572.432 181.579 648.096 198.282C698.267 209.477 753.176 212.765 810.374 208.233C823.448 207.167 836.521 205.746 849.268 203.969C912.676 194.995 974.122 177.847 1039.33 162.654C1083.12 152.436 1127.09 143.463 1169.57 135.999C1200.13 130.668 1230.69 126.048 1260.6 122.228C1329.24 113.609 1396.08 109.7 1465.86 109.256C1486.78 109.078 1508.18 109.611 1529.92 110.411C1587.44 112.543 1643.66 118.496 1699.39 122.317C1709.68 123.027 1719.82 123.649 1729.95 124.182C1795.32 127.559 1860.52 126.937 1924.09 116.097C1990.44 104.813 2056.14 81.0019 2095.03 49.0164" stroke="white" stroke-opacity="0.15" stroke-miterlimit="10"/>
<path d="M-120.802 299.57C-59.8459 255.945 6.83015 213.476 88.7044 177.048C156.197 147.106 239.706 122.761 324.195 117.963C373.712 115.209 420.94 118.23 462.776 127.115C536.806 142.93 586.16 175.004 660.517 191.708C710.033 202.903 764.289 206.99 820.997 203.169C834.07 202.281 846.981 201.037 859.728 199.349C922.808 191.175 984.255 174.738 1048.81 159.545C1091.95 149.327 1135.26 139.909 1177.09 131.913C1207.16 126.137 1237.23 120.984 1266.81 116.631C1334.63 106.591 1400.98 100.727 1470.11 99.4828C1491.03 99.1274 1512.27 99.2162 1533.68 99.8382C1590.88 101.437 1646.44 107.39 1701.51 111.655C1711.64 112.455 1721.78 113.165 1731.75 113.876C1796.3 117.963 1860.85 118.585 1924.91 108.812C1991.26 98.6831 2058.1 75.6713 2096.5 44.13" stroke="white" stroke-opacity="0.15" stroke-miterlimit="10"/>
<path d="M-106.094 294.683C-46.2819 251.503 18.433 209.3 98.8365 173.227C167.31 142.574 252.453 117.785 338.249 113.254C387.439 110.678 433.851 114.054 475.36 122.761C548.409 138.132 599.887 168.696 673.1 185.311C722.126 196.505 775.402 201.303 831.946 198.194C844.856 197.483 857.766 196.328 870.513 194.906C933.267 187.532 994.714 171.894 1058.45 156.524C1101.1 146.306 1143.59 136.533 1184.77 127.825C1214.19 121.695 1243.93 115.92 1273.18 110.944C1340.02 99.5715 1406.21 91.9305 1474.68 89.7092C1495.44 88.9985 1516.52 88.8208 1537.76 89.265C1594.63 90.42 1649.54 96.3729 1703.8 100.993C1713.77 101.882 1723.74 102.681 1733.71 103.481C1797.28 108.279 1861.5 110.144 1925.89 101.437C1992.24 92.3747 2060.06 70.3402 2098.14 39.1543" stroke="white" stroke-opacity="0.15" stroke-miterlimit="10"/>
<path d="M-91.5496 289.797C-32.8812 247.149 29.8727 205.124 108.805 169.406C178.096 138.043 265.036 112.721 352.304 108.634C401.167 106.324 446.761 109.878 487.943 118.407C560.176 133.423 613.615 162.299 685.52 178.913C734.056 190.197 786.351 195.617 842.732 193.218C855.642 192.685 868.389 191.707 881.136 190.375C943.563 183.8 1005.01 168.873 1067.93 153.503C1109.93 143.285 1151.76 133.067 1192.13 123.827C1221.05 117.252 1250.14 110.944 1279.23 105.346C1345.25 92.6411 1410.95 83.312 1478.93 80.0246C1499.52 79.0472 1520.44 78.5141 1541.52 78.7807C1598.23 79.4026 1652.32 85.4444 1705.76 90.5087C1715.73 91.4861 1725.54 92.4634 1735.34 93.263C1798.09 98.7717 1861.67 101.881 1926.54 94.1515C1992.89 86.244 2061.69 65.098 2099.44 34.2675" stroke="white" stroke-opacity="0.15" stroke-miterlimit="10"/>
<path d="M-76.8417 284.91C-19.3173 242.707 41.4755 200.948 118.774 165.586C188.882 133.512 277.62 107.745 366.358 103.925C414.731 101.792 459.672 105.702 500.527 114.054C571.942 128.625 627.342 155.99 697.94 172.516C745.823 183.8 797.301 190.019 853.518 188.331C866.265 187.887 879.011 187.087 891.595 185.932C953.695 180.157 1015.14 165.941 1077.24 150.57C1118.59 140.353 1159.77 129.78 1199.48 119.918C1227.92 112.899 1256.52 106.057 1285.11 99.8378C1350.16 85.7109 1415.69 74.7825 1483.02 70.34C1503.61 69.0073 1524.2 68.2965 1545.12 68.2965C1601.5 68.3853 1654.94 74.4271 1707.72 79.9357C1717.53 81.0019 1727.33 82.0681 1736.97 83.0454C1798.91 89.2648 1861.99 93.6184 1927.2 86.9548C1993.55 80.2022 2063.49 59.9447 2100.75 29.3807" stroke="white" stroke-opacity="0.15" stroke-miterlimit="10"/>
<path d="M-62.2969 280.023C-5.91642 238.353 52.9153 196.683 128.743 161.677C199.831 128.803 290.203 102.592 380.249 99.1271C428.295 97.2613 472.419 101.437 513.111 109.611C583.545 123.827 641.07 149.504 710.524 166.03C757.916 177.314 808.413 184.244 864.304 183.267C877.05 183 889.634 182.378 902.217 181.401C963.991 176.426 1025.44 162.921 1086.88 147.55C1127.74 137.332 1168.1 126.315 1207.16 115.831C1235.11 108.367 1263.22 101.082 1291.49 94.2404C1355.71 78.8696 1420.75 66.0754 1487.59 60.6556C1508.02 58.9675 1528.61 57.9901 1549.2 57.8124C1605.26 57.2794 1658.04 63.4099 1710.01 69.4516C1719.65 70.6067 1729.29 71.7617 1738.94 72.8279C1800.06 79.7581 1862.48 85.3556 1928.01 79.7581C1994.36 74.0718 2065.29 54.7027 2102.22 24.583" stroke="white" stroke-opacity="0.15" stroke-miterlimit="10"/>
<path d="M-47.5892 275.137C7.64726 234 64.518 192.507 138.875 157.856C210.78 124.271 302.95 97.6169 394.466 94.4183C442.185 92.7302 485.492 97.1726 525.857 105.169C595.475 118.941 654.96 143.107 723.107 159.544C770.009 170.917 819.689 178.558 875.253 178.203C887.836 178.114 900.419 177.67 913.003 176.781C974.449 172.605 1035.9 159.811 1096.53 144.351C1136.73 134.134 1176.44 122.761 1214.84 111.655C1242.13 103.747 1269.92 95.8399 1297.86 88.4654C1361.27 71.673 1425.98 57.2795 1492.01 50.7047C1512.27 48.6612 1532.7 47.4173 1553.13 47.0619C1608.85 46.0846 1661.15 52.1263 1712.13 58.6122C1721.78 59.8561 1731.25 61.1 1740.73 62.255C1800.87 69.896 1862.97 76.7374 1928.83 72.2061C1995.18 67.586 2067.09 49.1943 2103.69 19.4299" stroke="white" stroke-opacity="0.15" stroke-miterlimit="10"/>
<path d="M-33.045 270.161C21.0475 229.468 75.9572 188.242 148.68 153.947C221.402 119.651 315.37 92.4635 408.193 89.6203C592.86 84.0229 703.66 171.894 885.711 173.227C999.943 174.027 1115.97 140.531 1222.03 107.657C1328.09 74.7826 1441.18 39.7762 1556.72 36.5776C1622.58 34.8006 1682.88 43.6855 1742.37 52.0373C1801.69 60.3891 1863.14 68.4743 1929.49 65.0092C1995.83 61.5441 2068.72 44.0409 2105 14.632" stroke="white" stroke-opacity="0.15" stroke-miterlimit="10"/>
</g>
<defs>
<clipPath id="clip0_751_693">
<rect width="1920" height="861" fill="white"/>
</clipPath>
</defs>
</svg>
